<?xml version="1.0" standalone="no"?>
<!DOCTYPE svg PUBLIC "-//W3C//DTD SVG 1.1//EN" "http://www.w3.org/Graphics/SVG/1.1/DTD/svg11.dtd" >
<svg xmlns="http://www.w3.org/2000/svg" xmlns:xlink="http://www.w3.org/1999/xlink" version="1.1">
<metadata>
Created by FontForge 20170731 at Fri Apr 29 07:38:02 2016
 By Aleksey,,,
Copyright (c) 2015, Impallari Type (www.impallari.com)
</metadata>
<defs>
<font id="LibreFranklin-SemiBold" horiz-adv-x="0" >
  <font-face 
    font-family="Libre Franklin SemiBold"
    font-weight="600"
    font-stretch="normal"
    units-per-em="1000"
    panose-1="0 0 7 0 0 0 0 0 0 0"
    ascent="800"
    descent="-200"
    x-height="530"
    cap-height="742"
    bbox="-399 -242 1343 964"
    underline-thickness="50"
    underline-position="-150"
    unicode-range="U+000D-FB02"
  />
<missing-glyph horiz-adv-x="666" 
d="M582 841.5q5 -5.5 5 -15.5v-962q0 -16 -8 -22.5t-25 -6.5h-448q-15 0 -21 6t-6 19v964q0 11 5 17t14 6h471q8 0 13 -5.5zM531 792q-4 5 -11 5h-353l368 -855v837q0 8 -4 13zM136 -110q5 -5 18 -5h344l-367 849v-828q0 -11 5 -16z" />
    <glyph glyph-name="fi" unicode="fi" horiz-adv-x="650" 
d="M373 515v-63q0 -13 -15 -13h-93q-10 0 -10 -10v-412q0 -17 -15 -17h-101q-14 0 -14 16v414q0 9 -7 9h-81q-15 0 -15 13v63q0 15 16 15h76q11 0 11 13v65q0 64 36 99t102 35h95q19 0 19 -18l1 -56q0 -6 -3.5 -10t-10.5 -4h-59q-26 0 -39.5 -17.5t-13.5 -46.5v-50
q0 -10 11 -10h94q16 0 16 -15zM589 628q0 -12 -5.5 -17.5t-18.5 -5.5h-91q-11 0 -15 5t-4 15v98q0 19 16 19h103q7 0 11 -4.5t4 -12.5v-97zM587 22q0 -12 -5.5 -17t-18.5 -5h-87q-11 0 -15 4t-4 14v495q0 17 15 17h101q14 0 14 -16v-492z" />
    <glyph glyph-name="fl" unicode="fl" horiz-adv-x="651" 
d="M373 515v-63q0 -13 -15 -13h-93q-10 0 -10 -10v-412q0 -17 -15 -17h-101q-14 0 -14 16v414q0 9 -7 9h-81q-15 0 -15 13v63q0 15 16 15h76q11 0 11 13v65q0 64 36 99t102 35h95q19 0 19 -18l1 -56q0 -6 -3.5 -10t-10.5 -4h-59q-26 0 -39.5 -17.5t-13.5 -46.5v-50
q0 -10 11 -10h94q16 0 16 -15zM587 22q0 -13 -5 -17.5t-18 -4.5h-88q-11 0 -15.5 4t-4.5 14l3 707q0 17 15 17h99q14 0 14 -16v-704z" />
    <glyph glyph-name=".notdef" horiz-adv-x="666" 
d="M582 841.5q5 -5.5 5 -15.5v-962q0 -16 -8 -22.5t-25 -6.5h-448q-15 0 -21 6t-6 19v964q0 11 5 17t14 6h471q8 0 13 -5.5zM531 792q-4 5 -11 5h-353l368 -855v837q0 8 -4 13zM136 -110q5 -5 18 -5h344l-367 849v-828q0 -11 5 -16z" />
    <glyph glyph-name="uni0000" 
 />
    <glyph glyph-name="uni0000" 
 />
    <glyph glyph-name="nonmarkingreturn" unicode="&#xd;" horiz-adv-x="212" 
 />
    <glyph glyph-name="space" unicode=" " horiz-adv-x="209" 
 />
    <glyph glyph-name="exclam" unicode="!" horiz-adv-x="257" 
d="M171 234q-1 -11 -6 -15.5t-17 -4.5h-44q-10 0 -13.5 4t-5.5 14l-32 494v2q0 14 13 14h124q6 0 10 -4t3 -10zM200 21q0 -11 -5.5 -16t-18.5 -5h-102q-11 0 -15 4.5t-4 13.5v111q0 16 13 16h119q13 0 13 -14v-110z" />
    <glyph glyph-name="quotedbl" unicode="&#x22;" horiz-adv-x="449" 
d="M365 492q-2 -11 -6.5 -15.5t-16.5 -4.5h-32q-9 0 -13 4t-5 13l-31 238v2q0 13 13 13h109q15 0 13 -14zM161 492q-2 -11 -6.5 -15.5t-16.5 -4.5h-32q-9 0 -13 4t-5 13l-31 238v2q0 13 13 13h109q15 0 13 -14z" />
    <glyph glyph-name="numbersign" unicode="#" horiz-adv-x="603" 
d="M577 511.5q4 -3.5 4 -10.5v-37q0 -20 -23 -20h-99l-21 -139h96q6 0 10 -3.5t4 -10.5v-37q0 -20 -23 -20h-97l-32 -213q-2 -13 -6 -17.5t-16 -3.5l-32 5q-11 2 -15.5 5t-3.5 11l32 213h-142l-32 -213q-2 -13 -6 -17.5t-16 -3.5l-32 5q-11 2 -15 5t-3 11l32 213h-100
q-10 0 -14 4t-4 13v38q0 16 12 16h116l21 139h-98q-10 0 -14 4t-4 13v38q0 16 12 16h115l31 211q3 17 14 16l45 -5q14 -2 13 -16l-31 -206h142l32 211q3 17 14 16l45 -5q15 -2 12 -16l-31 -206h98q6 0 10 -3.5zM387 444h-143l-20 -139h142z" />
    <glyph glyph-name="dollar" unicode="$" horiz-adv-x="638" 
d="M575 101.5q-27 -45.5 -76.5 -73.5t-115.5 -33q-9 -1 -12 -3.5t-3 -10.5v-43q0 -20 -20 -20h-49q-18 0 -18 17v47q0 7 -2.5 10t-9.5 3q-75 3 -129 27t-100 71q-12 11 -12 19q0 5 5 10l51 53q7 7 13 7q7 0 13 -6q32 -37 70 -58t89 -26h4q5 0 7 2t2 7l1 197q0 8 -4 12.5
t-13 8.5q-116 31 -165.5 83.5t-49.5 131.5q0 80 57.5 136t157.5 72q6 1 11 5t5 10v42q0 6 3.5 9t7.5 3h59q16 0 16 -17v-43q0 -4 2.5 -5.5t9.5 -3.5q101 -18 176 -79q8 -5 8 -12q0 -4 -5 -11l-47 -57q-6 -6 -11 -6q-6 0 -14 8q-18 20 -46.5 35.5t-61.5 22.5l-4 1q-8 0 -8 -9
v-197q0 -6 2.5 -8.5t9.5 -4.5l50 -14q81 -27 127 -80.5t46 -126.5q0 -57 -27 -102.5zM282 636q0 14 -12 11q-50 -7 -78.5 -34.5t-28.5 -65.5q0 -33 23 -56.5t76 -43.5q2 -1 7 -1q13 0 13 18v172zM379 92q50 4 79.5 30t29.5 64q0 39 -25 65t-82 43q-3 1 -7 1t-5.5 -2t-1.5 -8
v-187q0 -9 12 -6z" />
    <glyph glyph-name="percent" unicode="%" horiz-adv-x="935" 
d="M321.5 725.5q41.5 -27.5 65.5 -76t24 -108.5t-23.5 -108t-65 -75t-93.5 -27t-94 27t-66 75t-24 108t24 108.5t66.5 76t93.5 27.5t92.5 -27.5zM264 6q-7 -10 -23 -10l-36 1q-15 0 -15 12q0 4 4 12l478 720q5 6 9.5 7.5t11.5 1.5h46q11 0 11 -7q0 -3 -3 -8zM292.5 436.5
q21.5 37.5 21.5 103.5q0 68 -22 106.5t-64 38.5t-64 -38.5t-22 -106.5q0 -66 22 -103.5t64 -37.5q43 0 64.5 37.5zM800.5 384.5q41.5 -27.5 65 -76t23.5 -108.5t-23.5 -108t-65 -75t-92.5 -27q-52 0 -94 27t-66 75t-24 108t24 108.5t66 76t94 27.5q51 0 92.5 -27.5zM770 96
q22 38 22 103q0 67 -22 106t-63 39t-63.5 -39t-22.5 -106q0 -64 22.5 -102.5t63.5 -38.5t63 38z" />
    <glyph glyph-name="ampersand" unicode="&#x26;" horiz-adv-x="818" 
d="M471.5 733.5q48.5 -19.5 76 -54.5t27.5 -82q0 -52 -42.5 -104t-118.5 -87q-8 -4 -8 -8t5 -9l123 -139q6 -6 9 -6t11 8q29 29 57.5 72t39.5 74q6 14 21 9l65 -21q7 -2 10.5 -9t1.5 -14q-30 -77 -122 -184q-6 -7 -6 -11q0 -3 8 -8q24 -21 62.5 -34t77.5 -14q10 -1 14 -5
t4 -12v-73q0 -22 -21 -22q-64 0 -126.5 20.5t-108.5 54.5q-7 4 -12 4q-6 0 -12 -5q-49 -40 -105.5 -59.5t-125.5 -19.5q-112 0 -174.5 52.5t-62.5 144.5q0 60 38.5 109.5t124.5 98.5q10 6 10 11q0 4 -9 14q-64 70 -64 144q0 52 29 94t80 66t114 24q61 0 109.5 -19.5z
M296.5 644q-26.5 -27 -26.5 -65q0 -34 32 -71l31 -36q4 -4 10 -4q3 0 9 2q55 27 80.5 56.5t25.5 65.5q0 37 -25 58t-65 21q-45 0 -71.5 -27zM279 333q-7 0 -12 -4q-41 -21 -64 -54.5t-23 -70.5q0 -47 35.5 -79t87.5 -32q33 0 68 13.5t59 35.5q8 6 8 13q0 6 -5 11l-139 158
q-8 9 -15 9z" />
    <glyph glyph-name="quotesingle" unicode="'" horiz-adv-x="245" 
d="M161 492q-2 -11 -6.5 -15.5t-16.5 -4.5h-32q-9 0 -13 4t-5 13l-31 238v2q0 13 13 13h109q15 0 13 -14z" />
    <glyph glyph-name="parenleft" unicode="(" horiz-adv-x="304" 
d="M286 738.5q2 -3.5 -1 -7.5q-52 -103 -82 -217.5t-30 -229.5q0 -110 26.5 -215t80.5 -221l2 -5q0 -3 -3 -5.5t-7 -2.5h-66q-9 0 -15 9q-68 117 -102 219t-34 222t37 234.5t102 212.5q10 10 21 10h62q7 0 9 -3.5z" />
    <glyph glyph-name="parenright" unicode=")" horiz-adv-x="304" 
d="M89 742q11 0 21 -10q65 -98 102 -212.5t37 -234.5t-34 -222t-102 -219q-6 -9 -15 -9h-66q-7 0 -9 4t1 9q54 116 80.5 221t26.5 215q0 115 -30 229.5t-82 217.5q-1 2 -1 5q0 6 9 6h62z" />
    <glyph glyph-name="asterisk" unicode="*" horiz-adv-x="436" 
d="M225 487q-1 2 -3.5 2t-4.5 -2l-74 -123q-3 -4 -10 -4q-4 0 -10 3l-48 34q-6 5 -6 9t4 8l88 108l2 4q0 5 -6 6l-123 34q-11 3 -6 18l19 51q5 11 15 6l116 -49l4 -1q6 0 6 7l-10 133v2q0 3 3 6t8 3h64q6 0 8.5 -3.5t2.5 -7.5l-10 -134v-2q0 -3 2 -4t5 0l120 52q4 2 6 2
q8 0 10 -10l16 -50q1 -2 1 -6q0 -9 -9 -11l-120 -36q-4 -1 -4.5 -4.5t2.5 -6.5l84 -102q4 -6 4 -9q0 -7 -10 -13l-42 -29q-8 -5 -13 -5q-6 0 -9 5z" />
    <glyph glyph-name="plus" unicode="+" horiz-adv-x="574" 
d="M522 407v-62q0 -20 -23 -20h-163v-173q0 -13 -14 -13h-63q-19 0 -19 23v163h-169q-10 0 -14 4t-4 13v63q0 16 13 16h174v169q0 10 4 14t13 4h63q16 0 16 -13v-174h173q13 0 13 -14z" />
    <glyph glyph-name="comma" unicode="," horiz-adv-x="239" 
d="M43 -145.5q-3 5.5 0 12.5l47 111q3 7 3 12q0 10 -12 10h-16q-19 0 -19 17v114q0 15 14 15h119q13 0 13 -14v-107q0 -8 -3 -14l-89 -147q-12 -15 -31 -15h-16q-7 0 -10 5.5z" />
    <glyph glyph-name="hyphen" unicode="-" horiz-adv-x="380" 
d="M327 235q0 -19 -23 -19h-232q-10 0 -14 4t-4 13v63q0 16 13 16h247q13 0 13 -13v-64z" />
    <glyph glyph-name="period" unicode="." horiz-adv-x="237" 
d="M190 21q0 -11 -6 -16t-19 -5h-101q-11 0 -15.5 4.5t-4.5 13.5v113q0 17 14 17h118q14 0 14 -15v-112z" />
    <glyph glyph-name="slash" unicode="/" horiz-adv-x="357" 
d="M9 -22.5q-3 3.5 -1 9.5l250 742q5 13 18 13h59q15 0 15 -11q0 -4 -3 -12l-244 -727q-6 -18 -24 -18h-60q-7 0 -10 3.5z" />
    <glyph glyph-name="zero" unicode="0" horiz-adv-x="701" 
d="M504.5 706.5q67.5 -46.5 106 -134t38.5 -203.5t-38 -201.5t-105.5 -131t-154.5 -45.5t-154.5 45.5t-106 130.5t-38.5 201q0 117 39 204t107 134t154 47q85 0 152.5 -46.5zM462 161.5q37 64.5 37 206.5q0 145 -37.5 212.5t-110.5 67.5q-149 0 -149 -280q0 -141 38 -206
t111 -65q74 0 111 64.5z" />
    <glyph glyph-name="one" unicode="1" horiz-adv-x="494" 
d="M457 97v-82q0 -6 -4 -10.5t-13 -4.5h-380q-16 0 -16 14v83q0 14 15 14h112q9 0 9 6v465q0 7 -2.5 9t-9.5 1l-106 -35q-2 -1 -6 -1q-13 0 -13 17v58q0 9 2.5 12.5t10.5 7.5l161 81q11 5 19.5 7.5t18.5 2.5h60q13 0 13 -16v-606q0 -9 9 -9h104q16 0 16 -14z" />
    <glyph glyph-name="two" unicode="2" horiz-adv-x="628" 
d="M276 318q63 56 95.5 91.5t45.5 64t13 60.5q0 50 -36 79.5t-88 29.5q-92 0 -154 -103q-3 -7 -12 -7q-6 0 -13 4l-74 39q-10 6 -10 15q0 6 5 14q95 147 268 147q75 0 133.5 -26t91.5 -75.5t33 -117.5q0 -62 -34 -115.5t-116 -122.5l-191 -161q-5 -5 -5 -7q0 -5 11 -5h325
q9 0 13 -3t4 -11v-92q0 -16 -18 -16h-501q-12 0 -16.5 4t-4.5 15v65q0 9 7 19.5t33 31.5z" />
    <glyph glyph-name="three" unicode="3" horiz-adv-x="658" 
d="M65 639q0 3 4 11q43 49 108.5 75.5t141.5 26.5q82 0 143 -24.5t93.5 -68t32.5 -99.5q0 -51 -32 -94t-89 -61q-11 -3 -11 -9q0 -5 11 -8q64 -20 104 -67t40 -110q0 -104 -77.5 -162.5t-227.5 -58.5q-83 0 -153 31t-114 87q-5 7 -5 11q0 8 9 14l66 48q8 5 12 5q5 0 8 -5
q46 -47 87.5 -66t98.5 -19q70 0 110.5 31t40.5 81q0 56 -45.5 88.5t-110.5 33.5l-87 1q-16 0 -16 13v79q0 11 16 13l70 2q66 2 108.5 33.5t42.5 80.5q0 41 -36 68.5t-91 27.5q-47 0 -87 -18t-80 -56q-7 -7 -11 -7t-10 6l-60 57q-4 6 -4 9z" />
    <glyph glyph-name="four" unicode="4" horiz-adv-x="675" 
d="M386 739q7 3 20 3h106q14 0 14 -16v-429q0 -5 3 -8t7 -3h86q17 0 17 -13v-73q0 -17 -18 -17h-84q-11 0 -11 -11v-152q0 -11 -5 -15.5t-17 -4.5h-109q-19 0 -19 18l1 157q0 8 -11 8h-309q-18 0 -18 17v72q0 8 5 17.5t17 25.5l310 411q8 10 15 13zM368 286q4 0 6.5 2t2.5 5
v278q0 14 -4 14q-2 0 -10 -10l-202 -276q-4 -6 -4 -8q0 -5 11 -5h200z" />
    <glyph glyph-name="five" unicode="5" horiz-adv-x="669" 
d="M556 742q14 0 17.5 -4t2.5 -16l-4 -84q-1 -9 -5 -12.5t-15 -3.5h-324q-15 0 -15 -13l-14 -158v-3q0 -6 4 -9t9 0q49 19 79.5 27.5t71.5 8.5q74 0 133 -26.5t93.5 -79t34.5 -127.5q0 -78 -37.5 -135t-104.5 -87t-154 -30q-89 0 -163.5 30.5t-117.5 84.5q-7 9 -7 15
q0 7 8 14l69 50q5 3 10 3q6 0 13 -7q44 -44 80 -64.5t91 -20.5q78 0 122.5 40t44.5 103q0 61 -40 96t-106 35q-37 0 -67 -11t-77 -35q-8 -4 -11 -4q-2 0 -12 5l-76 42q-7 4 -9 7t-2 8l1 14l28 327q1 12 6.5 16t24.5 4h418z" />
    <glyph glyph-name="six" unicode="6" horiz-adv-x="677" 
d="M473 732.5q46 -18.5 76.5 -46.5t43.5 -57q2 -6 2 -9q0 -8 -8 -11l-91 -32l-4 -1q-7 0 -14 11q-22 29 -46 44t-61 15q-83 0 -127.5 -59.5t-44.5 -157.5q0 -14 1.5 -19t6.5 -5q2 0 12 4q46 20 81 30.5t82 10.5q76 0 133 -28t88 -78t31 -113q0 -69 -37 -124t-101 -85.5
t-141 -30.5q-93 0 -161.5 44t-105 126.5t-36.5 195.5q0 122 39 210.5t111 136t169 47.5q56 0 102 -18.5zM281 339.5q-40 -11.5 -64 -26.5q-10 -7 -13 -14t-3 -23q0 -46 17.5 -88.5t51.5 -69.5t82 -27q58 0 97 38.5t39 96.5q0 55 -37.5 90t-96.5 35q-33 0 -73 -11.5z" />
    <glyph glyph-name="seven" unicode="7" horiz-adv-x="612" 
d="M552 742q11 0 17.5 -5.5t5.5 -12.5l-2 -49q0 -14 -21 -49q-60 -89 -112.5 -203.5t-86.5 -221.5t-41 -176q-1 -25 -19 -25h-132q-10 0 -14 6t-1 16q75 277 270 585q3 6 3 9q0 6 -11 6h-355q-19 0 -17 18l9 89q1 13 21 13h486z" />
    <glyph glyph-name="eight" unicode="8" horiz-adv-x="678" 
d="M472 725.5q60 -26.5 94 -73.5t34 -106q0 -44 -24 -79t-74 -66q-8 -5 -8 -9t7 -8q70 -35 101 -78t31 -101q0 -66 -38 -114.5t-106.5 -74.5t-157.5 -26q-129 0 -206 51t-77 142q0 52 26.5 92t88.5 77q10 6 10 9q0 4 -9 10q-45 29 -70.5 66t-25.5 92q0 62 33 113t94 80.5
t141 29.5q76 0 136 -26.5zM244.5 622q-37.5 -30 -37.5 -77q0 -72 81 -92l87 -24q3 -1 8 -1q19 0 40.5 17.5t36 44.5t14.5 54q0 47 -37 77.5t-99 30.5q-56 0 -93.5 -30zM447 118.5q39 28.5 39 77.5q0 37 -20.5 60.5t-68.5 36.5l-107 29q-8 2 -12 2q-21 0 -45.5 -16t-41 -43.5
t-16.5 -60.5q0 -54 41.5 -84t123.5 -30q68 0 107 28.5z" />
    <glyph glyph-name="nine" unicode="9" horiz-adv-x="675" 
d="M202 9.5q-47 18.5 -77.5 46.5t-44.5 58q-2 6 -2 9q0 8 8 11l91 31l4 1q9 0 14 -10q21 -30 47 -45t65 -15q81 0 125 60t44 158q0 24 -9 24q-2 0 -12 -4q-44 -21 -78.5 -31.5t-81.5 -10.5q-76 0 -132.5 28t-87.5 78t-31 113q0 69 37 124t100.5 85.5t141.5 30.5
q92 0 159.5 -44t104 -126.5t36.5 -195.5q0 -121 -39 -210t-110.5 -136.5t-166.5 -47.5q-58 0 -105 18.5zM395.5 403q39.5 12 63.5 29q10 7 13 14t3 23q0 46 -17.5 88t-51 68.5t-80.5 26.5q-58 0 -97 -38.5t-39 -96.5q0 -55 37 -90.5t95 -35.5q34 0 73.5 12z" />
    <glyph glyph-name="colon" unicode=":" horiz-adv-x="237" 
d="M190 390q0 -11 -6 -16t-19 -5h-101q-11 0 -15.5 4.5t-4.5 14.5v110q0 16 14 16h118q14 0 14 -15v-109zM190 24q0 -11 -6 -16t-19 -5h-101q-11 0 -15.5 4.5t-4.5 14.5v110q0 16 14 16h118q14 0 14 -14v-110z" />
    <glyph glyph-name="semicolon" unicode=";" horiz-adv-x="249" 
d="M48.5 369.5q-4.5 4.5 -4.5 13.5v113q0 16 14 16h118q14 0 14 -14v-112q0 -11 -6 -16t-19 -5h-101q-11 0 -15.5 4.5zM43 -148q-3 6 0 13l47 113q3 7 3 12q0 10 -12 10h-16q-19 0 -19 17v114q0 15 14 15h119q13 0 13 -14v-107q0 -8 -3 -14l-89 -149q-13 -16 -31 -16h-16
q-7 0 -10 6z" />
    <glyph glyph-name="less" unicode="&#x3c;" horiz-adv-x="566" 
d="M504 149q0 -10 -4.5 -15.5t-12.5 -5.5q-6 0 -12 3l-410 159q-19 7 -19 24v77q0 19 19 25l411 161q4 2 10 2q8 0 13 -5.5t5 -14.5v-65q0 -11 -7 -18.5t-24 -14.5l-282 -109l282 -107q17 -7 24 -13.5t7 -18.5v-64z" />
    <glyph glyph-name="equal" unicode="=" horiz-adv-x="574" 
d="M522 442q0 -10 -5.5 -14.5t-17.5 -4.5h-428q-10 0 -14 4t-4 13v63q0 16 13 16h443q13 0 13 -14v-63zM522 211q0 -20 -23 -20h-428q-10 0 -14 4t-4 13v63q0 16 13 16h443q13 0 13 -14v-62z" />
    <glyph glyph-name="greater" unicode="&#x3e;" horiz-adv-x="566" 
d="M69 231.5q7 6.5 24 13.5l281 107l-281 109q-17 7 -24 14.5t-7 18.5v65q0 9 5 14.5t13 5.5q6 0 10 -2l411 -161q19 -7 19 -25v-77q0 -17 -19 -24l-411 -159q-6 -3 -11 -3q-8 0 -12.5 5.5t-4.5 15.5v64q0 12 7 18.5z" />
    <glyph glyph-name="question" unicode="?" horiz-adv-x="532" 
d="M16 606q32 70 96.5 108t151.5 38q70 0 124.5 -23t84 -63.5t29.5 -89.5q0 -38 -14 -68.5t-34 -53.5t-54 -54q-33 -30 -52 -51.5t-32.5 -50.5t-13.5 -64q0 -7 -5 -12t-12 -5h-71q-18 0 -18 20q0 46 14.5 83.5t35.5 64.5t54 61q36 37 54 64t18 59q0 42 -30.5 67t-78.5 25
q-43 0 -82 -24.5t-55 -63.5q-3 -6 -7 -7.5t-11 -0.5l-85 22q-13 4 -7 19zM321 21q0 -11 -5.5 -16t-18.5 -5h-102q-19 0 -19 18v111q0 16 14 16h118q13 0 13 -14v-110z" />
    <glyph glyph-name="at" unicode="@" horiz-adv-x="834" 
d="M561.5 -94.5q-59.5 -18.5 -129.5 -18.5q-119 0 -207.5 50t-135.5 135.5t-47 189.5q0 108 51 199.5t144 145.5t213 54q94 0 175.5 -34.5t132 -107t50.5 -180.5q0 -75 -25 -133.5t-69.5 -91.5t-101.5 -33q-40 0 -63 13.5t-31 35.5q-3 6 -6 6q-1 0 -6 -6q-53 -63 -136 -63
q-41 0 -75 21.5t-53.5 61.5t-19.5 92q0 62 25 115.5t70.5 85.5t104.5 32q38 0 64.5 -14.5t45.5 -40.5q2 -2 4.5 -1.5t3.5 4.5l5 20q2 6 9 6h62q8 0 7 -7l-36 -216q-3 -15 -3 -26q0 -42 37 -42q27 0 51 20.5t38.5 60t14.5 94.5q0 89 -39 145.5t-101 81.5t-136 25
q-105 0 -177.5 -43t-108.5 -116.5t-36 -163.5q0 -92 38 -160.5t110 -106t172 -37.5q58 0 93.5 13t79.5 41q5 4 12 4q6 0 9 -5l27 -37q3 -5 3 -7q0 -5 -10 -13q-40 -30 -99.5 -48.5zM337 177.5q19 -28.5 55 -28.5q45 0 78 38t38 89q1 6 1 18q0 45 -23 72t-58 27
q-47 0 -78.5 -40.5t-31.5 -100.5q0 -46 19 -74.5z" />
    <glyph glyph-name="A" unicode="A" horiz-adv-x="756" 
d="M37 14q0 3 2 11l252 699q4 10 9 14t15 4h125q22 0 28 -20l250 -698q2 -6 2 -9q0 -6 -3.5 -10.5t-9.5 -4.5h-121q-14 0 -18 13l-58 162q-2 5 -4 7.5t-8 2.5h-261q-9 0 -12 -9l-60 -164q-3 -12 -18 -12h-97q-13 0 -13 14zM462 298q9 0 9 8q0 5 -1 8l-96 267q-3 7 -7 7
t-7 -8l-97 -266q-2 -6 -2 -9q0 -7 10 -7h191z" />
    <glyph glyph-name="B" unicode="B" horiz-adv-x="715" 
d="M84 4.5q-5 4.5 -5 11.5v707q0 9 5 14t13 5h257q143 0 218.5 -49.5t75.5 -144.5q0 -57 -30.5 -96.5t-100.5 -67.5q-3 -1 -3 -4t3 -4q76 -23 112.5 -65.5t36.5 -110.5q0 -200 -301 -200h-269q-7 0 -12 4.5zM369 427q56 0 94 25.5t38 78.5t-38.5 81t-104.5 28h-114
q-9 0 -13 -3.5t-4 -11.5v-181q0 -9 3 -13t10 -4h129zM360 102q75 0 113.5 28t38.5 81q0 55 -39 83.5t-104 28.5h-124q-10 0 -14 -3.5t-4 -12.5v-188q0 -9 3 -13t10 -4h120z" />
    <glyph glyph-name="C" unicode="C" horiz-adv-x="719" 
d="M516.5 723.5q62.5 -28.5 103 -77.5t50.5 -109q1 -5 1 -12q0 -6 -2.5 -8t-8.5 -3l-114 -8q-7 0 -9.5 2.5t-4.5 11.5q-12 58 -50 92.5t-97 34.5q-179 0 -179 -274q0 -139 45 -205.5t137 -66.5q64 0 107.5 31.5t70.5 101.5q3 8 18 5l85 -18q5 -2 8 -6.5t1 -15.5
q-12 -45 -48.5 -93t-99.5 -82t-148 -34q-101 0 -176 47.5t-115 135t-40 202.5q0 116 40 201t114.5 130.5t175.5 45.5q73 0 135.5 -28.5z" />
    <glyph glyph-name="D" unicode="D" horiz-adv-x="741" 
d="M299 741q391 -9 391 -367q0 -179 -100.5 -276.5t-297.5 -97.5h-193q-20 0 -20 21v703q0 10 4 14t15 4q143 0 201 -1zM227 622v-504q0 -7 3 -9.5t10 -2.5h25q141 0 205.5 62t64.5 206q0 93 -26 148.5t-77.5 81.5t-134.5 30l-61 2q-9 0 -9 -14z" />
    <glyph glyph-name="E" unicode="E" horiz-adv-x="645" 
d="M94 742h485q13 0 13 -15v-76q0 -19 -18 -19h-330q-17 0 -17 -14v-175q0 -15 14 -15h228q15 0 15 -15v-81q0 -12 -14 -12h-230q-13 0 -13 -12v-186q0 -7 2.5 -9.5t8.5 -2.5h350q9 0 12.5 -3t3.5 -11v-81q0 -6 -4 -10.5t-13 -4.5h-489q-10 0 -14.5 4t-4.5 14v707
q0 17 15 17z" />
    <glyph glyph-name="F" unicode="F" horiz-adv-x="621" 
d="M94 742h477q13 0 13 -15l-1 -76q0 -19 -17 -19h-322q-17 0 -17 -14v-186q0 -15 14 -15h234q14 0 14 -14v-80q0 -6 -3 -9t-11 -3h-235q-13 0 -13 -13v-279q0 -10 -5.5 -14.5t-16.5 -4.5h-107q-11 0 -15 4t-4 14v707q0 17 15 17z" />
    <glyph glyph-name="G" unicode="G" horiz-adv-x="747" 
d="M204.5 36.5q-73.5 46.5 -113.5 132t-40 199.5q0 117 41.5 204t117 133.5t175.5 46.5q75 0 137.5 -29.5t102 -77t49.5 -101.5l2 -11q0 -10 -12 -12l-111 -17q-8 0 -10.5 3t-4.5 11q-9 55 -51 91.5t-105 36.5q-176 0 -176 -272q0 -144 46 -211t134 -67q70 0 112 40.5
t50 96.5l1 40q1 2 1 5q0 8 -10 8h-136q-8 0 -11 3t-3 12v64q0 12 14 12l260 -1q12 0 18 -5.5t6 -14.5v-342q0 -14 -13 -14h-29q-9 0 -14.5 3t-9.5 12l-22 79q-2 4 -4.5 3.5t-5.5 -4.5q-75 -103 -213 -103q-99 0 -172.5 46.5z" />
    <glyph glyph-name="H" unicode="H" horiz-adv-x="746" 
d="M239 327q-12 0 -12 -11v-296q0 -20 -23 -20h-106q-11 0 -15 4.5t-4 13.5v707q0 17 15 17h119q14 0 14 -16v-269q0 -16 14 -16h264q14 0 14 15v270q0 16 14 16h119q15 0 15 -17v-707q0 -18 -19 -18h-106q-12 0 -17.5 4.5t-5.5 15.5v296q0 11 -12 11h-268z" />
    <glyph glyph-name="I" unicode="I" horiz-adv-x="306" 
d="M213 742q14 0 14 -16v-704q0 -12 -5.5 -17t-18.5 -5h-104q-12 0 -16 4t-4 14v707q0 17 15 17h119z" />
    <glyph glyph-name="J" unicode="J" horiz-adv-x="437" 
d="M316.5 36q-46.5 -46 -144.5 -46q-31 0 -57 4.5t-60 13.5q-11 2 -15.5 8.5t-3.5 19.5l9 78q2 17 17 14l25.5 -8.5t45.5 -6.5q43 0 62.5 23.5t19.5 81.5v507q0 17 15 17h119q14 0 14 -16v-544q0 -100 -46.5 -146z" />
    <glyph glyph-name="K" unicode="K" horiz-adv-x="729" 
d="M695 11q0 -11 -13 -11h-126q-19 0 -25 13l-182 334q-3 5 -7 5t-10 -8l-98 -115q-7 -7 -7 -20v-189q0 -20 -23 -20h-105q-11 0 -15.5 4t-4.5 14v708q0 7 4 11.5t10 4.5h120q14 0 14 -15v-322q0 -9 4 -9q2 0 7 5l272 327q6 8 11.5 11t17.5 3h102q7 0 12 -3t5 -8t-4 -9
l-206 -237q-4 -5 -4 -10q0 -4 3 -10l245 -444q3 -6 3 -10z" />
    <glyph glyph-name="L" unicode="L" horiz-adv-x="619" 
d="M94 742h119q14 0 14 -16v-604q0 -7 2.5 -9.5t8.5 -2.5h328q16 0 16 -14v-81q0 -6 -4 -10.5t-13 -4.5h-467q-11 0 -15 4.5t-4 13.5v707q0 17 15 17z" />
    <glyph glyph-name="M" unicode="M" horiz-adv-x="934" 
d="M84 5.5q-5 5.5 -5 14.5v705q0 9 3.5 13t12.5 4h169q10 0 14.5 -3t6.5 -11l176 -472q3 -8 7 -8t7 9l171 466q5 19 20 19h175q14 0 14 -16v-705q0 -11 -5 -16t-17 -5h-107q-10 0 -14.5 4t-4.5 14v523q0 6 -3 6q-1 0 -5 -7l-190 -525q-4 -15 -20 -15h-71q-16 0 -22 15
l-188 519q-1 7 -5 7q-3 0 -3 -8v-517q0 -9 -3.5 -12.5t-13.5 -3.5h-85q-9 0 -14 5.5z" />
    <glyph glyph-name="N" unicode="N" horiz-adv-x="758" 
d="M667 742q7 0 9.5 -3t2.5 -11v-713q0 -15 -17 -15h-83q-8 0 -13 2t-11 9l-342 486q-4 6 -7.5 5.5t-3.5 -6.5v-480v-3q0 -13 -17 -13h-88q-18 0 -18 16v709q0 17 16 17h100q10 0 15 -2.5t11 -10.5l322 -464q4 -7 9 -7q6 0 6 10v458q0 16 16 16h93z" />
    <glyph glyph-name="O" unicode="O" horiz-adv-x="770" 
d="M208 35q-75 45 -115.5 130.5t-40.5 202.5q0 119 41 205.5t116 132.5t177 46q101 0 176 -46t116 -132.5t41 -204.5q0 -117 -40.5 -202.5t-115.5 -131t-177 -45.5q-103 0 -178 45zM521 161q43 65 43 206q0 144 -43.5 212t-134.5 68t-135.5 -68t-44.5 -212q0 -141 44 -206
t137 -65q91 0 134 65z" />
    <glyph glyph-name="P" unicode="P" horiz-adv-x="706" 
d="M589.5 351q-73.5 -58 -195.5 -58h-157q-10 0 -10 -10v-263q0 -20 -22 -20h-108q-18 0 -18 18v707q0 17 15 17h283q127 0 206.5 -57t79.5 -169q0 -107 -73.5 -165zM473 606.5q-38 28.5 -104 28.5h-125q-17 0 -17 -16v-202q0 -9 3 -13t10 -4h135q63 0 99.5 30.5t36.5 88.5
q0 59 -38 87.5z" />
    <glyph glyph-name="Q" unicode="Q" horiz-adv-x="772" 
d="M92.5 574q40.5 86 116 132t177.5 46t177 -46t115.5 -132t40.5 -205q0 -212 -126 -310q-3 -2 -3 -8q0 -11 16.5 -25.5t42.5 -27t53 -16.5q13 -2 13 -13v-71q0 -14 -7 -18.5t-26 -4.5q-118 0 -206 117q-5 7 -15 4q-36 -6 -75 -6q-102 0 -177.5 44.5t-116 130t-40.5 204.5
t40.5 205zM250 161q44 -65 136 -65t135.5 65.5t43.5 206.5q0 142 -44 210.5t-135 68.5q-92 0 -136 -68.5t-44 -211.5q0 -141 44 -206z" />
    <glyph glyph-name="R" unicode="R" horiz-adv-x="713" 
d="M658 15q0 -6 -4 -10.5t-11 -4.5h-122q-8 0 -12.5 3.5t-7.5 12.5l-115 292q-3 7 -9 10t-18 3h-120q-12 0 -12 -11v-289q0 -11 -5.5 -16t-17.5 -5h-106q-11 0 -15 4.5t-4 13.5v707q0 17 15 17h301q129 0 200 -52t71 -148q0 -75 -40 -125t-100 -71q-8 -3 -4 -13l134 -309
q2 -3 2 -9zM513 531q0 54 -33.5 82t-93.5 28h-141q-10 0 -14 -3t-4 -11v-189q0 -8 3 -11.5t10 -3.5h134q139 0 139 108z" />
    <glyph glyph-name="S" unicode="S" horiz-adv-x="665" 
d="M434 628.5q-36 17.5 -92 17.5q-66 0 -101.5 -25.5t-35.5 -69.5q0 -61 89 -89l154 -46q173 -52 173 -205q0 -67 -35 -117t-99.5 -77t-152.5 -27q-98 0 -175 33.5t-117 94.5q-4 10 -4 12q0 8 10 15l63 44q11 6 17 6q8 0 13 -7q39 -51 78.5 -72t105.5 -21q72 0 113 24t41 73
q0 32 -20.5 54t-72.5 39l-151 46q-83 25 -127 79.5t-44 122.5q0 64 34 113.5t96.5 77.5t144.5 28q79 0 145.5 -27.5t105.5 -75.5q6 -8 6 -13t-6 -10l-71 -53q-4 -3 -8 -3q-5 0 -14 10q-27 31 -63 48.5z" />
    <glyph glyph-name="T" unicode="T" horiz-adv-x="669" 
d="M36 726q0 16 17 16h562q17 0 17 -16v-78q0 -14 -16 -14h-192q-6 0 -8.5 -2t-2.5 -8v-607q0 -17 -15 -17h-119q-14 0 -14 16v606q0 7 -2.5 9.5t-8.5 2.5h-201q-9 0 -13 3t-4 11v78z" />
    <glyph glyph-name="U" unicode="U" horiz-adv-x="717" 
d="M572.5 55q-73.5 -65 -214.5 -65q-153 0 -220.5 72.5t-67.5 220.5v441q0 9 4 13.5t10 4.5h120q14 0 14 -16v-465q0 -84 38 -123.5t113 -39.5q155 0 155 166v461q0 17 14 17h95q13 0 13 -16v-461q0 -145 -73.5 -210z" />
    <glyph glyph-name="V" unicode="V" horiz-adv-x="724" 
d="M686 736q4 -6 1 -14l-245 -703q-6 -19 -28 -19h-105q-23 0 -29 18l-242 703q-1 2 -1 7q0 6 4 10t11 4h119q15 0 19 -15l179 -540q3 -8 6 -8q4 0 7 9l177 539q5 15 20 15h94q9 0 13 -6z" />
    <glyph glyph-name="W" unicode="W" horiz-adv-x="1071" 
d="M1029.5 735q5.5 -7 2.5 -19l-205 -697q-6 -19 -27 -19h-92q-22 0 -28 18l-138 482q-1 9 -4 9t-6 -10l-139 -480q-3 -10 -9.5 -14.5t-18.5 -4.5h-94q-22 0 -28 18l-203 697l-2 9q0 8 6 13t16 5h104q11 0 16 -3.5t7 -11.5l141 -499q3 -11 6 -11t6 9l141 501q3 8 8 11.5
t16 3.5h90q11 0 16 -3.5t7 -11.5l143 -504q3 -8 6 -8q4 0 5 7l140 505q3 15 24 15h76q12 0 17.5 -7z" />
    <glyph glyph-name="X" unicode="X" horiz-adv-x="715" 
d="M679 11q0 -11 -19 -11h-117q-19 0 -26 13l-158 247q-8 12 -12 12q-6 0 -13 -13l-156 -246q-6 -13 -28 -13h-95q-19 0 -19 10q0 9 10 23l217 329q6 9 6 14q0 6 -7 16l-215 327q-3 5 -3 11q0 5 3.5 8.5t9.5 3.5h124q11 0 16.5 -3t9.5 -11l142 -225q4 -7 9 -7q6 0 11 8
l142 224q4 8 9.5 11t15.5 3h105q13 0 13 -9q0 -5 -5 -12l-208 -315q-5 -8 -5 -13q0 -4 5 -14l229 -346q9 -15 9 -22z" />
    <glyph glyph-name="Y" unicode="Y" horiz-adv-x="715" 
d="M680 733q0 -4 -3 -9l-236 -390q-5 -7 -6 -14.5t-1 -30.5v-267q0 -12 -5.5 -17t-19.5 -5h-103q-11 0 -15.5 4.5t-4.5 14.5v272q0 11 -2 17.5t-8 16.5l-238 396q-4 5 -4 10q0 11 17 11h123q11 0 16 -3t11 -13l161 -281q6 -11 10 -11q3 0 10 10l159 282q5 10 10 13t16 3h100
q13 0 13 -9z" />
    <glyph glyph-name="Z" unicode="Z" horiz-adv-x="664" 
d="M43 3.5q-4 3.5 -4 13.5v32q0 10 2.5 16t12.5 20l357 535q3 5 3 7q0 5 -10 5h-327q-9 0 -12 3.5t-3 12.5v80q0 14 12 14h535q13 0 13 -14v-36q0 -8 -2.5 -13t-9.5 -15l-365 -542l-2 -5q0 -6 10 -6h351q15 0 15 -13v-83q0 -6 -4 -10.5t-13 -4.5h-545q-10 0 -14 3.5z" />
    <glyph glyph-name="bracketleft" unicode="[" horiz-adv-x="306" 
d="M90 742h190q11 0 11 -9v-57q0 -10 -11 -10h-82q-17 0 -17 -19v-721q0 -10 3 -12.5t11 -2.5h82q14 0 14 -12v-50q0 -14 -14 -14h-184q-20 0 -20 18l-1 874q0 15 18 15z" />
    <glyph glyph-name="backslash" unicode="\" horiz-adv-x="357" 
d="M263 -22q-6 4 -10 14l-244 727l-2 12q0 11 14 11h59q15 0 18 -13l250 -742q1 -2 1 -5q0 -8 -12 -8h-59q-9 0 -15 4z" />
    <glyph glyph-name="bracketright" unicode="]" horiz-adv-x="306" 
d="M233 -147q0 -18 -20 -18h-184q-14 0 -14 14v50q0 12 14 12h82q9 0 11.5 2.5t2.5 12.5v721q0 19 -17 19h-82q-11 0 -11 10v57q0 9 11 9h190q18 0 18 -15z" />
    <glyph glyph-name="asciicircum" unicode="^" horiz-adv-x="475" 
d="M245 382q-3 8 -8 8q-6 0 -9 -8l-99 -246q-3 -8 -19 -8h-60q-7 0 -9.5 5t0.5 13l150 358q7 17 19.5 26.5t26.5 9.5t26 -9t19 -26l151 -362q1 -3 1 -7q0 -9 -12 -9h-58q-17 0 -20 9z" />
    <glyph glyph-name="underscore" unicode="_" horiz-adv-x="535" 
d="M482 -115q0 -10 -5.5 -14.5t-17.5 -4.5l-388 -1q-10 0 -14 4t-4 13v64q0 16 13 16h403q13 0 13 -14v-63z" />
    <glyph glyph-name="grave" unicode="`" horiz-adv-x="299" 
d="M38.5 750.5q4.5 2.5 9.5 0.5l234 -98q11 -5 5 -18l-10 -31q-4 -10 -13 -10q-5 0 -8 1l-231 65q-15 5 -15 15l2 8l20 60q2 5 6.5 7.5z" />
    <glyph glyph-name="a" unicode="a" horiz-adv-x="558" 
d="M196 -10q-76 0 -120.5 40.5t-44.5 105.5q0 83 74 132t207 54l50 3q16 2 16 15v23q0 44 -26.5 68.5t-72.5 24.5q-76 0 -117 -66q-3 -4 -5.5 -6.5t-6.5 -2.5q-5 0 -8 1l-84 21q-8 2 -8 9q0 5 4 13q26 56 85.5 85.5t145.5 29.5q112 0 164.5 -44t52.5 -124v-352
q0 -11 -3.5 -15.5t-13.5 -4.5h-85q-9 0 -13 6t-6 18l-1 30q-1 9 -7 9q-3 0 -13 -8q-70 -65 -164 -65zM374.5 255q-3.5 4 -11.5 4l-41 -3q-70 -5 -116.5 -31.5t-46.5 -72.5q0 -34 24.5 -54t65.5 -20q52 0 91 32q38 30 38 61v71q0 9 -3.5 13z" />
    <glyph glyph-name="b" unicode="b" horiz-adv-x="606" 
d="M83 0q-11 0 -15.5 4.5t-4.5 15.5v705q0 17 15 17h101q14 0 14 -17v-237q0 -12 6 -12q3 0 10 5q64 59 147 59q102 0 156.5 -74.5t54.5 -197.5q0 -129 -60 -203.5t-168 -74.5q-54 0 -94 23.5t-66 56.5q-3 5 -6 5t-5 -8l-10 -48q-2 -10 -7 -14.5t-14 -4.5h-54zM193 182
q0 -47 34 -78.5t80 -31.5q59 0 93 47.5t34 146.5q0 189 -122 189q-35 0 -65.5 -16.5t-53.5 -44.5v-212z" />
    <glyph glyph-name="c" unicode="c" horiz-adv-x="548" 
d="M437 499q56 -41 80 -101l2 -9q0 -8 -12 -10l-88 -11l-4 -1q-7 0 -10 10q-24 39 -45.5 57.5t-57.5 18.5q-62 0 -98 -49t-36 -139q0 -92 37 -140.5t103 -48.5q43 0 72 22t56 67q3 4 6.5 5t9.5 -1l63 -17q10 -3 6 -17q-25 -58 -81 -101.5t-143 -43.5q-75 0 -134.5 34.5
t-93 96.5t-33.5 142q0 81 34 144t93.5 98t133.5 35q84 0 140 -41z" />
    <glyph glyph-name="d" unicode="d" horiz-adv-x="606" 
d="M415 18v33q0 9 -5 9q-3 0 -8 -5q-29 -28 -64.5 -46.5t-86.5 -18.5q-62 0 -110 30.5t-75.5 91t-27.5 148.5q0 82 29.5 146t80.5 99t114 35q42 0 73.5 -13.5t60.5 -39.5q5 -5 11 -5t6 13v231q0 16 14 16h101q15 0 15 -17v-706q0 -10 -4.5 -14.5t-16.5 -4.5h-88
q-19 0 -19 18zM360.5 440.5q-25.5 13.5 -57.5 13.5q-60 0 -96.5 -48.5t-36.5 -143.5q0 -96 35.5 -142t94.5 -46q31 0 57 14.5t41 37.5t15 47v226q-27 28 -52.5 41.5z" />
    <glyph glyph-name="e" unicode="e" horiz-adv-x="584" 
d="M190 150.5q19 -32.5 52.5 -51t73.5 -18.5q41 0 74.5 17.5t63.5 54.5q5 5 8 5t9 -3l61 -27q7 -3 7 -9q0 -3 -4 -9q-45 -65 -99.5 -92.5t-134.5 -27.5q-76 0 -136.5 34t-94.5 95t-34 139q0 84 35 148t95 99t133 35q75 0 132.5 -33t89 -95.5t31.5 -148.5v-4q0 -10 -3 -14
t-13 -5h-354q-11 0 -11 -16q0 -41 19 -73.5zM408 314q10 0 13.5 2.5t3.5 11.5q0 32 -14 62t-41.5 49t-65.5 19q-59 0 -95.5 -41.5t-35.5 -102.5h235z" />
    <glyph glyph-name="f" unicode="f" horiz-adv-x="394" 
d="M373 515v-63q0 -13 -15 -13h-93q-10 0 -10 -10v-412q0 -17 -15 -17h-101q-14 0 -14 16v414q0 9 -7 9h-81q-15 0 -15 13v63q0 15 16 15h76q11 0 11 13v65q0 64 36 99t102 35h95q19 0 19 -18l1 -56q0 -6 -3.5 -10t-10.5 -4h-59q-26 0 -39.5 -17.5t-13.5 -46.5v-50
q0 -10 11 -10h94q16 0 16 -15z" />
    <glyph glyph-name="g" unicode="g" horiz-adv-x="622" 
d="M599 528v-56q0 -25 -22 -22q-8 1 -22 1q-15 0 -27 -3q-26 -6 -20 -23q6 -16 9 -26.5t3 -26.5q0 -46 -26.5 -83t-79 -58.5t-127.5 -21.5q-62 0 -89.5 -10t-27.5 -27q0 -14 16.5 -20t55.5 -8l138 -8q95 -5 141.5 -42.5t46.5 -100.5q0 -77 -71.5 -122.5t-203.5 -45.5
q-139 0 -209.5 33.5t-70.5 99.5q0 33 24.5 57.5t70.5 43.5q6 2 6 5t-6 6q-54 24 -54 68q0 26 25 48t66 38q7 4 7 6q0 3 -6 6q-93 44 -93 135q0 77 63.5 122t180.5 45q101 0 156 -45q7 -5 13 -5q7 0 13 6q18 22 47.5 38t52.5 16q20 0 20 -20zM372 302q29 25 29 68
q0 46 -29 72.5t-86 26.5q-54 0 -84.5 -27t-30.5 -72q0 -42 30.5 -67.5t84.5 -25.5q57 0 86 25zM207 42q-30 2 -57.5 -18t-27.5 -49q0 -41 43.5 -62t137.5 -21q73 0 111 20.5t38 59.5q0 58 -86 62z" />
    <glyph glyph-name="h" unicode="h" horiz-adv-x="592" 
d="M63 18v707q0 17 15 17h99q13 0 13 -15v-260q0 -6 3 -7t8 3q50 42 89.5 59.5t85.5 17.5q77 0 118 -41.5t41 -115.5v-362q0 -21 -21 -21h-92q-10 0 -13.5 4t-3.5 14v344q0 39 -21 60.5t-62 21.5q-35 0 -64 -16t-65 -52v-356q0 -11 -5 -15.5t-17 -4.5h-89q-19 0 -19 18z" />
    <glyph glyph-name="i" unicode="i" horiz-adv-x="256" 
d="M195 628q0 -12 -5.5 -17.5t-18.5 -5.5h-91q-11 0 -15 5t-4 15v98q0 19 16 19h103q7 0 11 -4.5t4 -12.5v-97zM193 22q0 -12 -5.5 -17t-18.5 -5h-87q-11 0 -15 4t-4 14v495q0 17 15 17h101q14 0 14 -16v-492z" />
    <glyph glyph-name="j" unicode="j" horiz-adv-x="256" 
d="M196 628q0 -12 -5.5 -17.5t-18.5 -5.5h-91q-20 0 -20 20v98q0 9 4.5 14t12.5 5h102q7 0 11.5 -4.5t4.5 -12.5v-97zM153.5 -130q-39.5 -40 -127.5 -40q-43 0 -55 3.5t-12 14.5v67q0 6 3.5 11t9.5 6l46 4q24 2 34.5 16t10.5 48v513q0 17 16 17h101q13 0 13 -16v-520
q0 -84 -39.5 -124z" />
    <glyph glyph-name="k" unicode="k" horiz-adv-x="590" 
d="M569 12q0 -12 -15 -12h-110q-16 0 -24 18l-120 224q-3 8 -7 8q-3 0 -8 -5l-83 -82q-9 -7 -9 -23v-118q0 -13 -5 -17.5t-18 -4.5h-87q-11 0 -15.5 4t-4.5 14v707q0 17 15 17h101q14 0 14 -16v-429q0 -8 4 -8t8 5l208 222q14 14 25 14h91q15 0 15 -10q0 -5 -6 -13
l-147 -148q-5 -7 -5 -12t4 -13l176 -313q3 -4 3 -9z" />
    <glyph glyph-name="l" unicode="l" horiz-adv-x="257" 
d="M193 22q0 -13 -5 -17.5t-18 -4.5h-88q-11 0 -15.5 4t-4.5 14l3 707q0 17 15 17h99q14 0 14 -16v-704z" />
    <glyph glyph-name="m" unicode="m" horiz-adv-x="914" 
d="M67 4q-4 4 -4 14v495q0 17 14 17h99q14 0 14 -15v-52q0 -6 3 -7t8 3q45 41 85 61.5t85 20.5q54 0 91 -25.5t51 -66.5q2 -3 5 -3q4 0 9 5q89 89 177 89q71 0 112 -42t41 -116v-361q0 -21 -21 -21h-92q-9 0 -13 4t-4 14v344q0 39 -20 60.5t-58 21.5q-31 0 -60 -16.5
t-52 -39.5q-12 -13 -12 -29v-338q0 -21 -21 -21h-92q-17 0 -17 18v344q0 39 -19.5 60.5t-58.5 21.5q-33 0 -61.5 -16t-62.5 -52v-356q0 -11 -5 -15.5t-18 -4.5h-89q-10 0 -14 4z" />
    <glyph glyph-name="n" unicode="n" horiz-adv-x="592" 
d="M67 4q-4 4 -4 14v495q0 17 14 17h100q13 0 13 -15v-52q0 -6 3 -7t8 3q47 41 87.5 61t87.5 20q74 0 116.5 -42.5t42.5 -112.5v-364q0 -21 -21 -21h-92q-10 0 -13.5 4t-3.5 14v344q0 39 -21.5 60.5t-62.5 21.5q-35 0 -63.5 -16t-64.5 -52v-356q0 -11 -5 -15.5t-18 -4.5h-89
q-10 0 -14 4z" />
    <glyph glyph-name="o" unicode="o" horiz-adv-x="599" 
d="M162 24.5q-60 34.5 -93 96.5t-33 141q0 81 34 144.5t94 98.5t136 35q77 0 137 -35.5t93 -98.5t33 -143q0 -79 -33.5 -141t-93.5 -97t-137 -35t-137 34.5zM397.5 127q33.5 48 33.5 138q0 91 -34 140t-97 49t-97.5 -49t-34.5 -140q0 -90 34.5 -138t97.5 -48q64 0 97.5 48z
" />
    <glyph glyph-name="p" unicode="p" horiz-adv-x="605" 
d="M193 512v-34q0 -8 5 -8q3 0 8 5q32 30 64.5 47.5t85.5 17.5q61 0 108.5 -30t74.5 -90.5t27 -148.5q0 -137 -60 -209t-159 -72q-80 0 -136 51q-10 8 -13 8q-5 0 -5 -14v-184q0 -16 -14 -16h-102q-14 0 -14 16v659q0 11 4.5 15.5t15.5 4.5h91q19 0 19 -18zM302 75
q62 0 97 48.5t35 148.5q0 96 -34.5 139.5t-93.5 43.5q-32 0 -58 -13.5t-40.5 -34.5t-14.5 -44v-233q50 -55 109 -55z" />
    <glyph glyph-name="q" unicode="q" horiz-adv-x="606" 
d="M523 530q11 0 15.5 -4.5t4.5 -15.5v-658q0 -17 -15 -17h-101q-14 0 -14 16v180q0 14 -5 14q-3 0 -11 -5q-64 -50 -139 -50q-102 0 -161 73.5t-59 202.5q0 82 27 144.5t78 96.5t121 34q60 0 98.5 -22t67.5 -55q5 -5 6 -5q3 0 6 8l10 44q3 10 7.5 14.5t13.5 4.5h50z
M413 348q0 46 -32 78.5t-81 32.5q-58 0 -94 -48.5t-36 -143.5q0 -96 35 -144.5t94 -48.5q32 0 62 14t52 38v222z" />
    <glyph glyph-name="r" unicode="r" horiz-adv-x="411" 
d="M63 18v495q0 17 14 17h97q14 0 14 -15v-61q0 -8 5 -8q3 0 8 5q33 42 73 65.5t78 23.5q36 0 36 -16v-96q0 -14 -13 -12q-28 7 -62 7q-26 0 -54.5 -14t-47 -36.5t-18.5 -46.5v-306q0 -20 -23 -20h-89q-18 0 -18 18z" />
    <glyph glyph-name="s" unicode="s" horiz-adv-x="524" 
d="M335 442q-32 16 -74 16q-44 0 -72.5 -18t-28.5 -47q0 -17 14 -30.5t51 -23.5l119 -32q75 -19 110 -58t35 -93q0 -51 -29.5 -88.5t-82 -57.5t-119.5 -20q-83 0 -145 30.5t-88 79.5q-4 8 -4 11q0 6 6 10l59 30q7 4 12 4q4 0 9 -5q24 -34 58.5 -54t89.5 -20q51 0 83.5 17.5
t32.5 48.5q0 21 -17.5 35.5t-60.5 25.5l-102 24q-76 18 -111.5 54t-35.5 92q0 49 26.5 87t76 59t115.5 21q71 0 126 -26.5t81 -67.5q5 -8 5 -13t-5 -8l-62 -31q-6 -2 -7 -2q-8 0 -13 7q-20 27 -52 43z" />
    <glyph glyph-name="t" unicode="t" horiz-adv-x="417" 
d="M257 439q-10 0 -10 -11v-267q0 -38 15.5 -53.5t50.5 -15.5h59q6 0 10 -4t4 -10l-1 -52q0 -17 -19 -20q-36 -6 -110 -6q-68 0 -103.5 31.5t-35.5 95.5v299q0 13 -12 13h-67q-16 0 -16 15v63q0 13 15 13h74q9 0 9 10l13 154q1 9 4 12.5t10 3.5h89q6 0 10 -4.5t4 -12.5v-153
q0 -9 9 -9h113q15 0 15 -14v-63q0 -15 -17 -15h-113z" />
    <glyph glyph-name="u" unicode="u" horiz-adv-x="588" 
d="M395 154v356q0 20 23 20h90q18 0 18 -19l-2 -495q0 -16 -14 -16h-98q-14 0 -14 15v53q0 5 -3 6t-7 -3q-46 -44 -87.5 -62.5t-88.5 -18.5q-68 0 -111.5 43t-43.5 115v361q0 21 21 21h92q9 0 13 -4.5t4 -14.5v-341q0 -39 22 -62t59 -23q61 0 127 69z" />
    <glyph glyph-name="v" unicode="v" horiz-adv-x="564" 
d="M539.5 524q3.5 -6 0.5 -14l-199 -491q-5 -10 -11.5 -14.5t-17.5 -4.5h-59q-12 0 -18.5 4.5t-11.5 13.5l-199 491q-1 2 -1 7q0 6 4 10t11 4h105q15 0 20 -15l129 -328q3 -10 7 -10t9 11l128 328q5 14 19 14h73q8 0 11.5 -6z" />
    <glyph glyph-name="w" unicode="w" horiz-adv-x="811" 
d="M784 524q4 -6 1 -14l-160 -495q-4 -15 -20 -15h-71q-18 0 -24 17l-97 309q-3 9 -7 9t-7 -9l-96 -311q-2 -8 -6.5 -11.5t-13.5 -3.5h-74q-19 0 -23 17l-160 492q-1 2 -1 7q0 6 4 10t11 4h97q8 0 13.5 -4t6.5 -11l100 -319q1 -4 2.5 -7t3.5 -3q5 0 8 11l97 319q5 14 19 14
h72q14 0 19 -15l99 -319q3 -10 7 -10t7 11l97 319q2 6 7.5 10t12.5 4h64q8 0 12 -6z" />
    <glyph glyph-name="x" unicode="x" horiz-adv-x="575" 
d="M554 8q0 -8 -17 -8h-108q-20 0 -29 13l-116 163q-7 10 -11 10t-11 -10l-119 -163q-9 -13 -29 -13h-70q-21 0 -21 13q0 6 11 22l170 218q6 8 6 12q0 6 -7 16l-166 225q-4 4 -4 11q0 6 4.5 9.5t12.5 3.5h103q11 0 16.5 -3t11.5 -10l107 -150q5 -6 8 -6q4 0 8 6l103 150
q5 7 11 10t17 3h77q15 0 15 -9q0 -4 -5 -11l-156 -210q-6 -7 -6 -13q0 -4 7 -15l176 -243q11 -14 11 -21z" />
    <glyph glyph-name="y" unicode="y" horiz-adv-x="554" 
d="M58 -162q-13 3 -13 14v64q0 15 29 15h66q32 0 55 27t23 57q0 10 -3 19l-192 474q-1 2 -1 7q0 6 4.5 10.5t11.5 4.5h104q7 0 12.5 -4t7.5 -11l124 -329q3 -9 8 -9t9 11l123 328q7 14 19 14h73q8 0 11.5 -6.5t0.5 -13.5l-210 -526q-25 -61 -53.5 -93t-66 -44t-95.5 -12
q-34 0 -47 3z" />
    <glyph glyph-name="z" unicode="z" horiz-adv-x="506" 
d="M30 3.5q-4 3.5 -4 13.5v36q0 11 3 17.5t13 19.5l260 344q3 5 3 7q0 5 -10 5h-231q-9 0 -12.5 3t-3.5 13v54q0 14 13 14h399q13 0 13 -13v-40q0 -16 -13 -33l-263 -345q-4 -4 -4 -8q0 -6 9 -6h259q15 0 15 -13v-56q0 -16 -17 -16h-415q-10 0 -14 3.5z" />
    <glyph glyph-name="braceleft" unicode="{" horiz-adv-x="345" 
d="M160 711q44 31 105 31h54q11 0 11 -9v-57q0 -10 -11 -10h-30q-39 0 -51.5 -13.5t-12.5 -39.5v-209q-1 -51 -32 -78t-74 -31q-6 -1 -6.5 -3.5t6.5 -3.5q44 -4 74.5 -29.5t31.5 -82.5v-211q0 -29 13.5 -41.5t50.5 -12.5h28q13 0 13 -12v-50q0 -8 -3 -11t-10 -3h-50
q-64 0 -107.5 31t-43.5 86v213q0 39 -27.5 65.5t-79.5 26.5q-9 0 -9 14v42q0 14 9 14q107 0 107 95v204q0 54 44 85z" />
    <glyph glyph-name="bar" unicode="|" horiz-adv-x="255" 
d="M98 -165q-10 0 -14 5t-4 16l-1 973q0 18 17 18h63q17 0 17 -15v-983q0 -14 -15 -14h-63z" />
    <glyph glyph-name="braceright" unicode="}" horiz-adv-x="345" 
d="M229 422q0 -95 107 -95q9 0 9 -14v-42q0 -14 -9 -14q-52 0 -79.5 -26.5t-27.5 -65.5v-213q0 -55 -43.5 -86t-107.5 -31h-50q-7 0 -10 3t-3 11v50q0 12 13 12h28q37 0 50.5 12.5t13.5 41.5v211q1 57 31.5 82.5t74.5 29.5q7 1 6.5 3.5t-6.5 3.5q-43 4 -74 31t-32 78v209
q0 26 -12.5 39.5t-51.5 13.5h-30q-11 0 -11 10v57q0 9 11 9h54q61 0 105 -31t44 -85v-204z" />
    <glyph glyph-name="asciitilde" unicode="~" horiz-adv-x="595" 
d="M476.5 320.5q-35.5 -18.5 -77.5 -18.5q-29 0 -51.5 8t-54.5 24q-27 14 -46 21t-40 7q-33 0 -56.5 -15t-50.5 -43q-4 -4 -8 -4t-7 5l-27 47q-2 4 -2 7q0 5 8 13q39 37 70 55t73 18q28 0 51.5 -8.5t52.5 -23.5q28 -14 46.5 -20.5t39.5 -6.5q58 0 95 52q6 6 10 6q6 0 12 -9
l22 -40q2 -6 2 -8q0 -7 -5 -14q-21 -34 -56.5 -52.5z" />
    <glyph glyph-name="uni00A0" unicode="&#xa0;" horiz-adv-x="212" 
 />
    <glyph glyph-name="exclamdown" unicode="&#xa1;" horiz-adv-x="257" 
d="M188 385h-118q-14 0 -14 16v111q0 9 4.5 13.5t15.5 4.5h101q13 0 19 -5t6 -16v-110q0 -14 -14 -14zM205 -153q0 -5 -4 -8.5t-9 -3.5h-125q-6 0 -9.5 4t-2.5 12l32 448q2 9 5 13t13 4h45q12 0 17 -4.5t6 -15.5l32 -447v-2z" />
    <glyph glyph-name="cent" unicode="&#xa2;" horiz-adv-x="558" 
d="M521 246q-22 -49 -67 -89.5t-113 -52.5v-82q0 -22 -23 -22h-45q-20 0 -20 20v84q-64 10 -113.5 46.5t-76.5 94t-27 129.5q0 73 27.5 131.5t77 95.5t112.5 47v74q0 11 5 15.5t16 4.5h48q19 0 19 -18v-76q66 -11 110.5 -49t65.5 -90l2 -9q0 -8 -12 -10l-88 -11l-4 -1
q-7 0 -10 10q-24 39 -45.5 57.5t-57.5 18.5q-62 0 -98 -49t-36 -139q0 -92 37 -140.5t103 -48.5q43 0 72 22t56 67q3 4 6.5 5t9.5 -1l63 -17q10 -3 6 -17z" />
    <glyph glyph-name="sterling" unicode="&#xa3;" horiz-adv-x="635" 
d="M12 15v82q0 12 12 12h24q41 -1 65.5 28.5t24.5 89.5q0 34 -10 114q-1 9 -9 9h-87q-9 0 -9 10v55q0 9 9 9h70q10 0 9 11l-11 79q-3 21 -3 39q0 62 31 107t82.5 68.5t113.5 23.5q72 0 135 -34t89 -95l1 -4q0 -7 -10 -10l-87 -27q-2 -1 -7 -1q-8 0 -11 6q-28 60 -92 60
q-42 0 -69.5 -26t-27.5 -71q0 -42 17 -116q2 -9 11 -9h138q9 0 9 -9v-57q0 -9 -9 -9h-126q-9 0 -9 -9q2 -36 2 -50q0 -27 -3 -53q-6 -73 -47 -117q-5 -5 -5 -7q0 -4 8 -4h138q47 0 74.5 16t42.5 54q5 12 19 8l78 -17q17 -5 13 -18q-21 -74 -78.5 -113.5t-139.5 -39.5h-352
q-14 0 -14 15z" />
    <glyph glyph-name="currency" unicode="&#xa4;" horiz-adv-x="562" 
d="M169 192q-5 3 -7 3q-4 0 -8 -4l-49 -50q-6 -4 -10 -4q-3 0 -10 5l-38 38q-4 4 -4 9t4 9l50 50q4 4 4 8q0 5 -3 9q-30 50 -30 107q0 60 31 111l2 8q0 4 -4 7l-49 49q-4 6 -4 10q0 3 4 9l38 39q5 5 10 5t9 -5l50 -50q3 -3 7 -3l8 2q52 31 109 31q62 0 114 -32q8 -5 12 1
l51 50q5 6 11 0l44 -46q6 -6 0 -12l-50 -50q-4 -4 -1 -11q33 -52 33 -112q0 -31 -8.5 -60t-25.5 -52q-2 -7 1 -9l51 -52q6 -6 1 -12l-45 -45q-6 -6 -11 0l-50 50q-6 5 -11 1q-55 -34 -113 -34q-63 0 -113 32zM344 266.5q28 17.5 44.5 46t16.5 60.5t-16.5 60.5t-44.5 46
t-63 17.5q-34 0 -62.5 -17.5t-45 -46t-16.5 -60.5t16.5 -60.5t45 -46t62.5 -17.5q35 0 63 17.5z" />
    <glyph glyph-name="yen" unicode="&#xa5;" horiz-adv-x="641" 
d="M646 732q0 -3 -3 -8l-227 -371h125q13 0 13 -14v-40q0 -10 -5.5 -14.5t-17.5 -4.5h-131v-84h141q13 0 13 -13v-41q0 -10 -5.5 -14.5t-17.5 -4.5h-131v-101q0 -12 -5.5 -17t-19.5 -5h-103q-11 0 -15.5 4.5t-4.5 14.5v104h-136q-10 0 -14 4t-4 13v40q0 16 13 16h141v83
h-136q-10 0 -14 4.5t-4 13.5v40q0 16 13 16h115l-221 368q-4 5 -4 10q0 11 17 11h125q11 0 15.5 -3t10.5 -13l161 -281q5 -10 8 -10q5 0 9 9l161 282q5 10 10 13t16 3h98q14 0 14 -10z" />
    <glyph glyph-name="brokenbar" unicode="&#xa6;" horiz-adv-x="255" 
d="M98 432q-10 0 -14 5t-4 16l-1 376q0 18 17 18h63q17 0 17 -15v-387q0 -6 -4 -9.5t-11 -3.5h-63zM98 -165q-10 0 -14 5t-4 16l-1 377q0 17 17 17h63q17 0 17 -15v-386q0 -14 -15 -14h-63z" />
    <glyph glyph-name="section" unicode="&#xa7;" horiz-adv-x="500" 
d="M448.5 155q22.5 -31 22.5 -72q0 -47 -25.5 -83.5t-74 -57t-115.5 -20.5q-78 0 -137.5 29t-84.5 74q-5 8 -5 14q0 5 5 7l62 31q6 2 8 2q6 0 12 -7q51 -67 138 -67q45 0 72.5 16t27.5 46q0 24 -19.5 42.5t-67.5 37.5l-83 31q-78 30 -112.5 67t-34.5 92q0 46 25 81t69 53
q-50 28 -69.5 58.5t-19.5 69.5q0 43 25 78t70.5 55t106.5 20q68 0 121.5 -27t78.5 -67q5 -8 5 -13q0 -3 -5 -8l-61 -30q-4 -3 -9 -3q-4 0 -13 7q-51 59 -112 59q-42 0 -66 -16t-24 -42q0 -20 15 -36t54 -31l79 -31q84 -33 121 -72t37 -97q0 -86 -86 -132q47 -27 69.5 -58z
M336 273.5q21 19.5 21 48.5q0 28 -16 48t-66 39l-49 20q-37 -4 -59.5 -25t-22.5 -49q0 -25 16.5 -40.5t66.5 -36.5l55 -22q33 -2 54 17.5z" />
    <glyph glyph-name="dieresis" unicode="&#xa8;" horiz-adv-x="322" 
d="M128 637q0 -10 -5 -14t-16 -4h-80q-10 0 -13.5 4t-3.5 12v91q0 16 13 16h92q13 0 13 -14v-91zM312 637q0 -10 -5 -14t-17 -4h-79q-10 0 -13.5 3.5t-3.5 12.5v91q0 16 13 16h92q13 0 13 -14v-91z" />
    <glyph glyph-name="copyright" unicode="&#xa9;" horiz-adv-x="830" 
d="M223.5 41q-87.5 51 -138.5 138.5t-51 191.5q0 103 51 190.5t138.5 139t191.5 51.5q103 0 190.5 -51.5t139 -139t51.5 -190.5q0 -104 -51.5 -191.5t-139 -138.5t-190.5 -51q-104 0 -191.5 51zM567 103.5q68 37.5 107 107t39 160.5q0 90 -39 159.5t-107 108t-152 38.5
q-86 0 -154 -38.5t-106 -108t-38 -159.5q0 -91 38 -160.5t106 -107t154 -37.5q84 0 152 37.5zM525 554q43 -33 64 -81q1 -2 1 -5q0 -7 -9 -9l-71 -10h-3q-5 0 -8 8q-14 27 -32 42.5t-45 15.5q-45 0 -72 -36.5t-27 -104.5q0 -69 27.5 -106t75.5 -37q33 0 56.5 18t41.5 51
q3 5 13 2l49 -13q5 -1 6 -3.5t-1 -9.5q-20 -46 -63 -81t-110 -35q-58 0 -104 26.5t-72 75t-26 110.5q0 63 26 111.5t72 76t104 27.5q64 0 107 -33z" />
    <glyph glyph-name="ordfeminine" unicode="&#xaa;" horiz-adv-x="395" 
d="M296.5 722.5q33.5 -27.5 33.5 -80.5v-168q0 -23 8 -48q1 -1 1 -4q0 -9 -21 -9h-52q-7 0 -9.5 2.5t-4.5 8.5l-3 19q-2 5 -4 5q-4 0 -9 -4q-26 -20 -47 -28.5t-49 -8.5q-51 0 -80 25.5t-29 68.5q0 49 43.5 78t128.5 35l34 3q11 1 11 10v13q0 26 -15.5 40t-45.5 14
q-47 0 -70 -39q-2 -4 -4.5 -4.5t-8.5 0.5l-56 13q-2 2 -3 6.5t1 7.5q18 37 52 55t92 18q73 -1 106.5 -28.5zM131.5 474q15.5 -12 41.5 -12q32 0 56 21q19 16 19 34v41q0 6 -2.5 9t-8.5 2l-30 -3q-41 -3 -66 -19t-25 -42q0 -19 15.5 -31z" />
    <glyph glyph-name="guillemotleft" unicode="&#xab;" horiz-adv-x="473" 
d="M232 77q1 -1 1 -3q0 -6 -13 -6h-47q-8 0 -12 7l-112 167q-5 6 -5 15t4 14l113 177q3 5 5.5 6t7.5 1h48q6 0 9 -3t0 -9l-82 -176q-2 -8 -2 -11t2 -9zM422 77q1 -1 1 -3q0 -6 -13 -6h-47q-8 0 -12 7l-112 167q-5 8 -5 15q0 6 4 14l113 177q3 5 5.5 6t7.5 1h48q6 0 9 -3
t0 -9l-82 -176q-2 -8 -2 -11t2 -9z" />
    <glyph glyph-name="logicalnot" unicode="&#xac;" horiz-adv-x="574" 
d="M522 407v-216q0 -10 -4.5 -14t-15.5 -4h-69q-9 0 -13 3.5t-4 11.5v137h-345q-10 0 -14 4t-4 13v63q0 16 13 16h443q13 0 13 -14z" />
    <glyph glyph-name="uni00AD" unicode="&#xad;" horiz-adv-x="380" 
d="M327 235q0 -19 -23 -19h-232q-10 0 -14 4t-4 13v63q0 16 13 16h247q13 0 13 -13v-64z" />
    <glyph glyph-name="registered" unicode="&#xae;" horiz-adv-x="545" 
d="M153 307q-55 32 -87 86.5t-32 119.5t32 120t87 87t120 32q64 0 119 -32t87 -87t32 -120t-32 -119.5t-86.5 -86.5t-119.5 -32t-120 32zM402 380q49 50 49 133t-49 133.5t-129 50.5q-81 0 -130 -50.5t-49 -133.5q0 -84 49 -133.5t130 -49.5q80 0 129 50zM365 394h-45
q-6 0 -7 5l-34 95q0 1 -1.5 3t-7.5 2h-35q-4 0 -4 -4v-95q0 -6 -7 -6h-40q-6 0 -6 5v225q0 6 4 6h105q42 0 65 -16t23 -46q0 -24 -12.5 -39t-32.5 -23q-2 0 -2 -4l42 -101q2 -7 -5 -7zM309 544q10 7 10 20q0 27 -38 27h-44q-1 0 -3.5 0.5t-2.5 -4.5v-44q0 -6 4 -6h48
q16 0 26 7z" />
    <glyph glyph-name="macron" unicode="&#xaf;" horiz-adv-x="361" 
d="M351 664q0 -17 -20 -17h-306q-9 0 -12 4t-3 12v56q0 14 11 14h319q11 0 11 -12v-57z" />
    <glyph glyph-name="degree" unicode="&#xb0;" horiz-adv-x="464" 
d="M378 602.5q-22 -38.5 -60 -60t-86 -21.5t-86.5 21.5t-60 60t-21.5 86.5q0 49 21.5 87t60 59.5t86.5 21.5t86 -21.5t60 -59.5t22 -87q0 -48 -22 -86.5zM294 754q-24 25 -64 25q-39 0 -63 -24.5t-24 -64.5q0 -42 23.5 -67.5t64.5 -25.5q40 0 63.5 25t23.5 66t-24 66z" />
    <glyph glyph-name="plusminus" unicode="&#xb1;" horiz-adv-x="574" 
d="M522 491v-62q0 -20 -23 -20h-163v-173q0 -6 -4 -9.5t-10 -3.5h-63q-19 0 -19 23v163h-169q-10 0 -14 4t-4 13v63q0 16 13 16h174v169q0 10 4 14t13 4h63q16 0 16 -13v-174h173q13 0 13 -14zM522 127v-63q0 -19 -23 -19h-428q-10 0 -14 4t-4 13v63q0 16 13 16h443
q13 0 13 -14z" />
    <glyph glyph-name="uni00B2" unicode="&#xb2;" horiz-adv-x="452" 
d="M192 584q58 52 77 79t19 57q0 31 -22.5 49.5t-55.5 18.5q-58 0 -96 -64q-3 -5 -8 -5q-4 0 -8 3l-47 24q-6 5 -6 10t3 9q60 92 169 92q72 0 117 -37t45 -101q0 -39 -21.5 -72.5t-72.5 -76.5l-120 -102q-4 -2 -3.5 -4.5t6.5 -2.5h205q10 0 10 -9v-58q0 -10 -11 -10h-315
q-13 0 -13 12v41q0 6 4.5 12t20.5 20z" />
    <glyph glyph-name="uni00B3" unicode="&#xb3;" horiz-adv-x="467" 
d="M71 793q27 31 68.5 47.5t89.5 16.5q78 0 123.5 -33.5t45.5 -87.5q0 -32 -20 -59t-56 -38q-7 -1 -7 -5q0 -3 7 -6q40 -12 65 -42t25 -69q0 -66 -48.5 -102.5t-143.5 -36.5q-52 0 -95.5 19.5t-71.5 54.5q-3 5 -3 7q0 4 5 9l42 30q9 6 12 0q30 -30 55.5 -42t61.5 -12
q44 0 69.5 19.5t25.5 51.5q0 35 -28.5 55.5t-69.5 21.5h-55q-10 0 -10 8v50q0 4 3 6t7 2l44 2q41 1 68 20.5t27 50.5q0 26 -22.5 43.5t-57.5 17.5q-29 0 -54 -11.5t-51 -35.5q-4 -4 -6.5 -4.5t-6.5 3.5l-38 36q-4 6 0 13z" />
    <glyph glyph-name="acute" unicode="&#xb4;" horiz-adv-x="299" 
d="M287 683l2 -8q0 -10 -15 -15l-231 -65q-3 -1 -8 -1q-9 0 -13 10l-10 31q-2 6 -2 8q0 7 7 10l234 98q2 1 5 1q7 0 11 -9z" />
    <glyph glyph-name="paragraph" unicode="&#xb6;" horiz-adv-x="589" 
d="M477 667q-4 0 -6.5 -3t-2.5 -7v-730q0 -12 -10 -12h-58q-6 0 -9.5 3.5t-3.5 8.5v731q0 4 -3 6.5t-7 2.5h-37q-4 0 -6.5 -3t-2.5 -7v-730q0 -12 -12 -12h-59q-11 0 -11 12v373q0 6 -8 7q-59 4 -105.5 31t-73 74t-26.5 108q0 60 27.5 111t81.5 81t129 30h247q11 0 11 -9
v-58q0 -5 -2.5 -6.5t-8.5 -1.5h-44z" />
    <glyph glyph-name="periodcentered" unicode="&#xb7;" horiz-adv-x="232" 
d="M185 325q0 -10 -5 -14.5t-17 -4.5h-101q-10 0 -14 4t-4 13v103q0 15 13 15h116q12 0 12 -13v-103z" />
    <glyph glyph-name="cedilla" unicode="&#xb8;" horiz-adv-x="247" 
d="M203 -194q-34 -22 -84 -22q-61 0 -104 23q-8 6 -4 12l13 32q3 6 10 3q36 -21 69 -21q26 0 39.5 9t13.5 25q0 21 -20 31.5t-65 11.5q-12 0 -8 9l37 86h61l-21 -54q-3 -6 4 -6q48 -2 70.5 -25t22.5 -54q0 -38 -34 -60z" />
    <glyph glyph-name="uni00B9" unicode="&#xb9;" horiz-adv-x="367" 
d="M293 441v-52q0 -9 -10 -9h-239q-10 0 -10 9v52q0 9 9 9h71q5 0 5 4v292q0 5 -1.5 6t-5.5 0l-67 -22l-4 -1q-8 0 -8 11v37q0 5 1.5 7.5t6.5 4.5l101 51q15 7 24 7h38q8 0 8 -10v-382q0 -5 6 -5h65q10 0 10 -9z" />
    <glyph glyph-name="ordmasculine" unicode="&#xba;" horiz-adv-x="403" 
d="M321.5 703.5q45.5 -48.5 45.5 -125.5q0 -75 -45 -122.5t-121 -47.5q-75 0 -120 47.5t-45 122.5q0 78 46.5 126t118.5 48q75 0 120.5 -48.5zM144 663.5q-19 -28.5 -19 -82.5q0 -114 76 -114q77 0 77 114q0 54 -19.5 82.5t-57.5 28.5t-57 -28.5z" />
    <glyph glyph-name="guillemotright" unicode="&#xbb;" horiz-adv-x="472" 
d="M135 257q0 7 -2 10l-82 176l-1 4q0 8 10 8h48q5 0 7.5 -1t5.5 -6l114 -177q4 -8 4 -13q0 -8 -5 -16l-113 -167q-3 -7 -12 -7h-46q-16 0 -12 9l82 170q2 4 2 10zM325 257q0 7 -2 10l-82 176l-1 4q0 8 10 8h48q5 0 7.5 -1t5.5 -6l114 -177q4 -5 4 -14t-5 -15l-112 -167
q-5 -7 -13 -7h-46q-16 0 -12 9l82 170q2 4 2 10z" />
    <glyph glyph-name="onequarter" unicode="&#xbc;" horiz-adv-x="924" 
d="M259 337v-52q0 -9 -10 -9h-239q-10 0 -10 9v52q0 9 9 9h71q5 0 5 4v292q0 5 -1.5 6t-5.5 0l-67 -22l-4 -1q-8 0 -8 11v37q0 5 1.5 7.5t6.5 4.5l101 51q15 7 24 7h38q8 0 8 -10v-382q0 -5 6 -5h65q10 0 10 -9zM216 6q-7 -10 -23 -10l-36 1q-15 0 -15 12q0 4 4 12l478 720
q5 6 9.5 7.5t11.5 1.5h46q11 0 11 -7q0 -3 -3 -8zM737.5 465q4.5 2 12.5 2h67q9 0 9 -10v-270q0 -7 6 -7h54q11 0 11 -8v-46q0 -5 -3 -8t-8 -3h-53q-7 0 -7 -7v-95q0 -13 -14 -13h-69q-11 0 -11 11v99q0 5 -7 5h-194q-11 0 -11 11v45q0 10 13 27l195 259q5 6 9.5 8zM726 180
q6 0 6 4v175q0 9 -2 9t-7 -6l-127 -174q-6 -8 5 -8h125z" />
    <glyph glyph-name="onehalf" unicode="&#xbd;" horiz-adv-x="978" 
d="M259 337v-52q0 -9 -10 -9h-239q-10 0 -10 9v52q0 9 9 9h71q5 0 5 4v292q0 5 -1.5 6t-5.5 0l-67 -22l-4 -1q-8 0 -8 11v37q0 5 1.5 7.5t6.5 4.5l101 51q15 7 24 7h38q8 0 8 -10v-382q0 -5 6 -5h65q10 0 10 -9zM279 6q-7 -10 -23 -10l-36 1q-15 0 -15 12q0 4 4 12l478 720
q5 6 9.5 7.5t11.5 1.5h46q11 0 11 -7q0 -3 -3 -8zM739 200q58 52 77 79t19 57q0 31 -22.5 49.5t-55.5 18.5q-58 0 -96 -64q-3 -5 -8 -5q-3 0 -8 3l-47 24q-6 5 -6 10t3 9q60 92 169 92q72 0 117 -37t45 -101q0 -39 -21.5 -72.5t-72.5 -76.5l-120 -102q-4 -2 -3.5 -4.5
t6.5 -2.5h205q10 0 10 -9v-58q0 -10 -11 -10h-315q-13 0 -13 12v41q0 6 4.5 12t20.5 20z" />
    <glyph glyph-name="threequarters" unicode="&#xbe;" horiz-adv-x="984" 
d="M37 688q27 31 68.5 47.5t89.5 16.5q78 0 123.5 -33.5t45.5 -87.5q0 -32 -20 -59t-56 -38q-7 -1 -7 -5q0 -3 7 -6q40 -12 65 -42t25 -69q0 -66 -48.5 -102.5t-143.5 -36.5q-52 0 -95.5 19.5t-71.5 54.5q-3 5 -3 7q0 4 5 9l42 30q9 6 12 0q30 -30 55.5 -42t61.5 -12
q44 0 69.5 19.5t25.5 51.5q0 35 -28.5 55.5t-69.5 21.5h-55q-10 0 -10 8v50q0 4 3 6t7 2l44 2q41 1 68 20.5t27 50.5q0 26 -22.5 43.5t-57.5 17.5q-29 0 -54 -11.5t-51 -35.5q-4 -4 -6.5 -4.5t-6.5 3.5l-38 36q-4 6 0 13zM316 6q-7 -10 -23 -10l-36 1q-15 0 -15 12q0 4 4 12
l478 720q5 6 9.5 7.5t11.5 1.5h46q11 0 11 -7q0 -3 -3 -8zM792.5 465q4.5 2 12.5 2h67q9 0 9 -10v-270q0 -7 6 -7h54q11 0 11 -8v-46q0 -5 -3 -8t-8 -3h-53q-7 0 -7 -7v-95q0 -13 -14 -13h-69q-11 0 -11 11v99q0 5 -7 5h-194q-11 0 -11 11v45q0 10 13 27l195 259q5 6 9.5 8z
M781 180q6 0 6 4v175q0 9 -2 9t-7 -6l-127 -174q-6 -8 5 -8h125z" />
    <glyph glyph-name="questiondown" unicode="&#xbf;" horiz-adv-x="527" 
d="M206 509q0 11 6 16t19 5h102q19 0 19 -18v-111q0 -16 -14 -16h-119q-13 0 -13 14v110zM512 -29q-32 -70 -97 -108t-152 -38q-75 0 -128.5 23t-81 63t-27.5 90q0 37 14 65.5t34.5 48t54.5 45.5q48 36 72 66t24 76q0 7 5 12t12 5h71q18 0 18 -21q0 -43 -14.5 -75.5
t-35.5 -55t-53 -49.5q-37 -33 -55 -56t-18 -54q0 -39 30.5 -64t78.5 -25q43 0 82.5 24t55.5 61q3 6 6.5 7.5t11.5 -0.5l85 -21q13 -4 7 -19z" />
    <glyph glyph-name="Agrave" unicode="&#xc0;" horiz-adv-x="756" 
d="M37 14q0 3 2 11l252 699q4 10 9 14t15 4h125q22 0 28 -20l250 -698q2 -6 2 -9q0 -6 -3.5 -10.5t-9.5 -4.5h-121q-14 0 -18 13l-58 162q-2 5 -4 7.5t-8 2.5h-261q-9 0 -12 -9l-60 -164q-3 -12 -18 -12h-97q-13 0 -13 14zM462 298q9 0 9 8q0 5 -1 8l-96 267q-3 7 -7 7
t-7 -8l-97 -266q-2 -6 -2 -9q0 -7 10 -7h191zM256.5 962.5q4.5 2.5 9.5 0.5l234 -98q11 -5 5 -18l-10 -31q-4 -10 -13 -10q-5 0 -8 1l-231 65q-15 5 -15 15l2 8l20 60q2 5 6.5 7.5z" />
    <glyph glyph-name="Aacute" unicode="&#xc1;" horiz-adv-x="756" 
d="M37 14q0 3 2 11l252 699q4 10 9 14t15 4h125q22 0 28 -20l250 -698q2 -6 2 -9q0 -6 -3.5 -10.5t-9.5 -4.5h-121q-14 0 -18 13l-58 162q-2 5 -4 7.5t-8 2.5h-261q-9 0 -12 -9l-60 -164q-3 -12 -18 -12h-97q-13 0 -13 14zM462 298q9 0 9 8q0 5 -1 8l-96 267q-3 7 -7 7
t-7 -8l-97 -266q-2 -6 -2 -9q0 -7 10 -7h191zM512 895l2 -8q0 -10 -15 -15l-231 -65q-3 -1 -8 -1q-9 0 -13 10l-10 31q-2 6 -2 8q0 7 7 10l234 98q2 1 5 1q7 0 11 -9z" />
    <glyph glyph-name="Acircumflex" unicode="&#xc2;" horiz-adv-x="756" 
d="M37 14q0 3 2 11l252 699q4 10 9 14t15 4h125q22 0 28 -20l250 -698q2 -6 2 -9q0 -6 -3.5 -10.5t-9.5 -4.5h-121q-14 0 -18 13l-58 162q-2 5 -4 7.5t-8 2.5h-261q-9 0 -12 -9l-60 -164q-3 -12 -18 -12h-97q-13 0 -13 14zM462 298q9 0 9 8q0 5 -1 8l-96 267q-3 7 -7 7
t-7 -8l-97 -266q-2 -6 -2 -9q0 -7 10 -7h191zM388 888q-9 11 -13 11t-15 -11l-53 -52q-5 -6 -8.5 -7t-12.5 -1h-72q-8 0 -8 5q0 4 6 10l106 105q6 6 12.5 9t17.5 3h61q12 0 23 -11l105 -106q7 -7 7 -11t-9 -4h-77q-14 0 -21 8z" />
    <glyph glyph-name="Atilde" unicode="&#xc3;" horiz-adv-x="756" 
d="M37 14q0 3 2 11l252 699q4 10 9 14t15 4h125q22 0 28 -20l250 -698q2 -6 2 -9q0 -6 -3.5 -10.5t-9.5 -4.5h-121q-14 0 -18 13l-58 162q-2 5 -4 7.5t-8 2.5h-261q-9 0 -12 -9l-60 -164q-3 -12 -18 -12h-97q-13 0 -13 14zM462 298q9 0 9 8q0 5 -1 8l-96 267q-3 7 -7 7
t-7 -8l-97 -266q-2 -6 -2 -9q0 -7 10 -7h191zM447 849q-32 0 -75 15q-4 1 -24.5 7t-41.5 6q-20 0 -33.5 -5.5t-30.5 -17.5q-8 -4 -9 -4q-6 0 -9 10l-13 38q-1 3 -1 8q0 6 7 13q20 17 39 25.5t46 8.5q30 0 78 -16q17 -5 34.5 -9.5t32.5 -4.5q32 0 65 23q6 4 9 4q7 0 10 -11
l12 -44l1 -5q0 -9 -11 -16q-38 -25 -86 -25z" />
    <glyph glyph-name="Adieresis" unicode="&#xc4;" horiz-adv-x="756" 
d="M37 14q0 3 2 11l252 699q4 10 9 14t15 4h125q22 0 28 -20l250 -698q2 -6 2 -9q0 -6 -3.5 -10.5t-9.5 -4.5h-121q-14 0 -18 13l-58 162q-2 5 -4 7.5t-8 2.5h-261q-9 0 -12 -9l-60 -164q-3 -12 -18 -12h-97q-13 0 -13 14zM462 298q9 0 9 8q0 5 -1 8l-96 267q-3 7 -7 7
t-7 -8l-97 -266q-2 -6 -2 -9q0 -7 10 -7h191zM342 849q0 -10 -5 -14t-16 -4h-80q-10 0 -13.5 4t-3.5 12v91q0 16 13 16h92q13 0 13 -14v-91zM526 849q0 -10 -5 -14t-17 -4h-79q-10 0 -13.5 3.5t-3.5 12.5v91q0 16 13 16h92q13 0 13 -14v-91z" />
    <glyph glyph-name="Aring" unicode="&#xc5;" horiz-adv-x="756" 
d="M37 14q0 3 2 11l252 699q4 10 9 14t15 4h125q22 0 28 -20l250 -698q2 -6 2 -9q0 -6 -3.5 -10.5t-9.5 -4.5h-121q-14 0 -18 13l-58 162q-2 5 -4 7.5t-8 2.5h-261q-9 0 -12 -9l-60 -164q-3 -12 -18 -12h-97q-13 0 -13 14zM462 298q9 0 9 8q0 5 -1 8l-96 267q-3 7 -7 7
t-7 -8l-97 -266q-2 -6 -2 -9q0 -7 10 -7h191zM452.5 775q-31.5 -32 -77.5 -32t-78 32.5t-32 79.5q0 43 32.5 74t77.5 31q46 0 77.5 -31t31.5 -76q0 -46 -31.5 -78zM411 889q-15 15 -37 15t-38 -15t-16 -37t16 -38t38 -16t37 16t15 38t-15 37z" />
    <glyph glyph-name="AE" unicode="&#xc6;" horiz-adv-x="1056" 
d="M1010.5 107q3.5 -3 3.5 -11v-81q0 -15 -16 -15h-476q-10 0 -14.5 4t-4.5 14v157q0 10 -10 10h-224q-10 0 -15 -9l-89 -164q-7 -12 -20 -12h-97q-11 0 -11 11q0 7 4 14l380 699q5 10 10.5 14t15.5 4h543q13 0 13 -15l-1 -76q0 -19 -18 -19h-317q-16 0 -16 -14v-175
q0 -15 14 -15h219q14 0 14 -15v-81q0 -12 -13 -12h-221q-13 0 -13 -12v-186q0 -7 2 -9.5t8 -2.5h338q8 0 11.5 -3zM503 313v285q-2 17 -11 17t-18 -17l-157 -284q-4 -5 -4 -11q0 -5 8 -5h168q14 0 14 15z" />
    <glyph glyph-name="Ccedilla" unicode="&#xc7;" horiz-adv-x="719" 
d="M677 214.5q3 -4.5 1 -15.5q-11 -42 -44.5 -88t-90.5 -80t-133 -40l-16 -40q-3 -6 4 -6q48 -2 70.5 -25t22.5 -54q0 -38 -34 -60t-84 -22q-61 0 -104 23q-8 6 -4 12l13 32q3 6 10 3q36 -21 69 -21q26 0 39.5 9t13.5 25q0 21 -20 31.5t-65 11.5q-12 0 -8 9l31 72
q-92 8 -159 57.5t-102.5 133.5t-35.5 193q0 116 40 201t114.5 130.5t175.5 45.5q73 0 135.5 -28.5t103 -77.5t50.5 -109q1 -5 1 -12q0 -6 -2.5 -8t-8.5 -3l-114 -8q-7 0 -9.5 2.5t-4.5 11.5q-12 58 -50 92.5t-97 34.5q-179 0 -179 -274q0 -139 45 -205.5t137 -66.5
q64 0 107.5 31.5t70.5 101.5q3 8 18 5l85 -18q5 -2 8 -6.5z" />
    <glyph glyph-name="Egrave" unicode="&#xc8;" horiz-adv-x="645" 
d="M94 742h485q13 0 13 -15v-76q0 -19 -18 -19h-330q-17 0 -17 -14v-175q0 -15 14 -15h228q15 0 15 -15v-81q0 -12 -14 -12h-230q-13 0 -13 -12v-186q0 -7 2.5 -9.5t8.5 -2.5h350q9 0 12.5 -3t3.5 -11v-81q0 -6 -4 -10.5t-13 -4.5h-489q-10 0 -14.5 4t-4.5 14v707
q0 17 15 17zM221.5 962.5q4.5 2.5 9.5 0.5l234 -98q11 -5 5 -18l-10 -31q-4 -10 -13 -10q-5 0 -8 1l-231 65q-15 5 -15 15l2 8l20 60q2 5 6.5 7.5z" />
    <glyph glyph-name="Eacute" unicode="&#xc9;" horiz-adv-x="645" 
d="M94 742h485q13 0 13 -15v-76q0 -19 -18 -19h-330q-17 0 -17 -14v-175q0 -15 14 -15h228q15 0 15 -15v-81q0 -12 -14 -12h-230q-13 0 -13 -12v-186q0 -7 2.5 -9.5t8.5 -2.5h350q9 0 12.5 -3t3.5 -11v-81q0 -6 -4 -10.5t-13 -4.5h-489q-10 0 -14.5 4t-4.5 14v707
q0 17 15 17zM477 895l2 -8q0 -10 -15 -15l-231 -65q-3 -1 -8 -1q-9 0 -13 10l-10 31q-2 6 -2 8q0 7 7 10l234 98q2 1 5 1q7 0 11 -9z" />
    <glyph glyph-name="Ecircumflex" unicode="&#xca;" horiz-adv-x="645" 
d="M94 742h485q13 0 13 -15v-76q0 -19 -18 -19h-330q-17 0 -17 -14v-175q0 -15 14 -15h228q15 0 15 -15v-81q0 -12 -14 -12h-230q-13 0 -13 -12v-186q0 -7 2.5 -9.5t8.5 -2.5h350q9 0 12.5 -3t3.5 -11v-81q0 -6 -4 -10.5t-13 -4.5h-489q-10 0 -14.5 4t-4.5 14v707
q0 17 15 17zM353 888q-9 11 -13 11t-15 -11l-53 -52q-5 -6 -8.5 -7t-12.5 -1h-72q-8 0 -8 5q0 4 6 10l106 105q6 6 12.5 9t17.5 3h61q12 0 23 -11l105 -106q7 -7 7 -11t-9 -4h-77q-14 0 -21 8z" />
    <glyph glyph-name="Edieresis" unicode="&#xcb;" horiz-adv-x="645" 
d="M94 742h485q13 0 13 -15v-76q0 -19 -18 -19h-330q-17 0 -17 -14v-175q0 -15 14 -15h228q15 0 15 -15v-81q0 -12 -14 -12h-230q-13 0 -13 -12v-186q0 -7 2.5 -9.5t8.5 -2.5h350q9 0 12.5 -3t3.5 -11v-81q0 -6 -4 -10.5t-13 -4.5h-489q-10 0 -14.5 4t-4.5 14v707
q0 17 15 17zM307 849q0 -10 -5 -14t-16 -4h-80q-10 0 -13.5 4t-3.5 12v91q0 16 13 16h92q13 0 13 -14v-91zM491 849q0 -10 -5 -14t-17 -4h-79q-10 0 -13.5 3.5t-3.5 12.5v91q0 16 13 16h92q13 0 13 -14v-91z" />
    <glyph glyph-name="Igrave" unicode="&#xcc;" horiz-adv-x="306" 
d="M213 742q14 0 14 -16v-704q0 -12 -5.5 -17t-18.5 -5h-104q-12 0 -16 4t-4 14v707q0 17 15 17h119zM36.5 962.5q4.5 2.5 9.5 0.5l234 -98q11 -5 5 -18l-10 -31q-4 -10 -13 -10q-5 0 -8 1l-231 65q-15 5 -15 15l2 8l20 60q2 5 6.5 7.5z" />
    <glyph glyph-name="Iacute" unicode="&#xcd;" horiz-adv-x="306" 
d="M213 742q14 0 14 -16v-704q0 -12 -5.5 -17t-18.5 -5h-104q-12 0 -16 4t-4 14v707q0 17 15 17h119zM292 895l2 -8q0 -10 -15 -15l-231 -65q-3 -1 -8 -1q-9 0 -13 10l-10 31q-2 6 -2 8q0 7 7 10l234 98q2 1 5 1q7 0 11 -9z" />
    <glyph glyph-name="Icircumflex" unicode="&#xce;" horiz-adv-x="306" 
d="M213 742q14 0 14 -16v-704q0 -12 -5.5 -17t-18.5 -5h-104q-12 0 -16 4t-4 14v707q0 17 15 17h119zM168 888q-9 11 -13 11t-15 -11l-53 -52q-5 -6 -8.5 -7t-12.5 -1h-72q-8 0 -8 5q0 4 6 10l106 105q6 6 12.5 9t17.5 3h61q12 0 23 -11l105 -106q7 -7 7 -11t-9 -4h-77
q-14 0 -21 8z" />
    <glyph glyph-name="Idieresis" unicode="&#xcf;" horiz-adv-x="306" 
d="M213 742q14 0 14 -16v-704q0 -12 -5.5 -17t-18.5 -5h-104q-12 0 -16 4t-4 14v707q0 17 15 17h119zM122 849q0 -10 -5 -14t-16 -4h-80q-10 0 -13.5 4t-3.5 12v91q0 16 13 16h92q13 0 13 -14v-91zM306 849q0 -10 -5 -14t-17 -4h-79q-10 0 -13.5 3.5t-3.5 12.5v91
q0 16 13 16h92q13 0 13 -14v-91z" />
    <glyph glyph-name="Eth" unicode="&#xd0;" horiz-adv-x="753" 
d="M701 374q0 -179 -100.5 -276.5t-297.5 -97.5h-193q-20 0 -20 21v298h-42q-11 0 -15 4.5t-4 14.5v62q0 17 14 17h47v307q0 10 4 14t15 4q143 0 201 -1q391 -9 391 -367zM481.5 168q64.5 62 64.5 206q0 93 -26 148.5t-77.5 81.5t-134.5 30l-61 2q-9 0 -9 -14v-205h141
q14 0 14 -15v-62q0 -21 -25 -21h-130v-201q0 -7 3 -9.5t10 -2.5h25q141 0 205.5 62z" />
    <glyph glyph-name="Ntilde" unicode="&#xd1;" horiz-adv-x="758" 
d="M667 742q7 0 9.5 -3t2.5 -11v-713q0 -15 -17 -15h-83q-8 0 -13 2t-11 9l-342 486q-4 6 -7.5 5.5t-3.5 -6.5v-480v-3q0 -13 -17 -13h-88q-18 0 -18 16v709q0 17 16 17h100q10 0 15 -2.5t11 -10.5l322 -464q4 -7 9 -7q6 0 6 10v458q0 16 16 16h93zM459 849q-32 0 -75 15
q-4 1 -24.5 7t-41.5 6q-20 0 -33.5 -5.5t-30.5 -17.5q-8 -4 -9 -4q-6 0 -9 10l-13 38q-1 3 -1 8q0 6 7 13q20 17 39 25.5t46 8.5q30 0 78 -16q17 -5 34.5 -9.5t32.5 -4.5q32 0 65 23q6 4 9 4q7 0 10 -11l12 -44l1 -5q0 -9 -11 -16q-38 -25 -86 -25z" />
    <glyph glyph-name="Ograve" unicode="&#xd2;" horiz-adv-x="770" 
d="M208 35q-75 45 -115.5 130.5t-40.5 202.5q0 119 41 205.5t116 132.5t177 46q101 0 176 -46t116 -132.5t41 -204.5q0 -117 -40.5 -202.5t-115.5 -131t-177 -45.5q-103 0 -178 45zM521 161q43 65 43 206q0 144 -43.5 212t-134.5 68t-135.5 -68t-44.5 -212q0 -141 44 -206
t137 -65q91 0 134 65zM267.5 962.5q4.5 2.5 9.5 0.5l234 -98q11 -5 5 -18l-10 -31q-4 -10 -13 -10q-5 0 -8 1l-231 65q-15 5 -15 15l2 8l20 60q2 5 6.5 7.5z" />
    <glyph glyph-name="Oacute" unicode="&#xd3;" horiz-adv-x="770" 
d="M208 35q-75 45 -115.5 130.5t-40.5 202.5q0 119 41 205.5t116 132.5t177 46q101 0 176 -46t116 -132.5t41 -204.5q0 -117 -40.5 -202.5t-115.5 -131t-177 -45.5q-103 0 -178 45zM521 161q43 65 43 206q0 144 -43.5 212t-134.5 68t-135.5 -68t-44.5 -212q0 -141 44 -206
t137 -65q91 0 134 65zM523 895l2 -8q0 -10 -15 -15l-231 -65q-3 -1 -8 -1q-9 0 -13 10l-10 31q-2 6 -2 8q0 7 7 10l234 98q2 1 5 1q7 0 11 -9z" />
    <glyph glyph-name="Ocircumflex" unicode="&#xd4;" horiz-adv-x="770" 
d="M208 35q-75 45 -115.5 130.5t-40.5 202.5q0 119 41 205.5t116 132.5t177 46q101 0 176 -46t116 -132.5t41 -204.5q0 -117 -40.5 -202.5t-115.5 -131t-177 -45.5q-103 0 -178 45zM521 161q43 65 43 206q0 144 -43.5 212t-134.5 68t-135.5 -68t-44.5 -212q0 -141 44 -206
t137 -65q91 0 134 65zM399 888q-9 11 -13 11t-15 -11l-53 -52q-5 -6 -8.5 -7t-12.5 -1h-72q-8 0 -8 5q0 4 6 10l106 105q6 6 12.5 9t17.5 3h61q12 0 23 -11l105 -106q7 -7 7 -11t-9 -4h-77q-14 0 -21 8z" />
    <glyph glyph-name="Otilde" unicode="&#xd5;" horiz-adv-x="770" 
d="M208 35q-75 45 -115.5 130.5t-40.5 202.5q0 119 41 205.5t116 132.5t177 46q101 0 176 -46t116 -132.5t41 -204.5q0 -117 -40.5 -202.5t-115.5 -131t-177 -45.5q-103 0 -178 45zM521 161q43 65 43 206q0 144 -43.5 212t-134.5 68t-135.5 -68t-44.5 -212q0 -141 44 -206
t137 -65q91 0 134 65zM458 849q-32 0 -75 15q-4 1 -24.5 7t-41.5 6q-20 0 -33.5 -5.5t-30.5 -17.5q-8 -4 -9 -4q-6 0 -9 10l-13 38q-1 3 -1 8q0 6 7 13q20 17 39 25.5t46 8.5q30 0 78 -16q17 -5 34.5 -9.5t32.5 -4.5q32 0 65 23q6 4 9 4q7 0 10 -11l12 -44l1 -5
q0 -9 -11 -16q-38 -25 -86 -25z" />
    <glyph glyph-name="Odieresis" unicode="&#xd6;" horiz-adv-x="770" 
d="M208 35q-75 45 -115.5 130.5t-40.5 202.5q0 119 41 205.5t116 132.5t177 46q101 0 176 -46t116 -132.5t41 -204.5q0 -117 -40.5 -202.5t-115.5 -131t-177 -45.5q-103 0 -178 45zM521 161q43 65 43 206q0 144 -43.5 212t-134.5 68t-135.5 -68t-44.5 -212q0 -141 44 -206
t137 -65q91 0 134 65zM353 849q0 -10 -5 -14t-16 -4h-80q-10 0 -13.5 4t-3.5 12v91q0 16 13 16h92q13 0 13 -14v-91zM537 849q0 -10 -5 -14t-17 -4h-79q-10 0 -13.5 3.5t-3.5 12.5v91q0 16 13 16h92q13 0 13 -14v-91z" />
    <glyph glyph-name="multiply" unicode="&#xd7;" horiz-adv-x="564" 
d="M505 214q0 -5 -5 -10l-45 -44q-7 -7 -14 -7t-16 9l-143 143l-149 -149q-4 -4 -9 -4q-6 0 -10 4l-44 44q-8 8 -8 14t10 16l142 142l-147 147q-6 8 -6 13q0 6 6 12l44 45q6 6 12 6q3 0 9 -4l150 -150l147 147q7 7 13 7t12 -7l45 -44q6 -6 6 -12q0 -3 -4 -9l-151 -150
l150 -150q5 -3 5 -9z" />
    <glyph glyph-name="Oslash" unicode="&#xd8;" horiz-adv-x="752" 
d="M741 694q0 -5 -5 -10l-80 -85q54 -93 54 -230q0 -117 -40.5 -202.5t-115.5 -131t-177 -45.5q-139 0 -225 81l-64 -68q-10 -10 -16 -10q-7 0 -16 9l-30 29q-9 11 -9 17q0 4 5 11l75 79q-55 92 -55 230q0 119 41 205.5t116.5 132.5t177.5 46q137 0 225 -85l69 74q7 7 15 7
q5 0 8 -3l42 -41q5 -5 5 -10zM215 256l296 321q-43 70 -134 70t-134.5 -68t-43.5 -212q0 -67 16 -111zM537 481l-295 -320q44 -64 135 -64q92 0 134 64.5t42 205.5q0 69 -16 114z" />
    <glyph glyph-name="Ugrave" unicode="&#xd9;" horiz-adv-x="717" 
d="M572.5 55q-73.5 -65 -214.5 -65q-153 0 -220.5 72.5t-67.5 220.5v441q0 9 4 13.5t10 4.5h120q14 0 14 -16v-465q0 -84 38 -123.5t113 -39.5q155 0 155 166v461q0 17 14 17h95q13 0 13 -16v-461q0 -145 -73.5 -210zM251.5 962.5q4.5 2.5 9.5 0.5l234 -98q11 -5 5 -18
l-10 -31q-4 -10 -13 -10q-5 0 -8 1l-231 65q-15 5 -15 15l2 8l20 60q2 5 6.5 7.5z" />
    <glyph glyph-name="Uacute" unicode="&#xda;" horiz-adv-x="717" 
d="M572.5 55q-73.5 -65 -214.5 -65q-153 0 -220.5 72.5t-67.5 220.5v441q0 9 4 13.5t10 4.5h120q14 0 14 -16v-465q0 -84 38 -123.5t113 -39.5q155 0 155 166v461q0 17 14 17h95q13 0 13 -16v-461q0 -145 -73.5 -210zM507 895l2 -8q0 -10 -15 -15l-231 -65q-3 -1 -8 -1
q-9 0 -13 10l-10 31q-2 6 -2 8q0 7 7 10l234 98q2 1 5 1q7 0 11 -9z" />
    <glyph glyph-name="Ucircumflex" unicode="&#xdb;" horiz-adv-x="717" 
d="M572.5 55q-73.5 -65 -214.5 -65q-153 0 -220.5 72.5t-67.5 220.5v441q0 9 4 13.5t10 4.5h120q14 0 14 -16v-465q0 -84 38 -123.5t113 -39.5q155 0 155 166v461q0 17 14 17h95q13 0 13 -16v-461q0 -145 -73.5 -210zM383 888q-9 11 -13 11t-15 -11l-53 -52q-5 -6 -8.5 -7
t-12.5 -1h-72q-8 0 -8 5q0 4 6 10l106 105q6 6 12.5 9t17.5 3h61q12 0 23 -11l105 -106q7 -7 7 -11t-9 -4h-77q-14 0 -21 8z" />
    <glyph glyph-name="Udieresis" unicode="&#xdc;" horiz-adv-x="717" 
d="M572.5 55q-73.5 -65 -214.5 -65q-153 0 -220.5 72.5t-67.5 220.5v441q0 9 4 13.5t10 4.5h120q14 0 14 -16v-465q0 -84 38 -123.5t113 -39.5q155 0 155 166v461q0 17 14 17h95q13 0 13 -16v-461q0 -145 -73.5 -210zM337 849q0 -10 -5 -14t-16 -4h-80q-10 0 -13.5 4
t-3.5 12v91q0 16 13 16h92q13 0 13 -14v-91zM521 849q0 -10 -5 -14t-17 -4h-79q-10 0 -13.5 3.5t-3.5 12.5v91q0 16 13 16h92q13 0 13 -14v-91z" />
    <glyph glyph-name="Yacute" unicode="&#xdd;" horiz-adv-x="715" 
d="M680 733q0 -4 -3 -9l-236 -390q-5 -7 -6 -14.5t-1 -30.5v-267q0 -12 -5.5 -17t-19.5 -5h-103q-11 0 -15.5 4.5t-4.5 14.5v272q0 11 -2 17.5t-8 16.5l-238 396q-4 5 -4 10q0 11 17 11h123q11 0 16 -3t11 -13l161 -281q6 -11 10 -11q3 0 10 10l159 282q5 10 10 13t16 3h100
q13 0 13 -9zM501 895l2 -8q0 -10 -15 -15l-231 -65q-3 -1 -8 -1q-9 0 -13 10l-10 31q-2 6 -2 8q0 7 7 10l234 98q2 1 5 1q7 0 11 -9z" />
    <glyph glyph-name="Thorn" unicode="&#xde;" horiz-adv-x="713" 
d="M597 216.5q-73 -56.5 -195 -56.5h-165q-10 0 -10 -11v-129q0 -20 -22 -20h-108q-18 0 -18 18v707q0 17 15 17h119q14 0 14 -16v-122q0 -9 8 -9h149q127 0 206.5 -54.5t79.5 -160.5q0 -107 -73 -163.5zM480.5 461.5q-38.5 26.5 -104.5 26.5h-132q-9 0 -13 -3.5t-4 -11.5
v-189q0 -9 3 -13t10 -4h143q64 0 100 29.5t36 85.5q0 53 -38.5 79.5z" />
    <glyph glyph-name="germandbls" unicode="&#xdf;" horiz-adv-x="635" 
d="M479 701.5q51 -40.5 51 -108.5q0 -53 -31 -84t-99 -61q-23 -12 -31 -19.5t-8 -19.5t7.5 -17.5t30.5 -13.5q67 -27 105 -48t67 -60t29 -100q0 -86 -58 -133t-153 -47q-38 0 -71 7.5t-57 21.5q-11 6 -5 16l30 61q2 4 6.5 5t9.5 -2q19 -11 37.5 -17t43.5 -6q45 0 72 21
t27 60q0 27 -13.5 44t-35 28t-60.5 25q-51 21 -80.5 49.5t-29.5 77.5q0 36 18.5 62t55.5 51q7 5 29 21.5t33 33.5t11 38q0 31 -23 49.5t-64 18.5q-52 0 -82 -31.5t-30 -88.5v-518l1 -5q-1 -12 -13 -12h-102q-14 0 -14 15v395q0 10 -8 10h-42q-15 0 -15 13v63q0 6 4 10.5
t12 4.5h38q7 0 9 3.5t2 10.5q2 95 63.5 156t184.5 61q97 0 148 -40.5z" />
    <glyph glyph-name="agrave" unicode="&#xe0;" horiz-adv-x="558" 
d="M196 -10q-76 0 -120.5 40.5t-44.5 105.5q0 83 74 132t207 54l50 3q16 2 16 15v23q0 44 -26.5 68.5t-72.5 24.5q-76 0 -117 -66q-3 -4 -5.5 -6.5t-6.5 -2.5q-5 0 -8 1l-84 21q-8 2 -8 9q0 5 4 13q26 56 85.5 85.5t145.5 29.5q112 0 164.5 -44t52.5 -124v-352
q0 -11 -3.5 -15.5t-13.5 -4.5h-85q-9 0 -13 6t-6 18l-1 30q-1 9 -7 9q-3 0 -13 -8q-70 -65 -164 -65zM374.5 255q-3.5 4 -11.5 4l-41 -3q-70 -5 -116.5 -31.5t-46.5 -72.5q0 -34 24.5 -54t65.5 -20q52 0 91 32q38 30 38 61v71q0 9 -3.5 13zM164.5 750.5q4.5 2.5 9.5 0.5
l234 -98q11 -5 5 -18l-10 -31q-4 -10 -13 -10q-5 0 -8 1l-231 65q-15 5 -15 15l2 8l20 60q2 5 6.5 7.5z" />
    <glyph glyph-name="aacute" unicode="&#xe1;" horiz-adv-x="558" 
d="M196 -10q-76 0 -120.5 40.5t-44.5 105.5q0 83 74 132t207 54l50 3q16 2 16 15v23q0 44 -26.5 68.5t-72.5 24.5q-76 0 -117 -66q-3 -4 -5.5 -6.5t-6.5 -2.5q-5 0 -8 1l-84 21q-8 2 -8 9q0 5 4 13q26 56 85.5 85.5t145.5 29.5q112 0 164.5 -44t52.5 -124v-352
q0 -11 -3.5 -15.5t-13.5 -4.5h-85q-9 0 -13 6t-6 18l-1 30q-1 9 -7 9q-3 0 -13 -8q-70 -65 -164 -65zM374.5 255q-3.5 4 -11.5 4l-41 -3q-70 -5 -116.5 -31.5t-46.5 -72.5q0 -34 24.5 -54t65.5 -20q52 0 91 32q38 30 38 61v71q0 9 -3.5 13zM420 683l2 -8q0 -10 -15 -15
l-231 -65q-3 -1 -8 -1q-9 0 -13 10l-10 31q-2 6 -2 8q0 7 7 10l234 98q2 1 5 1q7 0 11 -9z" />
    <glyph glyph-name="acircumflex" unicode="&#xe2;" horiz-adv-x="558" 
d="M196 -10q-76 0 -120.5 40.5t-44.5 105.5q0 83 74 132t207 54l50 3q16 2 16 15v23q0 44 -26.5 68.5t-72.5 24.5q-76 0 -117 -66q-3 -4 -5.5 -6.5t-6.5 -2.5q-5 0 -8 1l-84 21q-8 2 -8 9q0 5 4 13q26 56 85.5 85.5t145.5 29.5q112 0 164.5 -44t52.5 -124v-352
q0 -11 -3.5 -15.5t-13.5 -4.5h-85q-9 0 -13 6t-6 18l-1 30q-1 9 -7 9q-3 0 -13 -8q-70 -65 -164 -65zM374.5 255q-3.5 4 -11.5 4l-41 -3q-70 -5 -116.5 -31.5t-46.5 -72.5q0 -34 24.5 -54t65.5 -20q52 0 91 32q38 30 38 61v71q0 9 -3.5 13zM296 676q-9 11 -13 11t-15 -11
l-53 -52q-5 -6 -8.5 -7t-12.5 -1h-72q-8 0 -8 5q0 4 6 10l106 105q6 6 12.5 9t17.5 3h61q12 0 23 -11l105 -106q7 -7 7 -11t-9 -4h-77q-14 0 -21 8z" />
    <glyph glyph-name="atilde" unicode="&#xe3;" horiz-adv-x="558" 
d="M196 -10q-76 0 -120.5 40.5t-44.5 105.5q0 83 74 132t207 54l50 3q16 2 16 15v23q0 44 -26.5 68.5t-72.5 24.5q-76 0 -117 -66q-3 -4 -5.5 -6.5t-6.5 -2.5q-5 0 -8 1l-84 21q-8 2 -8 9q0 5 4 13q26 56 85.5 85.5t145.5 29.5q112 0 164.5 -44t52.5 -124v-352
q0 -11 -3.5 -15.5t-13.5 -4.5h-85q-9 0 -13 6t-6 18l-1 30q-1 9 -7 9q-3 0 -13 -8q-70 -65 -164 -65zM374.5 255q-3.5 4 -11.5 4l-41 -3q-70 -5 -116.5 -31.5t-46.5 -72.5q0 -34 24.5 -54t65.5 -20q52 0 91 32q38 30 38 61v71q0 9 -3.5 13zM355 637q-32 0 -75 15
q-4 1 -24.5 7t-41.5 6q-20 0 -33.5 -5.5t-30.5 -17.5q-8 -4 -9 -4q-6 0 -9 10l-13 38q-1 3 -1 8q0 6 7 13q20 17 39 25.5t46 8.5q30 0 78 -16q17 -5 34.5 -9.5t32.5 -4.5q32 0 65 23q6 4 9 4q7 0 10 -11l12 -44l1 -5q0 -9 -11 -16q-38 -25 -86 -25z" />
    <glyph glyph-name="adieresis" unicode="&#xe4;" horiz-adv-x="558" 
d="M196 -10q-76 0 -120.5 40.5t-44.5 105.5q0 83 74 132t207 54l50 3q16 2 16 15v23q0 44 -26.5 68.5t-72.5 24.5q-76 0 -117 -66q-3 -4 -5.5 -6.5t-6.5 -2.5q-5 0 -8 1l-84 21q-8 2 -8 9q0 5 4 13q26 56 85.5 85.5t145.5 29.5q112 0 164.5 -44t52.5 -124v-352
q0 -11 -3.5 -15.5t-13.5 -4.5h-85q-9 0 -13 6t-6 18l-1 30q-1 9 -7 9q-3 0 -13 -8q-70 -65 -164 -65zM374.5 255q-3.5 4 -11.5 4l-41 -3q-70 -5 -116.5 -31.5t-46.5 -72.5q0 -34 24.5 -54t65.5 -20q52 0 91 32q38 30 38 61v71q0 9 -3.5 13zM250 637q0 -10 -5 -14t-16 -4h-80
q-10 0 -13.5 4t-3.5 12v91q0 16 13 16h92q13 0 13 -14v-91zM434 637q0 -10 -5 -14t-17 -4h-79q-10 0 -13.5 3.5t-3.5 12.5v91q0 16 13 16h92q13 0 13 -14v-91z" />
    <glyph glyph-name="aring" unicode="&#xe5;" horiz-adv-x="558" 
d="M196 -10q-76 0 -120.5 40.5t-44.5 105.5q0 83 74 132t207 54l50 3q16 2 16 15v23q0 44 -26.5 68.5t-72.5 24.5q-76 0 -117 -66q-3 -4 -5.5 -6.5t-6.5 -2.5q-5 0 -8 1l-84 21q-8 2 -8 9q0 5 4 13q26 56 85.5 85.5t145.5 29.5q112 0 164.5 -44t52.5 -124v-352
q0 -11 -3.5 -15.5t-13.5 -4.5h-85q-9 0 -13 6t-6 18l-1 30q-1 9 -7 9q-3 0 -13 -8q-70 -65 -164 -65zM374.5 255q-3.5 4 -11.5 4l-41 -3q-70 -5 -116.5 -31.5t-46.5 -72.5q0 -34 24.5 -54t65.5 -20q52 0 91 32q38 30 38 61v71q0 9 -3.5 13zM360.5 617q-31.5 -32 -77.5 -32
t-78 32.5t-32 79.5q0 43 32.5 74t77.5 31q46 0 77.5 -31t31.5 -76q0 -46 -31.5 -78zM319 731q-15 15 -37 15t-38 -15t-16 -37t16 -38t38 -16t37 16t15 38t-15 37z" />
    <glyph glyph-name="ae" unicode="&#xe6;" horiz-adv-x="922" 
d="M511.5 235.5q-3.5 -4.5 -3.5 -16.5q0 -37 19.5 -68.5t52.5 -50.5t73 -19q45 0 75.5 18t63.5 54q5 5 7 5q3 0 9 -3l61 -27q7 -3 7 -9q0 -1 -4 -9q-42 -63 -98.5 -91.5t-136.5 -28.5q-68 0 -119 27.5t-87 69.5q-3 3 -5 3t-4 -3q-43 -46 -94.5 -71.5t-126.5 -25.5
q-81 0 -125.5 40.5t-44.5 109.5q0 79 67 126t200 55l62 4q18 2 18 15v23q0 44 -26 68.5t-75 24.5q-74 0 -116 -66q-4 -9 -11 -9q-5 0 -9 1l-83 21q-6 2 -6 13q0 3 2 9q31 58 85.5 86.5t143.5 28.5q70 -1 114.5 -19t67.5 -56q30 37 74 56t97 19q75 0 132 -33t89 -95.5
t32 -148.5q0 -12 -3.5 -17t-14.5 -6h-346q-10 0 -13.5 -4.5zM547.5 419q-37.5 -39 -37.5 -104l235 -1q10 0 13.5 3t3.5 12q0 31 -15 61t-43 49t-64 19q-55 0 -92.5 -39zM361 254l-49 -4q-68 -6 -110.5 -32t-42.5 -70q0 -35 24.5 -55.5t67.5 -19.5q52 2 89.5 29t37.5 65v70
q0 17 -17 17z" />
    <glyph glyph-name="ccedilla" unicode="&#xe7;" horiz-adv-x="548" 
d="M521 135q-23 -53 -72 -95t-124 -49l-16 -40q-3 -6 4 -6q48 -2 70.5 -25t22.5 -54q0 -38 -34 -60t-84 -22q-61 0 -104 23q-8 6 -4 12l13 32q3 6 10 3q36 -21 69 -21q26 0 39.5 9t13.5 25q0 21 -20 31.5t-65 11.5q-12 0 -8 9l31 73q-67 7 -118.5 43t-80 95t-28.5 133
q0 81 34 144t93.5 98t133.5 35q84 0 140 -41t80 -101l2 -9q0 -8 -12 -10l-88 -11l-4 -1q-7 0 -10 10q-24 39 -45.5 57.5t-57.5 18.5q-62 0 -98 -49t-36 -139q0 -92 37 -140.5t103 -48.5q43 0 72 22t56 67q3 4 6.5 5t9.5 -1l63 -17q10 -3 6 -17z" />
    <glyph glyph-name="egrave" unicode="&#xe8;" horiz-adv-x="584" 
d="M190 150.5q19 -32.5 52.5 -51t73.5 -18.5q41 0 74.5 17.5t63.5 54.5q5 5 8 5t9 -3l61 -27q7 -3 7 -9q0 -3 -4 -9q-45 -65 -99.5 -92.5t-134.5 -27.5q-76 0 -136.5 34t-94.5 95t-34 139q0 84 35 148t95 99t133 35q75 0 132.5 -33t89 -95.5t31.5 -148.5v-4q0 -10 -3 -14
t-13 -5h-354q-11 0 -11 -16q0 -41 19 -73.5zM408 314q10 0 13.5 2.5t3.5 11.5q0 32 -14 62t-41.5 49t-65.5 19q-59 0 -95.5 -41.5t-35.5 -102.5h235zM180.5 750.5q4.5 2.5 9.5 0.5l234 -98q11 -5 5 -18l-10 -31q-4 -10 -13 -10q-5 0 -8 1l-231 65q-15 5 -15 15l2 8l20 60
q2 5 6.5 7.5z" />
    <glyph glyph-name="eacute" unicode="&#xe9;" horiz-adv-x="584" 
d="M190 150.5q19 -32.5 52.5 -51t73.5 -18.5q41 0 74.5 17.5t63.5 54.5q5 5 8 5t9 -3l61 -27q7 -3 7 -9q0 -3 -4 -9q-45 -65 -99.5 -92.5t-134.5 -27.5q-76 0 -136.5 34t-94.5 95t-34 139q0 84 35 148t95 99t133 35q75 0 132.5 -33t89 -95.5t31.5 -148.5v-4q0 -10 -3 -14
t-13 -5h-354q-11 0 -11 -16q0 -41 19 -73.5zM408 314q10 0 13.5 2.5t3.5 11.5q0 32 -14 62t-41.5 49t-65.5 19q-59 0 -95.5 -41.5t-35.5 -102.5h235zM436 683l2 -8q0 -10 -15 -15l-231 -65q-3 -1 -8 -1q-9 0 -13 10l-10 31q-2 6 -2 8q0 7 7 10l234 98q2 1 5 1q7 0 11 -9z
" />
    <glyph glyph-name="ecircumflex" unicode="&#xea;" horiz-adv-x="584" 
d="M190 150.5q19 -32.5 52.5 -51t73.5 -18.5q41 0 74.5 17.5t63.5 54.5q5 5 8 5t9 -3l61 -27q7 -3 7 -9q0 -3 -4 -9q-45 -65 -99.5 -92.5t-134.5 -27.5q-76 0 -136.5 34t-94.5 95t-34 139q0 84 35 148t95 99t133 35q75 0 132.5 -33t89 -95.5t31.5 -148.5v-4q0 -10 -3 -14
t-13 -5h-354q-11 0 -11 -16q0 -41 19 -73.5zM408 314q10 0 13.5 2.5t3.5 11.5q0 32 -14 62t-41.5 49t-65.5 19q-59 0 -95.5 -41.5t-35.5 -102.5h235zM312 676q-9 11 -13 11t-15 -11l-53 -52q-5 -6 -8.5 -7t-12.5 -1h-72q-8 0 -8 5q0 4 6 10l106 105q6 6 12.5 9t17.5 3h61
q12 0 23 -11l105 -106q7 -7 7 -11t-9 -4h-77q-14 0 -21 8z" />
    <glyph glyph-name="edieresis" unicode="&#xeb;" horiz-adv-x="584" 
d="M190 150.5q19 -32.5 52.5 -51t73.5 -18.5q41 0 74.5 17.5t63.5 54.5q5 5 8 5t9 -3l61 -27q7 -3 7 -9q0 -3 -4 -9q-45 -65 -99.5 -92.5t-134.5 -27.5q-76 0 -136.5 34t-94.5 95t-34 139q0 84 35 148t95 99t133 35q75 0 132.5 -33t89 -95.5t31.5 -148.5v-4q0 -10 -3 -14
t-13 -5h-354q-11 0 -11 -16q0 -41 19 -73.5zM408 314q10 0 13.5 2.5t3.5 11.5q0 32 -14 62t-41.5 49t-65.5 19q-59 0 -95.5 -41.5t-35.5 -102.5h235zM266 637q0 -10 -5 -14t-16 -4h-80q-10 0 -13.5 4t-3.5 12v91q0 16 13 16h92q13 0 13 -14v-91zM450 637q0 -10 -5 -14
t-17 -4h-79q-10 0 -13.5 3.5t-3.5 12.5v91q0 16 13 16h92q13 0 13 -14v-91z" />
    <glyph glyph-name="igrave" unicode="&#xec;" horiz-adv-x="256" 
d="M193 22q0 -12 -5.5 -17t-18.5 -5h-87q-11 0 -15 4t-4 14v495q0 17 15 17h101q14 0 14 -16v-492zM11.5 750.5q4.5 2.5 9.5 0.5l234 -98q11 -5 5 -18l-10 -31q-4 -10 -13 -10q-5 0 -8 1l-231 65q-15 5 -15 15l2 8l20 60q2 5 6.5 7.5z" />
    <glyph glyph-name="iacute" unicode="&#xed;" horiz-adv-x="256" 
d="M193 22q0 -12 -5.5 -17t-18.5 -5h-87q-11 0 -15 4t-4 14v495q0 17 15 17h101q14 0 14 -16v-492zM267 683l2 -8q0 -10 -15 -15l-231 -65q-3 -1 -8 -1q-9 0 -13 10l-10 31q-2 6 -2 8q0 7 7 10l234 98q2 1 5 1q7 0 11 -9z" />
    <glyph glyph-name="icircumflex" unicode="&#xee;" horiz-adv-x="256" 
d="M193 22q0 -12 -5.5 -17t-18.5 -5h-87q-11 0 -15 4t-4 14v495q0 17 15 17h101q14 0 14 -16v-492zM143 676q-9 11 -13 11t-15 -11l-53 -52q-5 -6 -8.5 -7t-12.5 -1h-72q-8 0 -8 5q0 4 6 10l106 105q6 6 12.5 9t17.5 3h61q12 0 23 -11l105 -106q7 -7 7 -11t-9 -4h-77
q-14 0 -21 8z" />
    <glyph glyph-name="idieresis" unicode="&#xef;" horiz-adv-x="256" 
d="M193 22q0 -12 -5.5 -17t-18.5 -5h-87q-11 0 -15 4t-4 14v495q0 17 15 17h101q14 0 14 -16v-492zM97 637q0 -10 -5 -14t-16 -4h-80q-10 0 -13.5 4t-3.5 12v91q0 16 13 16h92q13 0 13 -14v-91zM281 637q0 -10 -5 -14t-17 -4h-79q-10 0 -13.5 3.5t-3.5 12.5v91q0 16 13 16
h92q13 0 13 -14v-91z" />
    <glyph glyph-name="eth" unicode="&#xf0;" horiz-adv-x="599" 
d="M530.5 123.5q-32.5 -63.5 -92.5 -98.5t-140 -35q-76 0 -136 34t-93 93.5t-33 134.5q0 77 34 138t93 95.5t133 34.5q49 0 76 -27q-37 70 -111 122l-128 -72q-6 -2 -7 -2q-6 0 -12 9l-12 19q-4 5 -4 10t5 7l108 60q-48 27 -95 44q-5 2 -5.5 5t3.5 7l55 44q6 6 11 6l9 -2
q70 -23 119 -50l87 49q4 3 8 2.5t6 -3.5l18 -31q4 -7 -3 -11l-65 -37q102 -70 153 -172.5t51 -226.5q0 -83 -32.5 -146.5zM396 126.5q35 47.5 35 128.5q0 82 -35.5 130.5t-95.5 48.5t-96 -48.5t-36 -130.5q0 -81 36 -128.5t96 -47.5q61 0 96 47.5z" />
    <glyph glyph-name="ntilde" unicode="&#xf1;" horiz-adv-x="592" 
d="M67 4q-4 4 -4 14v495q0 17 14 17h100q13 0 13 -15v-52q0 -6 3 -7t8 3q47 41 87.5 61t87.5 20q74 0 116.5 -42.5t42.5 -112.5v-364q0 -21 -21 -21h-92q-10 0 -13.5 4t-3.5 14v344q0 39 -21.5 60.5t-62.5 21.5q-35 0 -63.5 -16t-64.5 -52v-356q0 -11 -5 -15.5t-18 -4.5h-89
q-10 0 -14 4zM376 637q-32 0 -75 15q-4 1 -24.5 7t-41.5 6q-20 0 -33.5 -5.5t-30.5 -17.5q-8 -4 -9 -4q-6 0 -9 10l-13 38q-1 3 -1 8q0 6 7 13q20 17 39 25.5t46 8.5q30 0 78 -16q17 -5 34.5 -9.5t32.5 -4.5q32 0 65 23q6 4 9 4q7 0 10 -11l12 -44l1 -5q0 -9 -11 -16
q-38 -25 -86 -25z" />
    <glyph glyph-name="ograve" unicode="&#xf2;" horiz-adv-x="599" 
d="M162 24.5q-60 34.5 -93 96.5t-33 141q0 81 34 144.5t94 98.5t136 35q77 0 137 -35.5t93 -98.5t33 -143q0 -79 -33.5 -141t-93.5 -97t-137 -35t-137 34.5zM397.5 127q33.5 48 33.5 138q0 91 -34 140t-97 49t-97.5 -49t-34.5 -140q0 -90 34.5 -138t97.5 -48q64 0 97.5 48z
M181.5 750.5q4.5 2.5 9.5 0.5l234 -98q11 -5 5 -18l-10 -31q-4 -10 -13 -10q-5 0 -8 1l-231 65q-15 5 -15 15l2 8l20 60q2 5 6.5 7.5z" />
    <glyph glyph-name="oacute" unicode="&#xf3;" horiz-adv-x="599" 
d="M162 24.5q-60 34.5 -93 96.5t-33 141q0 81 34 144.5t94 98.5t136 35q77 0 137 -35.5t93 -98.5t33 -143q0 -79 -33.5 -141t-93.5 -97t-137 -35t-137 34.5zM397.5 127q33.5 48 33.5 138q0 91 -34 140t-97 49t-97.5 -49t-34.5 -140q0 -90 34.5 -138t97.5 -48q64 0 97.5 48z
M437 683l2 -8q0 -10 -15 -15l-231 -65q-3 -1 -8 -1q-9 0 -13 10l-10 31q-2 6 -2 8q0 7 7 10l234 98q2 1 5 1q7 0 11 -9z" />
    <glyph glyph-name="ocircumflex" unicode="&#xf4;" horiz-adv-x="599" 
d="M162 24.5q-60 34.5 -93 96.5t-33 141q0 81 34 144.5t94 98.5t136 35q77 0 137 -35.5t93 -98.5t33 -143q0 -79 -33.5 -141t-93.5 -97t-137 -35t-137 34.5zM397.5 127q33.5 48 33.5 138q0 91 -34 140t-97 49t-97.5 -49t-34.5 -140q0 -90 34.5 -138t97.5 -48q64 0 97.5 48z
M313 676q-9 11 -13 11t-15 -11l-53 -52q-5 -6 -8.5 -7t-12.5 -1h-72q-8 0 -8 5q0 4 6 10l106 105q6 6 12.5 9t17.5 3h61q12 0 23 -11l105 -106q7 -7 7 -11t-9 -4h-77q-14 0 -21 8z" />
    <glyph glyph-name="otilde" unicode="&#xf5;" horiz-adv-x="599" 
d="M162 24.5q-60 34.5 -93 96.5t-33 141q0 81 34 144.5t94 98.5t136 35q77 0 137 -35.5t93 -98.5t33 -143q0 -79 -33.5 -141t-93.5 -97t-137 -35t-137 34.5zM397.5 127q33.5 48 33.5 138q0 91 -34 140t-97 49t-97.5 -49t-34.5 -140q0 -90 34.5 -138t97.5 -48q64 0 97.5 48z
M372 637q-32 0 -75 15q-4 1 -24.5 7t-41.5 6q-20 0 -33.5 -5.5t-30.5 -17.5q-8 -4 -9 -4q-6 0 -9 10l-13 38q-1 3 -1 8q0 6 7 13q20 17 39 25.5t46 8.5q30 0 78 -16q17 -5 34.5 -9.5t32.5 -4.5q32 0 65 23q6 4 9 4q7 0 10 -11l12 -44l1 -5q0 -9 -11 -16q-38 -25 -86 -25z
" />
    <glyph glyph-name="odieresis" unicode="&#xf6;" horiz-adv-x="599" 
d="M162 24.5q-60 34.5 -93 96.5t-33 141q0 81 34 144.5t94 98.5t136 35q77 0 137 -35.5t93 -98.5t33 -143q0 -79 -33.5 -141t-93.5 -97t-137 -35t-137 34.5zM397.5 127q33.5 48 33.5 138q0 91 -34 140t-97 49t-97.5 -49t-34.5 -140q0 -90 34.5 -138t97.5 -48q64 0 97.5 48z
M267 637q0 -10 -5 -14t-16 -4h-80q-10 0 -13.5 4t-3.5 12v91q0 16 13 16h92q13 0 13 -14v-91zM451 637q0 -10 -5 -14t-17 -4h-79q-10 0 -13.5 3.5t-3.5 12.5v91q0 16 13 16h92q13 0 13 -14v-91z" />
    <glyph glyph-name="divide" unicode="&#xf7;" horiz-adv-x="575" 
d="M360 518q0 -11 -5 -15t-18 -4h-102q-10 0 -14 4t-4 13v105q0 15 13 15h118q12 0 12 -14v-104zM522 345q0 -20 -23 -20h-428q-10 0 -14 4t-4 13v63q0 16 13 16h443q13 0 13 -14v-62zM360 130q0 -11 -5 -15.5t-18 -4.5h-102q-10 0 -14 4t-4 13v105q0 15 13 15h118
q12 0 12 -13v-104z" />
    <glyph glyph-name="oslash" unicode="&#xf8;" horiz-adv-x="591" 
d="M572 488q0 -5 -6 -11l-51 -48q47 -70 47 -166q0 -79 -33.5 -141t-93.5 -97t-137 -35q-53 0 -98 16.5t-79 46.5l-46 -44q-9 -9 -16 -9t-15 9l-15 16q-9 9 -9 16t7 13l51 49q-43 68 -43 159q0 81 34 144.5t94 98.5t136 35q103 0 173 -61l45 43q8 8 15 8q5 0 10 -5l25 -26
q5 -5 5 -11zM174 194l221 212q-34 48 -96 48q-63 0 -97.5 -49t-34.5 -140q0 -42 7 -71zM423 340l-223 -211q35 -50 99 -50t97.5 48t33.5 138q0 37 -7 75z" />
    <glyph glyph-name="ugrave" unicode="&#xf9;" horiz-adv-x="588" 
d="M395 154v356q0 20 23 20h90q18 0 18 -19l-2 -495q0 -16 -14 -16h-98q-14 0 -14 15v53q0 5 -3 6t-7 -3q-46 -44 -87.5 -62.5t-88.5 -18.5q-68 0 -111.5 43t-43.5 115v361q0 21 21 21h92q9 0 13 -4.5t4 -14.5v-341q0 -39 22 -62t59 -23q61 0 127 69zM166.5 750.5
q4.5 2.5 9.5 0.5l234 -98q11 -5 5 -18l-10 -31q-4 -10 -13 -10q-5 0 -8 1l-231 65q-15 5 -15 15l2 8l20 60q2 5 6.5 7.5z" />
    <glyph glyph-name="uacute" unicode="&#xfa;" horiz-adv-x="588" 
d="M395 154v356q0 20 23 20h90q18 0 18 -19l-2 -495q0 -16 -14 -16h-98q-14 0 -14 15v53q0 5 -3 6t-7 -3q-46 -44 -87.5 -62.5t-88.5 -18.5q-68 0 -111.5 43t-43.5 115v361q0 21 21 21h92q9 0 13 -4.5t4 -14.5v-341q0 -39 22 -62t59 -23q61 0 127 69zM422 683l2 -8
q0 -10 -15 -15l-231 -65q-3 -1 -8 -1q-9 0 -13 10l-10 31q-2 6 -2 8q0 7 7 10l234 98q2 1 5 1q7 0 11 -9z" />
    <glyph glyph-name="ucircumflex" unicode="&#xfb;" horiz-adv-x="588" 
d="M395 154v356q0 20 23 20h90q18 0 18 -19l-2 -495q0 -16 -14 -16h-98q-14 0 -14 15v53q0 5 -3 6t-7 -3q-46 -44 -87.5 -62.5t-88.5 -18.5q-68 0 -111.5 43t-43.5 115v361q0 21 21 21h92q9 0 13 -4.5t4 -14.5v-341q0 -39 22 -62t59 -23q61 0 127 69zM298 676q-9 11 -13 11
t-15 -11l-53 -52q-5 -6 -8.5 -7t-12.5 -1h-72q-8 0 -8 5q0 4 6 10l106 105q6 6 12.5 9t17.5 3h61q12 0 23 -11l105 -106q7 -7 7 -11t-9 -4h-77q-14 0 -21 8z" />
    <glyph glyph-name="udieresis" unicode="&#xfc;" horiz-adv-x="588" 
d="M395 154v356q0 20 23 20h90q18 0 18 -19l-2 -495q0 -16 -14 -16h-98q-14 0 -14 15v53q0 5 -3 6t-7 -3q-46 -44 -87.5 -62.5t-88.5 -18.5q-68 0 -111.5 43t-43.5 115v361q0 21 21 21h92q9 0 13 -4.5t4 -14.5v-341q0 -39 22 -62t59 -23q61 0 127 69zM252 637q0 -10 -5 -14
t-16 -4h-80q-10 0 -13.5 4t-3.5 12v91q0 16 13 16h92q13 0 13 -14v-91zM436 637q0 -10 -5 -14t-17 -4h-79q-10 0 -13.5 3.5t-3.5 12.5v91q0 16 13 16h92q13 0 13 -14v-91z" />
    <glyph glyph-name="yacute" unicode="&#xfd;" horiz-adv-x="554" 
d="M58 -162q-13 3 -13 14v64q0 15 29 15h66q32 0 55 27t23 57q0 10 -3 19l-192 474q-1 2 -1 7q0 6 4.5 10.5t11.5 4.5h104q7 0 12.5 -4t7.5 -11l124 -329q3 -9 8 -9t9 11l123 328q7 14 19 14h73q8 0 11.5 -6.5t0.5 -13.5l-210 -526q-25 -61 -53.5 -93t-66 -44t-95.5 -12
q-34 0 -47 3zM432 683l2 -8q0 -10 -15 -15l-231 -65q-3 -1 -8 -1q-9 0 -13 10l-10 31q-2 6 -2 8q0 7 7 10l234 98q2 1 5 1q7 0 11 -9z" />
    <glyph glyph-name="thorn" unicode="&#xfe;" horiz-adv-x="603" 
d="M193 724v-246q0 -8 5 -8q3 0 8 5q32 30 64.5 47.5t85.5 17.5q61 0 108.5 -30t74.5 -90.5t27 -148.5q0 -137 -60 -209t-159 -72q-80 0 -136 51q-10 8 -13 8q-5 0 -5 -14v-184q0 -16 -14 -16h-102q-14 0 -14 16v871q0 11 4.5 15.5t15.5 4.5h91q19 0 19 -18zM302 75
q62 0 97 48.5t35 148.5q0 96 -34.5 139.5t-93.5 43.5q-32 0 -58 -13.5t-40.5 -34.5t-14.5 -44v-233q50 -55 109 -55z" />
    <glyph glyph-name="ydieresis" unicode="&#xff;" horiz-adv-x="554" 
d="M58 -162q-13 3 -13 14v64q0 15 29 15h66q32 0 55 27t23 57q0 10 -3 19l-192 474q-1 2 -1 7q0 6 4.5 10.5t11.5 4.5h104q7 0 12.5 -4t7.5 -11l124 -329q3 -9 8 -9t9 11l123 328q7 14 19 14h73q8 0 11.5 -6.5t0.5 -13.5l-210 -526q-25 -61 -53.5 -93t-66 -44t-95.5 -12
q-34 0 -47 3zM262 637q0 -10 -5 -14t-16 -4h-80q-10 0 -13.5 4t-3.5 12v91q0 16 13 16h92q13 0 13 -14v-91zM446 637q0 -10 -5 -14t-17 -4h-79q-10 0 -13.5 3.5t-3.5 12.5v91q0 16 13 16h92q13 0 13 -14v-91z" />
    <glyph glyph-name="Amacron" unicode="&#x100;" horiz-adv-x="756" 
d="M37 14q0 3 2 11l252 699q4 10 9 14t15 4h125q22 0 28 -20l250 -698q2 -6 2 -9q0 -6 -3.5 -10.5t-9.5 -4.5h-121q-14 0 -18 13l-58 162q-2 5 -4 7.5t-8 2.5h-261q-9 0 -12 -9l-60 -164q-3 -12 -18 -12h-97q-13 0 -13 14zM462 298q9 0 9 8q0 5 -1 8l-96 267q-3 7 -7 7
t-7 -8l-97 -266q-2 -6 -2 -9q0 -7 10 -7h191zM545 876q0 -17 -20 -17h-306q-9 0 -12 4t-3 12v56q0 14 11 14h319q11 0 11 -12v-57z" />
    <glyph glyph-name="amacron" unicode="&#x101;" horiz-adv-x="558" 
d="M196 -10q-76 0 -120.5 40.5t-44.5 105.5q0 83 74 132t207 54l50 3q16 2 16 15v23q0 44 -26.5 68.5t-72.5 24.5q-76 0 -117 -66q-3 -4 -5.5 -6.5t-6.5 -2.5q-5 0 -8 1l-84 21q-8 2 -8 9q0 5 4 13q26 56 85.5 85.5t145.5 29.5q112 0 164.5 -44t52.5 -124v-352
q0 -11 -3.5 -15.5t-13.5 -4.5h-85q-9 0 -13 6t-6 18l-1 30q-1 9 -7 9q-3 0 -13 -8q-70 -65 -164 -65zM374.5 255q-3.5 4 -11.5 4l-41 -3q-70 -5 -116.5 -31.5t-46.5 -72.5q0 -34 24.5 -54t65.5 -20q52 0 91 32q38 30 38 61v71q0 9 -3.5 13zM453 664q0 -17 -20 -17h-306
q-9 0 -12 4t-3 12v56q0 14 11 14h319q11 0 11 -12v-57z" />
    <glyph glyph-name="Abreve" unicode="&#x102;" horiz-adv-x="756" 
d="M37 14q0 3 2 11l252 699q4 10 9 14t15 4h125q22 0 28 -20l250 -698q2 -6 2 -9q0 -6 -3.5 -10.5t-9.5 -4.5h-121q-14 0 -18 13l-58 162q-2 5 -4 7.5t-8 2.5h-261q-9 0 -12 -9l-60 -164q-3 -12 -18 -12h-97q-13 0 -13 14zM462 298q9 0 9 8q0 5 -1 8l-96 267q-3 7 -7 7
t-7 -8l-97 -266q-2 -6 -2 -9q0 -7 10 -7h191zM541.5 950.5q2.5 -3.5 0.5 -10.5q-15 -49 -60.5 -79.5t-107.5 -30.5t-106.5 30t-59.5 82q-1 1 -1 4q0 8 9 8h58q7 0 10.5 -2t8.5 -9q32 -45 81 -45q26 0 48.5 13.5t34.5 32.5q3 6 6.5 8t8.5 2h59q8 0 10.5 -3.5z" />
    <glyph glyph-name="abreve" unicode="&#x103;" horiz-adv-x="558" 
d="M196 -10q-76 0 -120.5 40.5t-44.5 105.5q0 83 74 132t207 54l50 3q16 2 16 15v23q0 44 -26.5 68.5t-72.5 24.5q-76 0 -117 -66q-3 -4 -5.5 -6.5t-6.5 -2.5q-5 0 -8 1l-84 21q-8 2 -8 9q0 5 4 13q26 56 85.5 85.5t145.5 29.5q112 0 164.5 -44t52.5 -124v-352
q0 -11 -3.5 -15.5t-13.5 -4.5h-85q-9 0 -13 6t-6 18l-1 30q-1 9 -7 9q-3 0 -13 -8q-70 -65 -164 -65zM374.5 255q-3.5 4 -11.5 4l-41 -3q-70 -5 -116.5 -31.5t-46.5 -72.5q0 -34 24.5 -54t65.5 -20q52 0 91 32q38 30 38 61v71q0 9 -3.5 13zM449.5 738.5q2.5 -3.5 0.5 -10.5
q-15 -49 -60.5 -79.5t-107.5 -30.5t-106.5 30t-59.5 82q-1 1 -1 4q0 8 9 8h58q7 0 10.5 -2t8.5 -9q32 -45 81 -45q26 0 48.5 13.5t34.5 32.5q3 6 6.5 8t8.5 2h59q8 0 10.5 -3.5z" />
    <glyph glyph-name="Aogonek" unicode="&#x104;" horiz-adv-x="756" 
d="M727 -93q6 0 6 -9v-38q0 -9 -8 -14q-14 -7 -40.5 -12.5t-55.5 -5.5q-51 0 -79.5 21.5t-28.5 61.5q0 28 18 49.5t63 39.5h-16q-14 0 -18 13l-58 162q-2 5 -4 7.5t-8 2.5h-261q-9 0 -12 -9l-60 -164q-3 -12 -18 -12h-97q-13 0 -13 14q0 3 2 11l252 699q4 10 9 14t15 4h125
q22 0 28 -20l250 -698q2 -6 2 -9q0 -6 -3.5 -10.5t-9.5 -4.5h-1q-49 -19 -68.5 -36t-19.5 -38q0 -18 9.5 -26.5t31.5 -8.5q32 0 60 14q3 2 8 2zM471 306q0 5 -1 8l-96 267q-3 7 -7 7t-7 -8l-97 -266q-2 -6 -2 -9q0 -7 10 -7h191q9 0 9 8z" />
    <glyph glyph-name="aogonek" unicode="&#x105;" horiz-adv-x="558" 
d="M512 -91q6 0 6 -9v-38q0 -9 -8 -14q-14 -7 -40.5 -12.5t-55.5 -5.5q-51 0 -79.5 21.5t-28.5 61.5q0 28 18.5 50t65.5 40q-7 6 -9 21l-1 30q-1 9 -7 9q-3 0 -13 -8q-70 -65 -164 -65q-76 0 -120.5 40.5t-44.5 105.5q0 83 74 132t207 54l50 3q16 2 16 15v23
q0 44 -26.5 68.5t-72.5 24.5q-76 0 -117 -66q-3 -4 -5.5 -6.5t-6.5 -2.5q-5 0 -8 1l-84 21q-8 2 -8 9q0 5 4 13q26 56 85.5 85.5t145.5 29.5q112 0 164.5 -44t52.5 -124v-352q0 -10 -3 -15q-5 -5 -13 -5q-46 -18 -64.5 -34.5t-18.5 -37.5q0 -18 9.5 -26.5t31.5 -8.5
q32 0 60 14q3 2 8 2zM378 242q0 9 -3.5 13t-11.5 4l-41 -3q-70 -5 -116.5 -31.5t-46.5 -72.5q0 -34 24.5 -54t65.5 -20q52 0 91 32q38 30 38 61v71z" />
    <glyph glyph-name="Cacute" unicode="&#x106;" horiz-adv-x="719" 
d="M516.5 723.5q62.5 -28.5 103 -77.5t50.5 -109q1 -5 1 -12q0 -6 -2.5 -8t-8.5 -3l-114 -8q-7 0 -9.5 2.5t-4.5 11.5q-12 58 -50 92.5t-97 34.5q-179 0 -179 -274q0 -139 45 -205.5t137 -66.5q64 0 107.5 31.5t70.5 101.5q3 8 18 5l85 -18q5 -2 8 -6.5t1 -15.5
q-12 -45 -48.5 -93t-99.5 -82t-148 -34q-101 0 -176 47.5t-115 135t-40 202.5q0 116 40 201t114.5 130.5t175.5 45.5q73 0 135.5 -28.5zM518 895l2 -8q0 -10 -15 -15l-231 -65q-3 -1 -8 -1q-9 0 -13 10l-10 31q-2 6 -2 8q0 7 7 10l234 98q2 1 5 1q7 0 11 -9z" />
    <glyph glyph-name="cacute" unicode="&#x107;" horiz-adv-x="548" 
d="M437 499q56 -41 80 -101l2 -9q0 -8 -12 -10l-88 -11l-4 -1q-7 0 -10 10q-24 39 -45.5 57.5t-57.5 18.5q-62 0 -98 -49t-36 -139q0 -92 37 -140.5t103 -48.5q43 0 72 22t56 67q3 4 6.5 5t9.5 -1l63 -17q10 -3 6 -17q-25 -58 -81 -101.5t-143 -43.5q-75 0 -134.5 34.5
t-93 96.5t-33.5 142q0 81 34 144t93.5 98t133.5 35q84 0 140 -41zM434 683l2 -8q0 -10 -15 -15l-231 -65q-3 -1 -8 -1q-9 0 -13 10l-10 31q-2 6 -2 8q0 7 7 10l234 98q2 1 5 1q7 0 11 -9z" />
    <glyph glyph-name="Ccircumflex" unicode="&#x108;" horiz-adv-x="719" 
d="M516.5 723.5q62.5 -28.5 103 -77.5t50.5 -109q1 -5 1 -12q0 -6 -2.5 -8t-8.5 -3l-114 -8q-7 0 -9.5 2.5t-4.5 11.5q-12 58 -50 92.5t-97 34.5q-179 0 -179 -274q0 -139 45 -205.5t137 -66.5q64 0 107.5 31.5t70.5 101.5q3 8 18 5l85 -18q5 -2 8 -6.5t1 -15.5
q-12 -45 -48.5 -93t-99.5 -82t-148 -34q-101 0 -176 47.5t-115 135t-40 202.5q0 116 40 201t114.5 130.5t175.5 45.5q73 0 135.5 -28.5zM394 888q-9 11 -13 11t-15 -11l-53 -52q-5 -6 -8.5 -7t-12.5 -1h-72q-8 0 -8 5q0 4 6 10l106 105q6 6 12.5 9t17.5 3h61q12 0 23 -11
l105 -106q7 -7 7 -11t-9 -4h-77q-14 0 -21 8z" />
    <glyph glyph-name="ccircumflex" unicode="&#x109;" horiz-adv-x="548" 
d="M437 499q56 -41 80 -101l2 -9q0 -8 -12 -10l-88 -11l-4 -1q-7 0 -10 10q-24 39 -45.5 57.5t-57.5 18.5q-62 0 -98 -49t-36 -139q0 -92 37 -140.5t103 -48.5q43 0 72 22t56 67q3 4 6.5 5t9.5 -1l63 -17q10 -3 6 -17q-25 -58 -81 -101.5t-143 -43.5q-75 0 -134.5 34.5
t-93 96.5t-33.5 142q0 81 34 144t93.5 98t133.5 35q84 0 140 -41zM310 676q-9 11 -13 11t-15 -11l-53 -52q-5 -6 -8.5 -7t-12.5 -1h-72q-8 0 -8 5q0 4 6 10l106 105q6 6 12.5 9t17.5 3h61q12 0 23 -11l105 -106q7 -7 7 -11t-9 -4h-77q-14 0 -21 8z" />
    <glyph glyph-name="Cdotaccent" unicode="&#x10a;" horiz-adv-x="719" 
d="M516.5 723.5q62.5 -28.5 103 -77.5t50.5 -109q1 -5 1 -12q0 -6 -2.5 -8t-8.5 -3l-114 -8q-7 0 -9.5 2.5t-4.5 11.5q-12 58 -50 92.5t-97 34.5q-179 0 -179 -274q0 -139 45 -205.5t137 -66.5q64 0 107.5 31.5t70.5 101.5q3 8 18 5l85 -18q5 -2 8 -6.5t1 -15.5
q-12 -45 -48.5 -93t-99.5 -82t-148 -34q-101 0 -176 47.5t-115 135t-40 202.5q0 116 40 201t114.5 130.5t175.5 45.5q73 0 135.5 -28.5zM448 838q0 -11 -5 -16t-18 -5h-92q-11 0 -15 4.5t-4 14.5v101q0 17 15 17h105q14 0 14 -16v-100z" />
    <glyph glyph-name="cdotaccent" unicode="&#x10b;" horiz-adv-x="548" 
d="M437 499q56 -41 80 -101l2 -9q0 -8 -12 -10l-88 -11l-4 -1q-7 0 -10 10q-24 39 -45.5 57.5t-57.5 18.5q-62 0 -98 -49t-36 -139q0 -92 37 -140.5t103 -48.5q43 0 72 22t56 67q3 4 6.5 5t9.5 -1l63 -17q10 -3 6 -17q-25 -58 -81 -101.5t-143 -43.5q-75 0 -134.5 34.5
t-93 96.5t-33.5 142q0 81 34 144t93.5 98t133.5 35q84 0 140 -41zM364 626q0 -11 -5 -16t-18 -5h-92q-11 0 -15 4.5t-4 14.5v101q0 17 15 17h105q14 0 14 -16v-100z" />
    <glyph glyph-name="Ccaron" unicode="&#x10c;" horiz-adv-x="719" 
d="M516.5 723.5q62.5 -28.5 103 -77.5t50.5 -109q1 -5 1 -12q0 -6 -2.5 -8t-8.5 -3l-114 -8q-7 0 -9.5 2.5t-4.5 11.5q-12 58 -50 92.5t-97 34.5q-179 0 -179 -274q0 -139 45 -205.5t137 -66.5q64 0 107.5 31.5t70.5 101.5q3 8 18 5l85 -18q5 -2 8 -6.5t1 -15.5
q-12 -45 -48.5 -93t-99.5 -82t-148 -34q-101 0 -176 47.5t-115 135t-40 202.5q0 116 40 201t114.5 130.5t175.5 45.5q73 0 135.5 -28.5zM464 955h77q9 0 9 -4t-7 -11l-105 -106q-11 -11 -23 -11h-61q-11 0 -17.5 3t-12.5 9l-106 105q-6 6 -6 10q0 5 8 5h72q9 0 12.5 -1
t8.5 -7l53 -52q11 -11 15 -11t13 11l49 52q7 8 21 8z" />
    <glyph glyph-name="ccaron" unicode="&#x10d;" horiz-adv-x="548" 
d="M437 499q56 -41 80 -101l2 -9q0 -8 -12 -10l-88 -11l-4 -1q-7 0 -10 10q-24 39 -45.5 57.5t-57.5 18.5q-62 0 -98 -49t-36 -139q0 -92 37 -140.5t103 -48.5q43 0 72 22t56 67q3 4 6.5 5t9.5 -1l63 -17q10 -3 6 -17q-25 -58 -81 -101.5t-143 -43.5q-75 0 -134.5 34.5
t-93 96.5t-33.5 142q0 81 34 144t93.5 98t133.5 35q84 0 140 -41zM380 743h77q9 0 9 -4t-7 -11l-105 -106q-11 -11 -23 -11h-61q-11 0 -17.5 3t-12.5 9l-106 105q-6 6 -6 10q0 5 8 5h72q9 0 12.5 -1t8.5 -7l53 -52q11 -11 15 -11t13 11l49 52q7 8 21 8z" />
    <glyph glyph-name="Dcaron" unicode="&#x10e;" horiz-adv-x="741" 
d="M299 741q391 -9 391 -367q0 -179 -100.5 -276.5t-297.5 -97.5h-193q-20 0 -20 21v703q0 10 4 14t15 4q143 0 201 -1zM227 622v-504q0 -7 3 -9.5t10 -2.5h25q141 0 205.5 62t64.5 206q0 93 -26 148.5t-77.5 81.5t-134.5 30l-61 2q-9 0 -9 -14zM449 955h77q9 0 9 -4t-7 -11
l-105 -106q-11 -11 -23 -11h-61q-11 0 -17.5 3t-12.5 9l-106 105q-6 6 -6 10q0 5 8 5h72q9 0 12.5 -1t8.5 -7l53 -52q11 -11 15 -11t13 11l49 52q7 8 21 8z" />
    <glyph glyph-name="dcaron" unicode="&#x10f;" horiz-adv-x="724" 
d="M415 18v33q0 9 -5 9q-3 0 -8 -5q-29 -28 -64.5 -46.5t-86.5 -18.5q-62 0 -110 30.5t-75.5 91t-27.5 148.5q0 82 29.5 146t80.5 99t114 35q42 0 73.5 -13.5t60.5 -39.5q5 -5 11 -5t6 13v231q0 16 14 16h101q15 0 15 -17v-706q0 -10 -4.5 -14.5t-16.5 -4.5h-88
q-19 0 -19 18zM360.5 440.5q-25.5 13.5 -57.5 13.5q-60 0 -96.5 -48.5t-36.5 -143.5q0 -96 35.5 -142t94.5 -46q31 0 57 14.5t41 37.5t15 47v226q-27 28 -52.5 41.5zM604.5 530.5q-2.5 3.5 -0.5 8.5l30 74q3 6 3 9q0 4 -8 6l-9 2q-8 1 -10.5 3.5t-2.5 9.5v87q0 12 10 12h73
q10 0 10 -10v-102q0 -3 -1 -4.5t-1 -3.5l-36 -83q-2 -7 -7 -9.5t-16 -2.5h-27q-5 0 -7.5 3.5z" />
    <glyph glyph-name="Dcroat" unicode="&#x110;" horiz-adv-x="753" 
d="M701 374q0 -179 -100.5 -276.5t-297.5 -97.5h-193q-20 0 -20 21v298h-42q-11 0 -15 4.5t-4 14.5v62q0 17 14 17h47v307q0 10 4 14t15 4q143 0 201 -1q391 -9 391 -367zM481.5 168q64.5 62 64.5 206q0 93 -26 148.5t-77.5 81.5t-134.5 30l-61 2q-9 0 -9 -14v-205h141
q14 0 14 -15v-62q0 -21 -25 -21h-130v-201q0 -7 3 -9.5t10 -2.5h25q141 0 205.5 62z" />
    <glyph glyph-name="dcroat" unicode="&#x111;" horiz-adv-x="616" 
d="M597 663v-45q0 -10 -4.5 -13.5t-15.5 -3.5h-34v-582q0 -10 -4.5 -14.5t-16.5 -4.5h-88q-19 0 -19 18v33q0 9 -5 9q-3 0 -8 -5q-29 -28 -64.5 -46.5t-86.5 -18.5q-62 0 -110 30.5t-75.5 91t-27.5 148.5q0 82 29.5 146t80.5 99t114 35q42 0 73.5 -13.5t60.5 -39.5
q5 -5 11 -5t6 13v106h-135q-9 0 -12.5 3.5t-3.5 11.5v46q0 14 11 14h140v50q0 16 14 16h101q15 0 15 -17v-49h43q11 0 11 -13zM413 399q-27 28 -52.5 41.5t-57.5 13.5q-60 0 -96.5 -48.5t-36.5 -143.5q0 -96 35.5 -142t94.5 -46q31 0 57 14.5t41 37.5t15 47v226z" />
    <glyph glyph-name="Emacron" unicode="&#x112;" horiz-adv-x="645" 
d="M94 742h485q13 0 13 -15v-76q0 -19 -18 -19h-330q-17 0 -17 -14v-175q0 -15 14 -15h228q15 0 15 -15v-81q0 -12 -14 -12h-230q-13 0 -13 -12v-186q0 -7 2.5 -9.5t8.5 -2.5h350q9 0 12.5 -3t3.5 -11v-81q0 -6 -4 -10.5t-13 -4.5h-489q-10 0 -14.5 4t-4.5 14v707
q0 17 15 17zM510 876q0 -17 -20 -17h-306q-9 0 -12 4t-3 12v56q0 14 11 14h319q11 0 11 -12v-57z" />
    <glyph glyph-name="emacron" unicode="&#x113;" horiz-adv-x="584" 
d="M190 150.5q19 -32.5 52.5 -51t73.5 -18.5q41 0 74.5 17.5t63.5 54.5q5 5 8 5t9 -3l61 -27q7 -3 7 -9q0 -3 -4 -9q-45 -65 -99.5 -92.5t-134.5 -27.5q-76 0 -136.5 34t-94.5 95t-34 139q0 84 35 148t95 99t133 35q75 0 132.5 -33t89 -95.5t31.5 -148.5v-4q0 -10 -3 -14
t-13 -5h-354q-11 0 -11 -16q0 -41 19 -73.5zM408 314q10 0 13.5 2.5t3.5 11.5q0 32 -14 62t-41.5 49t-65.5 19q-59 0 -95.5 -41.5t-35.5 -102.5h235zM469 664q0 -17 -20 -17h-306q-9 0 -12 4t-3 12v56q0 14 11 14h319q11 0 11 -12v-57z" />
    <glyph glyph-name="Ebreve" unicode="&#x114;" horiz-adv-x="645" 
d="M94 742h485q13 0 13 -15v-76q0 -19 -18 -19h-330q-17 0 -17 -14v-175q0 -15 14 -15h228q15 0 15 -15v-81q0 -12 -14 -12h-230q-13 0 -13 -12v-186q0 -7 2.5 -9.5t8.5 -2.5h350q9 0 12.5 -3t3.5 -11v-81q0 -6 -4 -10.5t-13 -4.5h-489q-10 0 -14.5 4t-4.5 14v707
q0 17 15 17zM506.5 950.5q2.5 -3.5 0.5 -10.5q-15 -49 -60.5 -79.5t-107.5 -30.5t-106.5 30t-59.5 82q-1 1 -1 4q0 8 9 8h58q7 0 10.5 -2t8.5 -9q32 -45 81 -45q26 0 48.5 13.5t34.5 32.5q3 6 6.5 8t8.5 2h59q8 0 10.5 -3.5z" />
    <glyph glyph-name="ebreve" unicode="&#x115;" horiz-adv-x="584" 
d="M190 150.5q19 -32.5 52.5 -51t73.5 -18.5q41 0 74.5 17.5t63.5 54.5q5 5 8 5t9 -3l61 -27q7 -3 7 -9q0 -3 -4 -9q-45 -65 -99.5 -92.5t-134.5 -27.5q-76 0 -136.5 34t-94.5 95t-34 139q0 84 35 148t95 99t133 35q75 0 132.5 -33t89 -95.5t31.5 -148.5v-4q0 -10 -3 -14
t-13 -5h-354q-11 0 -11 -16q0 -41 19 -73.5zM408 314q10 0 13.5 2.5t3.5 11.5q0 32 -14 62t-41.5 49t-65.5 19q-59 0 -95.5 -41.5t-35.5 -102.5h235zM465.5 738.5q2.5 -3.5 0.5 -10.5q-15 -49 -60.5 -79.5t-107.5 -30.5t-106.5 30t-59.5 82q-1 1 -1 4q0 8 9 8h58
q7 0 10.5 -2t8.5 -9q32 -45 81 -45q26 0 48.5 13.5t34.5 32.5q3 6 6.5 8t8.5 2h59q8 0 10.5 -3.5z" />
    <glyph glyph-name="Edotaccent" unicode="&#x116;" horiz-adv-x="645" 
d="M94 742h485q13 0 13 -15v-76q0 -19 -18 -19h-330q-17 0 -17 -14v-175q0 -15 14 -15h228q15 0 15 -15v-81q0 -12 -14 -12h-230q-13 0 -13 -12v-186q0 -7 2.5 -9.5t8.5 -2.5h350q9 0 12.5 -3t3.5 -11v-81q0 -6 -4 -10.5t-13 -4.5h-489q-10 0 -14.5 4t-4.5 14v707
q0 17 15 17zM407 838q0 -11 -5 -16t-18 -5h-92q-11 0 -15 4.5t-4 14.5v101q0 17 15 17h105q14 0 14 -16v-100z" />
    <glyph glyph-name="edotaccent" unicode="&#x117;" horiz-adv-x="584" 
d="M190 150.5q19 -32.5 52.5 -51t73.5 -18.5q41 0 74.5 17.5t63.5 54.5q5 5 8 5t9 -3l61 -27q7 -3 7 -9q0 -3 -4 -9q-45 -65 -99.5 -92.5t-134.5 -27.5q-76 0 -136.5 34t-94.5 95t-34 139q0 84 35 148t95 99t133 35q75 0 132.5 -33t89 -95.5t31.5 -148.5v-4q0 -10 -3 -14
t-13 -5h-354q-11 0 -11 -16q0 -41 19 -73.5zM408 314q10 0 13.5 2.5t3.5 11.5q0 32 -14 62t-41.5 49t-65.5 19q-59 0 -95.5 -41.5t-35.5 -102.5h235zM349 626q0 -11 -5 -16t-18 -5h-92q-11 0 -15 4.5t-4 14.5v101q0 17 15 17h105q14 0 14 -16v-100z" />
    <glyph glyph-name="Eogonek" unicode="&#x118;" horiz-adv-x="645" 
d="M611 -93q6 0 6 -9v-38q0 -9 -8 -14q-14 -7 -40.5 -12.5t-55.5 -5.5q-51 0 -79.5 21.5t-28.5 61.5q0 28 18 49.5t63 39.5h-388q-10 0 -14.5 4t-4.5 14v707q0 17 15 17h485q13 0 13 -15v-76q0 -19 -18 -19h-330q-17 0 -17 -14v-175q0 -15 14 -15h228q15 0 15 -15v-81
q0 -12 -14 -12h-230q-13 0 -13 -12v-186q0 -7 2.5 -9.5t8.5 -2.5h350q9 0 12.5 -3t3.5 -11v-81q0 -12 -13 -15q-49 -18 -69 -35t-20 -39q0 -18 9.5 -26.5t31.5 -8.5q32 0 60 14q3 2 8 2z" />
    <glyph glyph-name="eogonek" unicode="&#x119;" horiz-adv-x="584" 
d="M171 224q0 -41 19 -73.5t52.5 -51t73.5 -18.5q41 0 74.5 17.5t63.5 54.5q5 5 8 5t9 -3l61 -27q7 -3 7 -9q0 -3 -4 -9q-30 -44 -63.5 -70t-74.5 -38q-34 -15 -48 -30t-14 -33t9.5 -26.5t31.5 -8.5q32 0 60 14q3 2 8 2q6 0 6 -9v-38q0 -9 -8 -14q-14 -7 -40.5 -12.5
t-55.5 -5.5q-51 0 -79.5 21.5t-28.5 61.5q0 41 38 67q-70 5 -124.5 40.5t-85 94t-30.5 132.5q0 84 35 148t95 99t133 35q75 0 132.5 -33t89 -95.5t31.5 -148.5v-4q0 -10 -3 -14t-13 -5h-354q-11 0 -11 -16zM208.5 416.5q-36.5 -41.5 -35.5 -102.5h235q10 0 13.5 2.5
t3.5 11.5q0 32 -14 62t-41.5 49t-65.5 19q-59 0 -95.5 -41.5z" />
    <glyph glyph-name="Ecaron" unicode="&#x11a;" horiz-adv-x="645" 
d="M94 742h485q13 0 13 -15v-76q0 -19 -18 -19h-330q-17 0 -17 -14v-175q0 -15 14 -15h228q15 0 15 -15v-81q0 -12 -14 -12h-230q-13 0 -13 -12v-186q0 -7 2.5 -9.5t8.5 -2.5h350q9 0 12.5 -3t3.5 -11v-81q0 -6 -4 -10.5t-13 -4.5h-489q-10 0 -14.5 4t-4.5 14v707
q0 17 15 17zM423 955h77q9 0 9 -4t-7 -11l-105 -106q-11 -11 -23 -11h-61q-11 0 -17.5 3t-12.5 9l-106 105q-6 6 -6 10q0 5 8 5h72q9 0 12.5 -1t8.5 -7l53 -52q11 -11 15 -11t13 11l49 52q7 8 21 8z" />
    <glyph glyph-name="ecaron" unicode="&#x11b;" horiz-adv-x="584" 
d="M190 150.5q19 -32.5 52.5 -51t73.5 -18.5q41 0 74.5 17.5t63.5 54.5q5 5 8 5t9 -3l61 -27q7 -3 7 -9q0 -3 -4 -9q-45 -65 -99.5 -92.5t-134.5 -27.5q-76 0 -136.5 34t-94.5 95t-34 139q0 84 35 148t95 99t133 35q75 0 132.5 -33t89 -95.5t31.5 -148.5v-4q0 -10 -3 -14
t-13 -5h-354q-11 0 -11 -16q0 -41 19 -73.5zM408 314q10 0 13.5 2.5t3.5 11.5q0 32 -14 62t-41.5 49t-65.5 19q-59 0 -95.5 -41.5t-35.5 -102.5h235zM382 743h77q9 0 9 -4t-7 -11l-105 -106q-11 -11 -23 -11h-61q-11 0 -17.5 3t-12.5 9l-106 105q-6 6 -6 10q0 5 8 5h72
q9 0 12.5 -1t8.5 -7l53 -52q11 -11 15 -11t13 11l49 52q7 8 21 8z" />
    <glyph glyph-name="Gcircumflex" unicode="&#x11c;" horiz-adv-x="747" 
d="M204.5 36.5q-73.5 46.5 -113.5 132t-40 199.5q0 117 41.5 204t117 133.5t175.5 46.5q75 0 137.5 -29.5t102 -77t49.5 -101.5l2 -11q0 -10 -12 -12l-111 -17q-8 0 -10.5 3t-4.5 11q-9 55 -51 91.5t-105 36.5q-176 0 -176 -272q0 -144 46 -211t134 -67q70 0 112 40.5
t50 96.5l1 40q1 2 1 5q0 8 -10 8h-136q-8 0 -11 3t-3 12v64q0 12 14 12l260 -1q12 0 18 -5.5t6 -14.5v-342q0 -14 -13 -14h-29q-9 0 -14.5 3t-9.5 12l-22 79q-2 4 -4.5 3.5t-5.5 -4.5q-75 -103 -213 -103q-99 0 -172.5 46.5zM392 888q-9 11 -13 11t-15 -11l-53 -52
q-5 -6 -8.5 -7t-12.5 -1h-72q-8 0 -8 5q0 4 6 10l106 105q6 6 12.5 9t17.5 3h61q12 0 23 -11l105 -106q7 -7 7 -11t-9 -4h-77q-14 0 -21 8z" />
    <glyph glyph-name="gcircumflex" unicode="&#x11d;" horiz-adv-x="622" 
d="M599 528v-56q0 -25 -22 -22q-8 1 -22 1q-15 0 -27 -3q-26 -6 -20 -23q6 -16 9 -26.5t3 -26.5q0 -46 -26.5 -83t-79 -58.5t-127.5 -21.5q-62 0 -89.5 -10t-27.5 -27q0 -14 16.5 -20t55.5 -8l138 -8q95 -5 141.5 -42.5t46.5 -100.5q0 -77 -71.5 -122.5t-203.5 -45.5
q-139 0 -209.5 33.5t-70.5 99.5q0 33 24.5 57.5t70.5 43.5q6 2 6 5t-6 6q-54 24 -54 68q0 26 25 48t66 38q7 4 7 6q0 3 -6 6q-93 44 -93 135q0 77 63.5 122t180.5 45q101 0 156 -45q7 -5 13 -5q7 0 13 6q18 22 47.5 38t52.5 16q20 0 20 -20zM372 302q29 25 29 68
q0 46 -29 72.5t-86 26.5q-54 0 -84.5 -27t-30.5 -72q0 -42 30.5 -67.5t84.5 -25.5q57 0 86 25zM207 42q-30 2 -57.5 -18t-27.5 -49q0 -41 43.5 -62t137.5 -21q73 0 111 20.5t38 59.5q0 58 -86 62zM309 676q-9 11 -13 11t-15 -11l-53 -52q-5 -6 -8.5 -7t-12.5 -1h-72
q-8 0 -8 5q0 4 6 10l106 105q6 6 12.5 9t17.5 3h61q12 0 23 -11l105 -106q7 -7 7 -11t-9 -4h-77q-14 0 -21 8z" />
    <glyph glyph-name="Gbreve" unicode="&#x11e;" horiz-adv-x="747" 
d="M204.5 36.5q-73.5 46.5 -113.5 132t-40 199.5q0 117 41.5 204t117 133.5t175.5 46.5q75 0 137.5 -29.5t102 -77t49.5 -101.5l2 -11q0 -10 -12 -12l-111 -17q-8 0 -10.5 3t-4.5 11q-9 55 -51 91.5t-105 36.5q-176 0 -176 -272q0 -144 46 -211t134 -67q70 0 112 40.5
t50 96.5l1 40q1 2 1 5q0 8 -10 8h-136q-8 0 -11 3t-3 12v64q0 12 14 12l260 -1q12 0 18 -5.5t6 -14.5v-342q0 -14 -13 -14h-29q-9 0 -14.5 3t-9.5 12l-22 79q-2 4 -4.5 3.5t-5.5 -4.5q-75 -103 -213 -103q-99 0 -172.5 46.5zM545.5 950.5q2.5 -3.5 0.5 -10.5
q-15 -49 -60.5 -79.5t-107.5 -30.5t-106.5 30t-59.5 82q-1 1 -1 4q0 8 9 8h58q7 0 10.5 -2t8.5 -9q32 -45 81 -45q26 0 48.5 13.5t34.5 32.5q3 6 6.5 8t8.5 2h59q8 0 10.5 -3.5z" />
    <glyph glyph-name="gbreve" unicode="&#x11f;" horiz-adv-x="622" 
d="M599 528v-56q0 -25 -22 -22q-8 1 -22 1q-15 0 -27 -3q-26 -6 -20 -23q6 -16 9 -26.5t3 -26.5q0 -46 -26.5 -83t-79 -58.5t-127.5 -21.5q-62 0 -89.5 -10t-27.5 -27q0 -14 16.5 -20t55.5 -8l138 -8q95 -5 141.5 -42.5t46.5 -100.5q0 -77 -71.5 -122.5t-203.5 -45.5
q-139 0 -209.5 33.5t-70.5 99.5q0 33 24.5 57.5t70.5 43.5q6 2 6 5t-6 6q-54 24 -54 68q0 26 25 48t66 38q7 4 7 6q0 3 -6 6q-93 44 -93 135q0 77 63.5 122t180.5 45q101 0 156 -45q7 -5 13 -5q7 0 13 6q18 22 47.5 38t52.5 16q20 0 20 -20zM372 302q29 25 29 68
q0 46 -29 72.5t-86 26.5q-54 0 -84.5 -27t-30.5 -72q0 -42 30.5 -67.5t84.5 -25.5q57 0 86 25zM207 42q-30 2 -57.5 -18t-27.5 -49q0 -41 43.5 -62t137.5 -21q73 0 111 20.5t38 59.5q0 58 -86 62zM462.5 738.5q2.5 -3.5 0.5 -10.5q-15 -49 -60.5 -79.5t-107.5 -30.5
t-106.5 30t-59.5 82q-1 1 -1 4q0 8 9 8h58q7 0 10.5 -2t8.5 -9q32 -45 81 -45q26 0 48.5 13.5t34.5 32.5q3 6 6.5 8t8.5 2h59q8 0 10.5 -3.5z" />
    <glyph glyph-name="Gdotaccent" unicode="&#x120;" horiz-adv-x="747" 
d="M204.5 36.5q-73.5 46.5 -113.5 132t-40 199.5q0 117 41.5 204t117 133.5t175.5 46.5q75 0 137.5 -29.5t102 -77t49.5 -101.5l2 -11q0 -10 -12 -12l-111 -17q-8 0 -10.5 3t-4.5 11q-9 55 -51 91.5t-105 36.5q-176 0 -176 -272q0 -144 46 -211t134 -67q70 0 112 40.5
t50 96.5l1 40q1 2 1 5q0 8 -10 8h-136q-8 0 -11 3t-3 12v64q0 12 14 12l260 -1q12 0 18 -5.5t6 -14.5v-342q0 -14 -13 -14h-29q-9 0 -14.5 3t-9.5 12l-22 79q-2 4 -4.5 3.5t-5.5 -4.5q-75 -103 -213 -103q-99 0 -172.5 46.5zM446 838q0 -11 -5 -16t-18 -5h-92q-11 0 -15 4.5
t-4 14.5v101q0 17 15 17h105q14 0 14 -16v-100z" />
    <glyph glyph-name="gdotaccent" unicode="&#x121;" horiz-adv-x="622" 
d="M599 528v-56q0 -25 -22 -22q-8 1 -22 1q-15 0 -27 -3q-26 -6 -20 -23q6 -16 9 -26.5t3 -26.5q0 -46 -26.5 -83t-79 -58.5t-127.5 -21.5q-62 0 -89.5 -10t-27.5 -27q0 -14 16.5 -20t55.5 -8l138 -8q95 -5 141.5 -42.5t46.5 -100.5q0 -77 -71.5 -122.5t-203.5 -45.5
q-139 0 -209.5 33.5t-70.5 99.5q0 33 24.5 57.5t70.5 43.5q6 2 6 5t-6 6q-54 24 -54 68q0 26 25 48t66 38q7 4 7 6q0 3 -6 6q-93 44 -93 135q0 77 63.5 122t180.5 45q101 0 156 -45q7 -5 13 -5q7 0 13 6q18 22 47.5 38t52.5 16q20 0 20 -20zM372 302q29 25 29 68
q0 46 -29 72.5t-86 26.5q-54 0 -84.5 -27t-30.5 -72q0 -42 30.5 -67.5t84.5 -25.5q57 0 86 25zM207 42q-30 2 -57.5 -18t-27.5 -49q0 -41 43.5 -62t137.5 -21q73 0 111 20.5t38 59.5q0 58 -86 62zM363 626q0 -11 -5 -16t-18 -5h-92q-11 0 -15 4.5t-4 14.5v101q0 17 15 17
h105q14 0 14 -16v-100z" />
    <glyph glyph-name="Gcommaaccent" unicode="&#x122;" horiz-adv-x="747" 
d="M204.5 36.5q-73.5 46.5 -113.5 132t-40 199.5q0 117 41.5 204t117 133.5t175.5 46.5q75 0 137.5 -29.5t102 -77t49.5 -101.5l2 -11q0 -10 -12 -12l-111 -17q-8 0 -10.5 3t-4.5 11q-9 55 -51 91.5t-105 36.5q-176 0 -176 -272q0 -144 46 -211t134 -67q70 0 112 40.5
t50 96.5l1 40q1 2 1 5q0 8 -10 8h-136q-8 0 -11 3t-3 12v64q0 12 14 12l260 -1q12 0 18 -5.5t6 -14.5v-342q0 -14 -13 -14h-29q-9 0 -14.5 3t-9.5 12l-22 79q-2 4 -4.5 3.5t-5.5 -4.5q-75 -103 -213 -103q-99 0 -172.5 46.5zM335 -236.5q-3 5.5 0 9.5l29 49q4 5 4 11
q0 4 -3 6.5t-7 2.5h-9q-9 0 -12.5 4t-3.5 13v63q0 15 13 15h72q13 0 13 -13v-82q0 -3 -1.5 -5.5t-1.5 -4.5l-44 -63q-4 -7 -9 -9t-16 -2h-16q-5 0 -8 5.5z" />
    <glyph glyph-name="gcommaaccent" unicode="&#x123;" horiz-adv-x="622" 
d="M247.5 616.5q-3.5 3.5 -3.5 9.5v82q0 4 3 10l44 63q4 7 9 9t16 2h15q6 0 9 -5t0 -10l-30 -49q-4 -8 -4 -10q0 -10 11 -10h9q9 0 12.5 -4t3.5 -13v-63q0 -7 -3.5 -11t-9.5 -4h-73q-5 0 -8.5 3.5zM599 528v-56q0 -25 -22 -22q-8 1 -22 1q-15 0 -27 -3q-26 -6 -20 -23
q6 -16 9 -26.5t3 -26.5q0 -46 -26.5 -83t-79 -58.5t-127.5 -21.5q-62 0 -89.5 -10t-27.5 -27q0 -14 16.5 -20t55.5 -8l138 -8q95 -5 141.5 -42.5t46.5 -100.5q0 -77 -71.5 -122.5t-203.5 -45.5q-139 0 -209.5 33.5t-70.5 99.5q0 33 24.5 57.5t70.5 43.5q6 2 6 5t-6 6
q-54 24 -54 68q0 26 25 48t66 38q7 4 7 6q0 3 -6 6q-93 44 -93 135q0 77 63.5 122t180.5 45q101 0 156 -45q7 -5 13 -5q7 0 13 6q18 22 47.5 38t52.5 16q20 0 20 -20zM372 302q29 25 29 68q0 46 -29 72.5t-86 26.5q-54 0 -84.5 -27t-30.5 -72q0 -42 30.5 -67.5t84.5 -25.5
q57 0 86 25zM207 42q-30 2 -57.5 -18t-27.5 -49q0 -41 43.5 -62t137.5 -21q73 0 111 20.5t38 59.5q0 58 -86 62z" />
    <glyph glyph-name="Hcircumflex" unicode="&#x124;" horiz-adv-x="746" 
d="M239 327q-12 0 -12 -11v-296q0 -20 -23 -20h-106q-11 0 -15 4.5t-4 13.5v707q0 17 15 17h119q14 0 14 -16v-269q0 -16 14 -16h264q14 0 14 15v270q0 16 14 16h119q15 0 15 -17v-707q0 -18 -19 -18h-106q-12 0 -17.5 4.5t-5.5 15.5v296q0 11 -12 11h-268zM386 888
q-9 11 -13 11t-15 -11l-53 -52q-5 -6 -8.5 -7t-12.5 -1h-72q-8 0 -8 5q0 4 6 10l106 105q6 6 12.5 9t17.5 3h61q12 0 23 -11l105 -106q7 -7 7 -11t-9 -4h-77q-14 0 -21 8z" />
    <glyph glyph-name="hcircumflex" unicode="&#x125;" horiz-adv-x="592" 
d="M63 18v707q0 17 15 17h99q13 0 13 -15v-260q0 -6 3 -7t8 3q50 42 89.5 59.5t85.5 17.5q77 0 118 -41.5t41 -115.5v-362q0 -21 -21 -21h-92q-10 0 -13.5 4t-3.5 14v344q0 39 -21 60.5t-62 21.5q-35 0 -64 -16t-65 -52v-356q0 -11 -5 -15.5t-17 -4.5h-89q-19 0 -19 18z
M307 892q-9 11 -13 11t-15 -11l-53 -52q-5 -6 -8.5 -7t-12.5 -1h-72q-8 0 -8 5q0 4 6 10l106 105q6 6 12.5 9t17.5 3h61q12 0 23 -11l105 -106q7 -7 7 -11t-9 -4h-77q-14 0 -21 8z" />
    <glyph glyph-name="Hbar" unicode="&#x126;" horiz-adv-x="759" 
d="M753.5 637q3.5 -4 3.5 -10v-44q0 -18 -22 -18h-54v-547q0 -18 -19 -18h-106q-12 0 -17.5 4.5t-5.5 15.5v296q0 11 -12 11h-268q-12 0 -12 -11v-296q0 -20 -23 -20h-106q-11 0 -15 4.5t-4 13.5v547h-74q-10 0 -13.5 4t-3.5 13v43q0 16 12 16h79v84q0 17 15 17h119
q14 0 14 -16v-85h292v85q0 16 14 16h119q15 0 15 -17v-84h64q5 0 8.5 -4zM533 565h-292v-108q0 -16 14 -16h264q14 0 14 15v109z" />
    <glyph glyph-name="hbar" unicode="&#x127;" horiz-adv-x="594" 
d="M496 498.5q41 -41.5 41 -115.5v-362q0 -21 -21 -21h-92q-10 0 -13.5 4t-3.5 14v344q0 39 -21 60.5t-62 21.5q-35 0 -64 -16t-65 -52v-356q0 -11 -5 -15.5t-17 -4.5h-89q-19 0 -19 18v583h-39q-9 0 -12.5 3.5t-3.5 11.5v46q0 14 12 14h43v49q0 17 15 17h99q13 0 13 -15
v-51h142q5 0 8.5 -3.5t3.5 -9.5v-45q0 -9 -5 -13t-16 -4h-133v-134q0 -6 3 -7t8 3q50 42 89.5 59.5t85.5 17.5q77 0 118 -41.5z" />
    <glyph glyph-name="Itilde" unicode="&#x128;" horiz-adv-x="306" 
d="M213 742q14 0 14 -16v-704q0 -12 -5.5 -17t-18.5 -5h-104q-12 0 -16 4t-4 14v707q0 17 15 17h119zM227 849q-32 0 -75 15q-4 1 -24.5 7t-41.5 6q-20 0 -33.5 -5.5t-30.5 -17.5q-8 -4 -9 -4q-6 0 -9 10l-13 38q-1 3 -1 8q0 6 7 13q20 17 39 25.5t46 8.5q30 0 78 -16
q17 -5 34.5 -9.5t32.5 -4.5q32 0 65 23q6 4 9 4q7 0 10 -11l12 -44l1 -5q0 -9 -11 -16q-38 -25 -86 -25z" />
    <glyph glyph-name="itilde" unicode="&#x129;" horiz-adv-x="256" 
d="M193 22q0 -12 -5.5 -17t-18.5 -5h-87q-11 0 -15 4t-4 14v495q0 17 15 17h101q14 0 14 -16v-492zM202 637q-32 0 -75 15q-4 1 -24.5 7t-41.5 6q-20 0 -33.5 -5.5t-30.5 -17.5q-8 -4 -9 -4q-6 0 -9 10l-13 38q-1 3 -1 8q0 6 7 13q20 17 39 25.5t46 8.5q30 0 78 -16
q17 -5 34.5 -9.5t32.5 -4.5q32 0 65 23q6 4 9 4q7 0 10 -11l12 -44l1 -5q0 -9 -11 -16q-38 -25 -86 -25z" />
    <glyph glyph-name="Imacron" unicode="&#x12a;" horiz-adv-x="306" 
d="M213 742q14 0 14 -16v-704q0 -12 -5.5 -17t-18.5 -5h-104q-12 0 -16 4t-4 14v707q0 17 15 17h119zM325 876q0 -17 -20 -17h-306q-9 0 -12 4t-3 12v56q0 14 11 14h319q11 0 11 -12v-57z" />
    <glyph glyph-name="imacron" unicode="&#x12b;" horiz-adv-x="256" 
d="M193 22q0 -12 -5.5 -17t-18.5 -5h-87q-11 0 -15 4t-4 14v495q0 17 15 17h101q14 0 14 -16v-492zM300 664q0 -17 -20 -17h-306q-9 0 -12 4t-3 12v56q0 14 11 14h319q11 0 11 -12v-57z" />
    <glyph glyph-name="Ibreve" unicode="&#x12c;" horiz-adv-x="306" 
d="M213 742q14 0 14 -16v-704q0 -12 -5.5 -17t-18.5 -5h-104q-12 0 -16 4t-4 14v707q0 17 15 17h119zM321.5 950.5q2.5 -3.5 0.5 -10.5q-15 -49 -60.5 -79.5t-107.5 -30.5t-106.5 30t-59.5 82q-1 1 -1 4q0 8 9 8h58q7 0 10.5 -2t8.5 -9q32 -45 81 -45q26 0 48.5 13.5
t34.5 32.5q3 6 6.5 8t8.5 2h59q8 0 10.5 -3.5z" />
    <glyph glyph-name="ibreve" unicode="&#x12d;" horiz-adv-x="256" 
d="M193 22q0 -12 -5.5 -17t-18.5 -5h-87q-11 0 -15 4t-4 14v495q0 17 15 17h101q14 0 14 -16v-492zM296.5 738.5q2.5 -3.5 0.5 -10.5q-15 -49 -60.5 -79.5t-107.5 -30.5t-106.5 30t-59.5 82q-1 1 -1 4q0 8 9 8h58q7 0 10.5 -2t8.5 -9q32 -45 81 -45q26 0 48.5 13.5
t34.5 32.5q3 6 6.5 8t8.5 2h59q8 0 10.5 -3.5z" />
    <glyph glyph-name="Iogonek" unicode="&#x12e;" horiz-adv-x="306" 
d="M233 -92q6 0 6 -9v-38q0 -9 -8 -14q-14 -7 -40.5 -12.5t-55.5 -5.5q-51 0 -79.5 21.5t-28.5 61.5q0 28 17.5 49.5t61.5 38.5h-7q-12 0 -16 4t-4 14v707q0 17 15 17h119q14 0 14 -16v-704q0 -19 -16 -22q-48 -18 -67.5 -35t-19.5 -38q0 -18 9.5 -26.5t31.5 -8.5
q32 0 60 14q3 2 8 2z" />
    <glyph glyph-name="iogonek" unicode="&#x12f;" horiz-adv-x="256" 
d="M67 609.5q-4 4.5 -4 14.5v101q0 17 15 17h105q14 0 14 -16v-100q0 -11 -5 -16t-18 -5h-92q-11 0 -15 4.5zM202 -92q6 0 6 -9v-38q0 -9 -8 -14q-14 -7 -40.5 -12.5t-55.5 -5.5q-51 0 -79.5 21.5t-28.5 61.5q0 28 18 49.5t62 38.5q-7 1 -10 5.5t-3 12.5v495q0 17 15 17h101
q14 0 14 -16v-492q0 -13 -6 -18h2q-53 -20 -74.5 -37.5t-21.5 -39.5q0 -18 9.5 -26.5t31.5 -8.5q32 0 60 14q3 2 8 2z" />
    <glyph glyph-name="Idotaccent" unicode="&#x130;" horiz-adv-x="306" 
d="M213 742q14 0 14 -16v-704q0 -12 -5.5 -17t-18.5 -5h-104q-12 0 -16 4t-4 14v707q0 17 15 17h119zM222 838q0 -11 -5 -16t-18 -5h-92q-11 0 -15 4.5t-4 14.5v101q0 17 15 17h105q14 0 14 -16v-100z" />
    <glyph glyph-name="dotlessi" unicode="&#x131;" horiz-adv-x="256" 
d="M193 22q0 -12 -5.5 -17t-18.5 -5h-87q-11 0 -15 4t-4 14v495q0 17 15 17h101q14 0 14 -16v-492z" />
    <glyph glyph-name="IJ" unicode="&#x132;" horiz-adv-x="743" 
d="M213 742q14 0 14 -16v-704q0 -12 -5.5 -17t-18.5 -5h-104q-12 0 -16 4t-4 14v707q0 17 15 17h119zM622.5 36q-46.5 -46 -144.5 -46q-31 0 -57 4.5t-60 13.5q-11 2 -15.5 8.5t-3.5 19.5l9 78q2 17 17 14l25.5 -8.5t45.5 -6.5q43 0 62.5 23.5t19.5 81.5v507q0 17 15 17h119
q14 0 14 -16v-544q0 -100 -46.5 -146z" />
    <glyph glyph-name="ij" unicode="&#x133;" horiz-adv-x="512" 
d="M195 628q0 -12 -5.5 -17.5t-18.5 -5.5h-91q-11 0 -15 5t-4 15v98q0 19 16 19h103q7 0 11 -4.5t4 -12.5v-97zM193 22q0 -12 -5.5 -17t-18.5 -5h-87q-11 0 -15 4t-4 14v495q0 17 15 17h101q14 0 14 -16v-492zM452 628q0 -12 -5.5 -17.5t-18.5 -5.5h-91q-20 0 -20 20v98
q0 9 4.5 14t12.5 5h102q7 0 11.5 -4.5t4.5 -12.5v-97zM409.5 -130q-39.5 -40 -127.5 -40q-43 0 -55 3.5t-12 14.5v67q0 6 3.5 11t9.5 6l46 4q24 2 34.5 16t10.5 48v513q0 17 16 17h101q13 0 13 -16v-520q0 -84 -39.5 -124z" />
    <glyph glyph-name="Jcircumflex" unicode="&#x134;" horiz-adv-x="437" 
d="M316.5 36q-46.5 -46 -144.5 -46q-31 0 -57 4.5t-60 13.5q-11 2 -15.5 8.5t-3.5 19.5l9 78q2 17 17 14l25.5 -8.5t45.5 -6.5q43 0 62.5 23.5t19.5 81.5v507q0 17 15 17h119q14 0 14 -16v-544q0 -100 -46.5 -146zM266 888q-9 11 -13 11t-15 -11l-53 -52q-5 -6 -8.5 -7
t-12.5 -1h-72q-8 0 -8 5q0 4 6 10l106 105q6 6 12.5 9t17.5 3h61q12 0 23 -11l105 -106q7 -7 7 -11t-9 -4h-77q-14 0 -21 8z" />
    <glyph glyph-name="jcircumflex" unicode="&#x135;" horiz-adv-x="256" 
d="M153.5 -130q-39.5 -40 -127.5 -40q-43 0 -55 3.5t-12 14.5v67q0 6 3.5 11t9.5 6l46 4q24 2 34.5 16t10.5 48v513q0 17 16 17h101q13 0 13 -16v-520q0 -84 -39.5 -124zM141 676q-9 11 -13 11t-15 -11l-53 -52q-5 -6 -8.5 -7t-12.5 -1h-72q-8 0 -8 5q0 4 6 10l106 105
q6 6 12.5 9t17.5 3h61q12 0 23 -11l105 -106q7 -7 7 -11t-9 -4h-77q-14 0 -21 8z" />
    <glyph glyph-name="Kcommaaccent" unicode="&#x136;" horiz-adv-x="729" 
d="M695 11q0 -11 -13 -11h-126q-19 0 -25 13l-182 334q-3 5 -7 5t-10 -8l-98 -115q-7 -7 -7 -20v-189q0 -20 -23 -20h-105q-11 0 -15.5 4t-4.5 14v708q0 7 4 11.5t10 4.5h120q14 0 14 -15v-322q0 -9 4 -9q2 0 7 5l272 327q6 8 11.5 11t17.5 3h102q7 0 12 -3t5 -8t-4 -9
l-206 -237q-4 -5 -4 -10q0 -4 3 -10l245 -444q3 -6 3 -10zM313 -236.5q-3 5.5 0 9.5l29 49q4 5 4 11q0 4 -3 6.5t-7 2.5h-9q-9 0 -12.5 4t-3.5 13v63q0 15 13 15h72q13 0 13 -13v-82q0 -3 -1.5 -5.5t-1.5 -4.5l-44 -63q-4 -7 -9 -9t-16 -2h-16q-5 0 -8 5.5z" />
    <glyph glyph-name="kcommaaccent" unicode="&#x137;" horiz-adv-x="590" 
d="M569 12q0 -12 -15 -12h-110q-16 0 -24 18l-120 224q-3 8 -7 8q-3 0 -8 -5l-83 -82q-9 -7 -9 -23v-118q0 -13 -5 -17.5t-18 -4.5h-87q-11 0 -15.5 4t-4.5 14v707q0 17 15 17h101q14 0 14 -16v-429q0 -8 4 -8t8 5l208 222q14 14 25 14h91q15 0 15 -10q0 -5 -6 -13
l-147 -148q-5 -7 -5 -12t4 -13l176 -313q3 -4 3 -9zM243 -236.5q-3 5.5 0 9.5l29 49q4 5 4 11q0 4 -3 6.5t-7 2.5h-9q-9 0 -12.5 4t-3.5 13v63q0 15 13 15h72q13 0 13 -13v-82q0 -3 -1.5 -5.5t-1.5 -4.5l-44 -63q-4 -7 -9 -9t-16 -2h-16q-5 0 -8 5.5z" />
    <glyph glyph-name="kgreenlandic" unicode="&#x138;" horiz-adv-x="590" 
d="M569 12q0 -12 -15 -12h-110q-16 0 -24 18l-120 224q-3 8 -7 8q-3 0 -8 -5l-83 -82q-9 -7 -9 -23v-118q0 -13 -5 -17.5t-18 -4.5h-87q-11 0 -15.5 4t-4.5 14v495q0 17 15 17h101q14 0 14 -16v-217q0 -8 4 -8t8 5l208 222q14 14 25 14h91q15 0 15 -10q0 -5 -6 -13
l-147 -148q-5 -7 -5 -12t4 -13l176 -313q3 -4 3 -9z" />
    <glyph glyph-name="Lacute" unicode="&#x139;" horiz-adv-x="619" 
d="M94 742h119q14 0 14 -16v-604q0 -7 2.5 -9.5t8.5 -2.5h328q16 0 16 -14v-81q0 -6 -4 -10.5t-13 -4.5h-467q-11 0 -15 4.5t-4 13.5v707q0 17 15 17zM289 895l2 -8q0 -10 -15 -15l-231 -65q-3 -1 -8 -1q-9 0 -13 10l-10 31q-2 6 -2 8q0 7 7 10l234 98q2 1 5 1q7 0 11 -9z
" />
    <glyph glyph-name="lacute" unicode="&#x13a;" horiz-adv-x="257" 
d="M193 22q0 -13 -5 -17.5t-18 -4.5h-88q-11 0 -15.5 4t-4.5 14l3 707q0 17 15 17h99q14 0 14 -16v-704zM268 895l2 -8q0 -10 -15 -15l-231 -65q-3 -1 -8 -1q-9 0 -13 10l-10 31q-2 6 -2 8q0 7 7 10l234 98q2 1 5 1q7 0 11 -9z" />
    <glyph glyph-name="Lcommaaccent" unicode="&#x13b;" horiz-adv-x="619" 
d="M94 742h119q14 0 14 -16v-604q0 -7 2.5 -9.5t8.5 -2.5h328q16 0 16 -14v-81q0 -6 -4 -10.5t-13 -4.5h-467q-11 0 -15 4.5t-4 13.5v707q0 17 15 17zM278 -236.5q-3 5.5 0 9.5l29 49q4 5 4 11q0 4 -3 6.5t-7 2.5h-9q-9 0 -12.5 4t-3.5 13v63q0 15 13 15h72q13 0 13 -13v-82
q0 -3 -1.5 -5.5t-1.5 -4.5l-44 -63q-4 -7 -9 -9t-16 -2h-16q-5 0 -8 5.5z" />
    <glyph glyph-name="lcommaaccent" unicode="&#x13c;" horiz-adv-x="257" 
d="M193 22q0 -13 -5 -17.5t-18 -4.5h-88q-11 0 -15.5 4t-4.5 14l3 707q0 17 15 17h99q14 0 14 -16v-704zM85 -236.5q-3 5.5 0 9.5l29 49q4 5 4 11q0 4 -3 6.5t-7 2.5h-9q-9 0 -12.5 4t-3.5 13v63q0 15 13 15h72q13 0 13 -13v-82q0 -3 -1.5 -5.5t-1.5 -4.5l-44 -63
q-4 -7 -9 -9t-16 -2h-16q-5 0 -8 5.5z" />
    <glyph glyph-name="Lcaron" unicode="&#x13d;" horiz-adv-x="619" 
d="M94 742h119q14 0 14 -16v-604q0 -7 2.5 -9.5t8.5 -2.5h328q16 0 16 -14v-81q0 -6 -4 -10.5t-13 -4.5h-467q-11 0 -15 4.5t-4 13.5v707q0 17 15 17zM410.5 530.5q-2.5 3.5 -0.5 8.5l30 74q3 6 3 9q0 4 -8 6l-9 2q-8 1 -10.5 3.5t-2.5 9.5v87q0 12 10 12h73q10 0 10 -10
v-102q0 -3 -1 -4.5t-1 -3.5l-36 -83q-2 -7 -7 -9.5t-16 -2.5h-27q-5 0 -7.5 3.5z" />
    <glyph glyph-name="lcaron" unicode="&#x13e;" horiz-adv-x="376" 
d="M193 22q0 -13 -5 -17.5t-18 -4.5h-88q-11 0 -15.5 4t-4.5 14l3 707q0 17 15 17h99q14 0 14 -16v-704zM256.5 530.5q-2.5 3.5 -0.5 8.5l30 74q3 6 3 9q0 4 -8 6l-9 2q-8 1 -10.5 3.5t-2.5 9.5v87q0 12 10 12h73q10 0 10 -10v-102q0 -3 -1 -4.5t-1 -3.5l-36 -83
q-2 -7 -7 -9.5t-16 -2.5h-27q-5 0 -7.5 3.5z" />
    <glyph glyph-name="Ldot" unicode="&#x13f;" horiz-adv-x="616" 
d="M94 742h119q14 0 14 -16v-604q0 -7 2.5 -9.5t8.5 -2.5h328q16 0 16 -14v-81q0 -6 -4 -10.5t-13 -4.5h-467q-11 0 -15 4.5t-4 13.5v707q0 17 15 17zM539 359q0 -10 -5 -14.5t-17 -4.5h-101q-10 0 -14 4t-4 13v103q0 15 13 15h116q12 0 12 -13v-103z" />
    <glyph glyph-name="ldot" unicode="&#x140;" horiz-adv-x="377" 
d="M193 22q0 -13 -5 -17.5t-18 -4.5h-88q-11 0 -15.5 4t-4.5 14l3 707q0 17 15 17h99q14 0 14 -16v-704zM387 244q0 -10 -5 -14.5t-17 -4.5h-101q-10 0 -14 4t-4 13v103q0 15 13 15h116q12 0 12 -13v-103z" />
    <glyph glyph-name="Lslash" unicode="&#x141;" horiz-adv-x="619" 
d="M582 96v-81q0 -6 -4 -10.5t-13 -4.5h-467q-11 0 -15 4.5t-4 13.5v298l-52 -14q-3 -1 -8 -1q-10 0 -10 14v78q0 13 13 16l57 15v301q0 17 15 17h119q14 0 14 -16v-263l146 39q2 1 6 1q11 0 11 -14v-74q0 -13 -14 -17l-149 -41v-235q0 -7 2.5 -9.5t8.5 -2.5h328
q16 0 16 -14z" />
    <glyph glyph-name="lslash" unicode="&#x142;" horiz-adv-x="311" 
d="M292 476q7 0 7 -10v-77q0 -14 -14 -23l-65 -50v-294q0 -13 -5 -17.5t-18 -4.5h-88q-11 0 -15.5 4t-4.5 14l1 199l-60 -46q-6 -5 -11 -5q-6 0 -6 11v80q0 15 12 24l65 49l2 395q0 17 15 17h99q14 0 14 -16v-300l62 46q5 4 10 4z" />
    <glyph glyph-name="Nacute" unicode="&#x143;" horiz-adv-x="758" 
d="M667 742q7 0 9.5 -3t2.5 -11v-713q0 -15 -17 -15h-83q-8 0 -13 2t-11 9l-342 486q-4 6 -7.5 5.5t-3.5 -6.5v-480v-3q0 -13 -17 -13h-88q-18 0 -18 16v709q0 17 16 17h100q10 0 15 -2.5t11 -10.5l322 -464q4 -7 9 -7q6 0 6 10v458q0 16 16 16h93zM524 895l2 -8
q0 -10 -15 -15l-231 -65q-3 -1 -8 -1q-9 0 -13 10l-10 31q-2 6 -2 8q0 7 7 10l234 98q2 1 5 1q7 0 11 -9z" />
    <glyph glyph-name="nacute" unicode="&#x144;" horiz-adv-x="592" 
d="M67 4q-4 4 -4 14v495q0 17 14 17h100q13 0 13 -15v-52q0 -6 3 -7t8 3q47 41 87.5 61t87.5 20q74 0 116.5 -42.5t42.5 -112.5v-364q0 -21 -21 -21h-92q-10 0 -13.5 4t-3.5 14v344q0 39 -21.5 60.5t-62.5 21.5q-35 0 -63.5 -16t-64.5 -52v-356q0 -11 -5 -15.5t-18 -4.5h-89
q-10 0 -14 4zM441 683l2 -8q0 -10 -15 -15l-231 -65q-3 -1 -8 -1q-9 0 -13 10l-10 31q-2 6 -2 8q0 7 7 10l234 98q2 1 5 1q7 0 11 -9z" />
    <glyph glyph-name="Ncommaaccent" unicode="&#x145;" horiz-adv-x="758" 
d="M667 742q7 0 9.5 -3t2.5 -11v-713q0 -15 -17 -15h-83q-8 0 -13 2t-11 9l-342 486q-4 6 -7.5 5.5t-3.5 -6.5v-480v-3q0 -13 -17 -13h-88q-18 0 -18 16v709q0 17 16 17h100q10 0 15 -2.5t11 -10.5l322 -464q4 -7 9 -7q6 0 6 10v458q0 16 16 16h93zM325 -236.5q-3 5.5 0 9.5
l29 49q4 5 4 11q0 4 -3 6.5t-7 2.5h-9q-9 0 -12.5 4t-3.5 13v63q0 15 13 15h72q13 0 13 -13v-82q0 -3 -1.5 -5.5t-1.5 -4.5l-44 -63q-4 -7 -9 -9t-16 -2h-16q-5 0 -8 5.5z" />
    <glyph glyph-name="ncommaaccent" unicode="&#x146;" horiz-adv-x="592" 
d="M67 4q-4 4 -4 14v495q0 17 14 17h100q13 0 13 -15v-52q0 -6 3 -7t8 3q47 41 87.5 61t87.5 20q74 0 116.5 -42.5t42.5 -112.5v-364q0 -21 -21 -21h-92q-10 0 -13.5 4t-3.5 14v344q0 39 -21.5 60.5t-62.5 21.5q-35 0 -63.5 -16t-64.5 -52v-356q0 -11 -5 -15.5t-18 -4.5h-89
q-10 0 -14 4zM253 -236.5q-3 5.5 0 9.5l29 49q4 5 4 11q0 4 -3 6.5t-7 2.5h-9q-9 0 -12.5 4t-3.5 13v63q0 15 13 15h72q13 0 13 -13v-82q0 -3 -1.5 -5.5t-1.5 -4.5l-44 -63q-4 -7 -9 -9t-16 -2h-16q-5 0 -8 5.5z" />
    <glyph glyph-name="Ncaron" unicode="&#x147;" horiz-adv-x="758" 
d="M667 742q7 0 9.5 -3t2.5 -11v-713q0 -15 -17 -15h-83q-8 0 -13 2t-11 9l-342 486q-4 6 -7.5 5.5t-3.5 -6.5v-480v-3q0 -13 -17 -13h-88q-18 0 -18 16v709q0 17 16 17h100q10 0 15 -2.5t11 -10.5l322 -464q4 -7 9 -7q6 0 6 10v458q0 16 16 16h93zM470 955h77q9 0 9 -4
t-7 -11l-105 -106q-11 -11 -23 -11h-61q-11 0 -17.5 3t-12.5 9l-106 105q-6 6 -6 10q0 5 8 5h72q9 0 12.5 -1t8.5 -7l53 -52q11 -11 15 -11t13 11l49 52q7 8 21 8z" />
    <glyph glyph-name="ncaron" unicode="&#x148;" horiz-adv-x="592" 
d="M67 4q-4 4 -4 14v495q0 17 14 17h100q13 0 13 -15v-52q0 -6 3 -7t8 3q47 41 87.5 61t87.5 20q74 0 116.5 -42.5t42.5 -112.5v-364q0 -21 -21 -21h-92q-10 0 -13.5 4t-3.5 14v344q0 39 -21.5 60.5t-62.5 21.5q-35 0 -63.5 -16t-64.5 -52v-356q0 -11 -5 -15.5t-18 -4.5h-89
q-10 0 -14 4zM387 743h77q9 0 9 -4t-7 -11l-105 -106q-11 -11 -23 -11h-61q-11 0 -17.5 3t-12.5 9l-106 105q-6 6 -6 10q0 5 8 5h72q9 0 12.5 -1t8.5 -7l53 -52q11 -11 15 -11t13 11l49 52q7 8 21 8z" />
    <glyph glyph-name="napostrophe" unicode="&#x149;" horiz-adv-x="678" 
d="M36.5 463q-2.5 4 -0.5 8l31 113l2 9q0 5 -8 7l-9 1q-7 1 -10 3.5t-3 9.5v116q0 12 10 12h75q9 0 9 -10v-131q0 -5 -2 -7l-36 -123q-2 -7 -7 -9.5t-16 -2.5h-29q-4 0 -6.5 4zM153 4q-4 4 -4 14v495q0 17 14 17h100q13 0 13 -15v-52q0 -6 3 -7t8 3q47 41 87.5 61t87.5 20
q74 0 116.5 -42.5t42.5 -112.5v-364q0 -21 -21 -21h-92q-10 0 -13.5 4t-3.5 14v344q0 39 -21.5 60.5t-62.5 21.5q-35 0 -63.5 -16t-64.5 -52v-356q0 -11 -5 -15.5t-18 -4.5h-89q-10 0 -14 4z" />
    <glyph glyph-name="Eng" unicode="&#x14a;" horiz-adv-x="758" 
d="M676.5 739q2.5 -3 2.5 -11v-722q0 -93 -45.5 -137t-140.5 -44q-48 0 -109 13q-11 2 -15.5 8.5t-3.5 19.5l6 75q2 18 17 15q36 -9 65 -9q39 0 59.5 19.5t21.5 65.5v28l-322 438q-4 7 -7 6t-3 -7v-481v-3q0 -13 -17 -13h-88q-18 0 -18 16v709q0 17 16 17h101
q10 0 14.5 -2.5t11.5 -10.5l321 -442q4 -7 9 -7q6 0 6 11v435q0 16 16 16h93q7 0 9.5 -3z" />
    <glyph glyph-name="eng" unicode="&#x14b;" horiz-adv-x="596" 
d="M492 497.5q43 -42.5 43 -112.5v-387q0 -81 -45 -124.5t-122 -43.5q-37 0 -47.5 3.5t-10.5 14.5l-1 66q0 6 4 11t10 6l36 4q24 2 35 16.5t11 48.5v360q0 40 -21 62.5t-64 22.5q-64 0 -126 -70v-355q0 -11 -5 -15.5t-17 -4.5h-91q-10 0 -14 4t-4 14l2 495q0 17 14 17h98
q14 0 14 -15v-53q0 -6 3 -7t8 4q48 42 88.5 61.5t85.5 19.5q73 0 116 -42.5z" />
    <glyph glyph-name="Omacron" unicode="&#x14c;" horiz-adv-x="770" 
d="M208 35q-75 45 -115.5 130.5t-40.5 202.5q0 119 41 205.5t116 132.5t177 46q101 0 176 -46t116 -132.5t41 -204.5q0 -117 -40.5 -202.5t-115.5 -131t-177 -45.5q-103 0 -178 45zM521 161q43 65 43 206q0 144 -43.5 212t-134.5 68t-135.5 -68t-44.5 -212q0 -141 44 -206
t137 -65q91 0 134 65zM556 876q0 -17 -20 -17h-306q-9 0 -12 4t-3 12v56q0 14 11 14h319q11 0 11 -12v-57z" />
    <glyph glyph-name="omacron" unicode="&#x14d;" horiz-adv-x="599" 
d="M162 24.5q-60 34.5 -93 96.5t-33 141q0 81 34 144.5t94 98.5t136 35q77 0 137 -35.5t93 -98.5t33 -143q0 -79 -33.5 -141t-93.5 -97t-137 -35t-137 34.5zM397.5 127q33.5 48 33.5 138q0 91 -34 140t-97 49t-97.5 -49t-34.5 -140q0 -90 34.5 -138t97.5 -48q64 0 97.5 48z
M470 664q0 -17 -20 -17h-306q-9 0 -12 4t-3 12v56q0 14 11 14h319q11 0 11 -12v-57z" />
    <glyph glyph-name="Obreve" unicode="&#x14e;" horiz-adv-x="770" 
d="M208 35q-75 45 -115.5 130.5t-40.5 202.5q0 119 41 205.5t116 132.5t177 46q101 0 176 -46t116 -132.5t41 -204.5q0 -117 -40.5 -202.5t-115.5 -131t-177 -45.5q-103 0 -178 45zM521 161q43 65 43 206q0 144 -43.5 212t-134.5 68t-135.5 -68t-44.5 -212q0 -141 44 -206
t137 -65q91 0 134 65zM552.5 950.5q2.5 -3.5 0.5 -10.5q-15 -49 -60.5 -79.5t-107.5 -30.5t-106.5 30t-59.5 82q-1 1 -1 4q0 8 9 8h58q7 0 10.5 -2t8.5 -9q32 -45 81 -45q26 0 48.5 13.5t34.5 32.5q3 6 6.5 8t8.5 2h59q8 0 10.5 -3.5z" />
    <glyph glyph-name="obreve" unicode="&#x14f;" horiz-adv-x="599" 
d="M162 24.5q-60 34.5 -93 96.5t-33 141q0 81 34 144.5t94 98.5t136 35q77 0 137 -35.5t93 -98.5t33 -143q0 -79 -33.5 -141t-93.5 -97t-137 -35t-137 34.5zM397.5 127q33.5 48 33.5 138q0 91 -34 140t-97 49t-97.5 -49t-34.5 -140q0 -90 34.5 -138t97.5 -48q64 0 97.5 48z
M466.5 738.5q2.5 -3.5 0.5 -10.5q-15 -49 -60.5 -79.5t-107.5 -30.5t-106.5 30t-59.5 82q-1 1 -1 4q0 8 9 8h58q7 0 10.5 -2t8.5 -9q32 -45 81 -45q26 0 48.5 13.5t34.5 32.5q3 6 6.5 8t8.5 2h59q8 0 10.5 -3.5z" />
    <glyph glyph-name="Ohungarumlaut" unicode="&#x150;" horiz-adv-x="770" 
d="M208 35q-75 45 -115.5 130.5t-40.5 202.5q0 119 41 205.5t116 132.5t177 46q101 0 176 -46t116 -132.5t41 -204.5q0 -117 -40.5 -202.5t-115.5 -131t-177 -45.5q-103 0 -178 45zM521 161q43 65 43 206q0 144 -43.5 212t-134.5 68t-135.5 -68t-44.5 -212q0 -141 44 -206
t137 -65q91 0 134 65zM406 913q6 -10 6 -14q0 -7 -10 -13l-135 -97q-9 -6 -13 -6q-6 0 -10 6l-22 25q-6 6 -6 11q0 4 4 8l130 127q4 4 8 4t9 -5zM590 913q6 -7 6 -14q0 -8 -9 -13l-135 -97q-9 -6 -13 -6q-6 0 -10 6l-23 25q-5 7 -5 11t4 8l130 127q4 4 8 4t9 -5z" />
    <glyph glyph-name="ohungarumlaut" unicode="&#x151;" horiz-adv-x="599" 
d="M162 24.5q-60 34.5 -93 96.5t-33 141q0 81 34 144.5t94 98.5t136 35q77 0 137 -35.5t93 -98.5t33 -143q0 -79 -33.5 -141t-93.5 -97t-137 -35t-137 34.5zM397.5 127q33.5 48 33.5 138q0 91 -34 140t-97 49t-97.5 -49t-34.5 -140q0 -90 34.5 -138t97.5 -48q64 0 97.5 48z
M320 701q6 -10 6 -14q0 -7 -10 -13l-135 -97q-9 -6 -13 -6q-6 0 -10 6l-22 25q-6 6 -6 11q0 4 4 8l130 127q4 4 8 4t9 -5zM504 701q6 -7 6 -14q0 -8 -9 -13l-135 -97q-9 -6 -13 -6q-6 0 -10 6l-23 25q-5 7 -5 11t4 8l130 127q4 4 8 4t9 -5z" />
    <glyph glyph-name="OE" unicode="&#x152;" horiz-adv-x="1127" 
d="M1081.5 107q3.5 -3 3.5 -11v-81q0 -6 -4 -10.5t-12 -4.5h-442q-11 0 -15 4l-29 57q-65 -71 -190 -71q-106 0 -183 45t-117.5 130t-40.5 203q0 119 41.5 205.5t120 132.5t186.5 46q122 0 183 -72l23 58q5 4 16 4h438q14 0 14 -15l-1 -76q0 -19 -18 -19h-325q-17 0 -17 -14
v-175q0 -15 14 -15h223q14 0 14 -15v-81q0 -12 -13 -12h-225q-13 0 -13 -12v-186q0 -7 2 -9.5t8 -2.5h346q9 0 12.5 -3zM520.5 161q42.5 65 42.5 206q0 144 -43.5 212t-133.5 68q-91 0 -135.5 -68t-44.5 -212q0 -141 44 -206t137 -65q91 0 133.5 65z" />
    <glyph glyph-name="oe" unicode="&#x153;" horiz-adv-x="975" 
d="M161.5 24.5q-59.5 34.5 -92.5 96t-33 141.5q0 82 34 145t94 98t136 35q59 0 107.5 -23t80.5 -65q6 -6 10 -6q5 0 9 6q32 42 78.5 65t102.5 23q76 0 133.5 -33t89 -96t31.5 -150q0 -11 -3 -15.5t-14 -5.5h-349q-15 0 -15 -17q0 -41 19.5 -73.5t53 -50.5t73.5 -18
q41 0 74 17.5t64 54.5q3 5 7 5q3 0 9 -3l61 -27q7 -3 7 -9q0 -5 -4 -9q-44 -65 -98.5 -92.5t-134.5 -27.5q-58 0 -106.5 22.5t-82.5 62.5q-2 5 -7 5q-4 0 -10 -7q-34 -40 -81.5 -61.5t-105.5 -21.5q-78 0 -137.5 34.5zM600.5 418q-37.5 -39 -36.5 -103l234 -1q11 0 14 2.5
t3 11.5q0 32 -14.5 61.5t-42 48.5t-64.5 19q-56 0 -93.5 -39zM397 127q34 48 34 138t-34.5 139t-96.5 49q-63 0 -97.5 -49t-34.5 -139q0 -89 34.5 -137.5t97.5 -48.5t97 48z" />
    <glyph glyph-name="Racute" unicode="&#x154;" horiz-adv-x="713" 
d="M658 15q0 -6 -4 -10.5t-11 -4.5h-122q-8 0 -12.5 3.5t-7.5 12.5l-115 292q-3 7 -9 10t-18 3h-120q-12 0 -12 -11v-289q0 -11 -5.5 -16t-17.5 -5h-106q-11 0 -15 4.5t-4 13.5v707q0 17 15 17h301q129 0 200 -52t71 -148q0 -75 -40 -125t-100 -71q-8 -3 -4 -13l134 -309
q2 -3 2 -9zM513 531q0 54 -33.5 82t-93.5 28h-141q-10 0 -14 -3t-4 -11v-189q0 -8 3 -11.5t10 -3.5h134q139 0 139 108zM485 895l2 -8q0 -10 -15 -15l-231 -65q-3 -1 -8 -1q-9 0 -13 10l-10 31q-2 6 -2 8q0 7 7 10l234 98q2 1 5 1q7 0 11 -9z" />
    <glyph glyph-name="racute" unicode="&#x155;" horiz-adv-x="411" 
d="M63 18v495q0 17 14 17h97q14 0 14 -15v-61q0 -8 5 -8q3 0 8 5q33 42 73 65.5t78 23.5q36 0 36 -16v-96q0 -14 -13 -12q-28 7 -62 7q-26 0 -54.5 -14t-47 -36.5t-18.5 -46.5v-306q0 -20 -23 -20h-89q-18 0 -18 18zM356 683l2 -8q0 -10 -15 -15l-231 -65q-3 -1 -8 -1
q-9 0 -13 10l-10 31q-2 6 -2 8q0 7 7 10l234 98q2 1 5 1q7 0 11 -9z" />
    <glyph glyph-name="Rcommaaccent" unicode="&#x156;" horiz-adv-x="713" 
d="M658 15q0 -6 -4 -10.5t-11 -4.5h-122q-8 0 -12.5 3.5t-7.5 12.5l-115 292q-3 7 -9 10t-18 3h-120q-12 0 -12 -11v-289q0 -11 -5.5 -16t-17.5 -5h-106q-11 0 -15 4.5t-4 13.5v707q0 17 15 17h301q129 0 200 -52t71 -148q0 -75 -40 -125t-100 -71q-8 -3 -4 -13l134 -309
q2 -3 2 -9zM513 531q0 54 -33.5 82t-93.5 28h-141q-10 0 -14 -3t-4 -11v-189q0 -8 3 -11.5t10 -3.5h134q139 0 139 108zM310 -236.5q-3 5.5 0 9.5l29 49q4 5 4 11q0 4 -3 6.5t-7 2.5h-9q-9 0 -12.5 4t-3.5 13v63q0 15 13 15h72q13 0 13 -13v-82q0 -3 -1.5 -5.5t-1.5 -4.5
l-44 -63q-4 -7 -9 -9t-16 -2h-16q-5 0 -8 5.5z" />
    <glyph glyph-name="rcommaaccent" unicode="&#x157;" horiz-adv-x="411" 
d="M63 18v495q0 17 14 17h97q14 0 14 -15v-61q0 -8 5 -8q3 0 8 5q33 42 73 65.5t78 23.5q36 0 36 -16v-96q0 -14 -13 -12q-28 7 -62 7q-26 0 -54.5 -14t-47 -36.5t-18.5 -46.5v-306q0 -20 -23 -20h-89q-18 0 -18 18zM81 -236.5q-3 5.5 0 9.5l29 49q4 5 4 11q0 4 -3 6.5
t-7 2.5h-9q-9 0 -12.5 4t-3.5 13v63q0 15 13 15h72q13 0 13 -13v-82q0 -3 -1.5 -5.5t-1.5 -4.5l-44 -63q-4 -7 -9 -9t-16 -2h-16q-5 0 -8 5.5z" />
    <glyph glyph-name="Rcaron" unicode="&#x158;" horiz-adv-x="713" 
d="M658 15q0 -6 -4 -10.5t-11 -4.5h-122q-8 0 -12.5 3.5t-7.5 12.5l-115 292q-3 7 -9 10t-18 3h-120q-12 0 -12 -11v-289q0 -11 -5.5 -16t-17.5 -5h-106q-11 0 -15 4.5t-4 13.5v707q0 17 15 17h301q129 0 200 -52t71 -148q0 -75 -40 -125t-100 -71q-8 -3 -4 -13l134 -309
q2 -3 2 -9zM513 531q0 54 -33.5 82t-93.5 28h-141q-10 0 -14 -3t-4 -11v-189q0 -8 3 -11.5t10 -3.5h134q139 0 139 108zM431 955h77q9 0 9 -4t-7 -11l-105 -106q-11 -11 -23 -11h-61q-11 0 -17.5 3t-12.5 9l-106 105q-6 6 -6 10q0 5 8 5h72q9 0 12.5 -1t8.5 -7l53 -52
q11 -11 15 -11t13 11l49 52q7 8 21 8z" />
    <glyph glyph-name="rcaron" unicode="&#x159;" horiz-adv-x="411" 
d="M63 18v495q0 17 14 17h97q14 0 14 -15v-61q0 -8 5 -8q3 0 8 5q33 42 73 65.5t78 23.5q36 0 36 -16v-96q0 -14 -13 -12q-28 7 -62 7q-26 0 -54.5 -14t-47 -36.5t-18.5 -46.5v-306q0 -20 -23 -20h-89q-18 0 -18 18zM302 743h77q9 0 9 -4t-7 -11l-105 -106q-11 -11 -23 -11
h-61q-11 0 -17.5 3t-12.5 9l-106 105q-6 6 -6 10q0 5 8 5h72q9 0 12.5 -1t8.5 -7l53 -52q11 -11 15 -11t13 11l49 52q7 8 21 8z" />
    <glyph glyph-name="Sacute" unicode="&#x15a;" horiz-adv-x="665" 
d="M434 628.5q-36 17.5 -92 17.5q-66 0 -101.5 -25.5t-35.5 -69.5q0 -61 89 -89l154 -46q173 -52 173 -205q0 -67 -35 -117t-99.5 -77t-152.5 -27q-98 0 -175 33.5t-117 94.5q-4 10 -4 12q0 8 10 15l63 44q11 6 17 6q8 0 13 -7q39 -51 78.5 -72t105.5 -21q72 0 113 24t41 73
q0 32 -20.5 54t-72.5 39l-151 46q-83 25 -127 79.5t-44 122.5q0 64 34 113.5t96.5 77.5t144.5 28q79 0 145.5 -27.5t105.5 -75.5q6 -8 6 -13t-6 -10l-71 -53q-4 -3 -8 -3q-5 0 -14 10q-27 31 -63 48.5zM476 895l2 -8q0 -10 -15 -15l-231 -65q-3 -1 -8 -1q-9 0 -13 10l-10 31
q-2 6 -2 8q0 7 7 10l234 98q2 1 5 1q7 0 11 -9z" />
    <glyph glyph-name="sacute" unicode="&#x15b;" horiz-adv-x="524" 
d="M335 442q-32 16 -74 16q-44 0 -72.5 -18t-28.5 -47q0 -17 14 -30.5t51 -23.5l119 -32q75 -19 110 -58t35 -93q0 -51 -29.5 -88.5t-82 -57.5t-119.5 -20q-83 0 -145 30.5t-88 79.5q-4 8 -4 11q0 6 6 10l59 30q7 4 12 4q4 0 9 -5q24 -34 58.5 -54t89.5 -20q51 0 83.5 17.5
t32.5 48.5q0 21 -17.5 35.5t-60.5 25.5l-102 24q-76 18 -111.5 54t-35.5 92q0 49 26.5 87t76 59t115.5 21q71 0 126 -26.5t81 -67.5q5 -8 5 -13t-5 -8l-62 -31q-6 -2 -7 -2q-8 0 -13 7q-20 27 -52 43zM391 683l2 -8q0 -10 -15 -15l-231 -65q-3 -1 -8 -1q-9 0 -13 10l-10 31
q-2 6 -2 8q0 7 7 10l234 98q2 1 5 1q7 0 11 -9z" />
    <glyph glyph-name="Scircumflex" unicode="&#x15c;" horiz-adv-x="665" 
d="M434 628.5q-36 17.5 -92 17.5q-66 0 -101.5 -25.5t-35.5 -69.5q0 -61 89 -89l154 -46q173 -52 173 -205q0 -67 -35 -117t-99.5 -77t-152.5 -27q-98 0 -175 33.5t-117 94.5q-4 10 -4 12q0 8 10 15l63 44q11 6 17 6q8 0 13 -7q39 -51 78.5 -72t105.5 -21q72 0 113 24t41 73
q0 32 -20.5 54t-72.5 39l-151 46q-83 25 -127 79.5t-44 122.5q0 64 34 113.5t96.5 77.5t144.5 28q79 0 145.5 -27.5t105.5 -75.5q6 -8 6 -13t-6 -10l-71 -53q-4 -3 -8 -3q-5 0 -14 10q-27 31 -63 48.5zM352 888q-9 11 -13 11t-15 -11l-53 -52q-5 -6 -8.5 -7t-12.5 -1h-72
q-8 0 -8 5q0 4 6 10l106 105q6 6 12.5 9t17.5 3h61q12 0 23 -11l105 -106q7 -7 7 -11t-9 -4h-77q-14 0 -21 8z" />
    <glyph glyph-name="scircumflex" unicode="&#x15d;" horiz-adv-x="524" 
d="M335 442q-32 16 -74 16q-44 0 -72.5 -18t-28.5 -47q0 -17 14 -30.5t51 -23.5l119 -32q75 -19 110 -58t35 -93q0 -51 -29.5 -88.5t-82 -57.5t-119.5 -20q-83 0 -145 30.5t-88 79.5q-4 8 -4 11q0 6 6 10l59 30q7 4 12 4q4 0 9 -5q24 -34 58.5 -54t89.5 -20q51 0 83.5 17.5
t32.5 48.5q0 21 -17.5 35.5t-60.5 25.5l-102 24q-76 18 -111.5 54t-35.5 92q0 49 26.5 87t76 59t115.5 21q71 0 126 -26.5t81 -67.5q5 -8 5 -13t-5 -8l-62 -31q-6 -2 -7 -2q-8 0 -13 7q-20 27 -52 43zM267 676q-9 11 -13 11t-15 -11l-53 -52q-5 -6 -8.5 -7t-12.5 -1h-72
q-8 0 -8 5q0 4 6 10l106 105q6 6 12.5 9t17.5 3h61q12 0 23 -11l105 -106q7 -7 7 -11t-9 -4h-77q-14 0 -21 8z" />
    <glyph glyph-name="Scedilla" unicode="&#x15e;" horiz-adv-x="665" 
d="M353 -49q-3 -6 4 -6q48 -2 70.5 -25t22.5 -54q0 -38 -34 -60t-84 -22q-61 0 -104 23q-8 6 -4 12l13 32q3 6 10 3q36 -21 69 -21q26 0 39.5 9t13.5 25q0 21 -20 31.5t-65 11.5q-12 0 -8 9l31 72q-89 5 -158.5 38t-106.5 89q-4 10 -4 12q0 8 10 15l63 44q11 6 17 6
q8 0 13 -7q39 -51 78.5 -72t105.5 -21q72 0 113 24t41 73q0 32 -20.5 54t-72.5 39l-151 46q-83 25 -127 79.5t-44 122.5q0 64 34 113.5t96.5 77.5t144.5 28q79 0 145.5 -27.5t105.5 -75.5q6 -8 6 -13t-6 -10l-71 -53q-4 -3 -8 -3q-5 0 -14 10q-27 31 -63 48.5t-92 17.5
q-66 0 -101.5 -25.5t-35.5 -69.5q0 -61 89 -89l154 -46q173 -52 173 -205q0 -95 -67.5 -153.5t-184.5 -66.5z" />
    <glyph glyph-name="scedilla" unicode="&#x15f;" horiz-adv-x="524" 
d="M269 -49q-3 -6 4 -6q48 -2 70.5 -25t22.5 -54q0 -38 -34 -60t-84 -22q-61 0 -104 23q-8 6 -4 12l13 32q3 6 10 3q36 -21 69 -21q26 0 39.5 9t13.5 25q0 21 -20 31.5t-65 11.5q-12 0 -8 9l31 73q-70 6 -122.5 35.5t-75.5 72.5q-4 8 -4 11q0 6 6 10l59 30q7 4 12 4
q4 0 9 -5q24 -34 58.5 -54t89.5 -20q51 0 83.5 17.5t32.5 48.5q0 21 -17.5 35.5t-60.5 25.5l-102 24q-76 18 -111.5 54t-35.5 92q0 49 26.5 87t76 59t115.5 21q71 0 126 -26.5t81 -67.5q5 -8 5 -13t-5 -8l-62 -31q-6 -2 -7 -2q-8 0 -13 7q-20 27 -52 43t-74 16
q-44 0 -72.5 -18t-28.5 -47q0 -17 14 -30.5t51 -23.5l119 -32q75 -19 110 -58t35 -93q0 -71 -56.5 -115t-148.5 -50z" />
    <glyph glyph-name="Scaron" unicode="&#x160;" horiz-adv-x="665" 
d="M434 628.5q-36 17.5 -92 17.5q-66 0 -101.5 -25.5t-35.5 -69.5q0 -61 89 -89l154 -46q173 -52 173 -205q0 -67 -35 -117t-99.5 -77t-152.5 -27q-98 0 -175 33.5t-117 94.5q-4 10 -4 12q0 8 10 15l63 44q11 6 17 6q8 0 13 -7q39 -51 78.5 -72t105.5 -21q72 0 113 24t41 73
q0 32 -20.5 54t-72.5 39l-151 46q-83 25 -127 79.5t-44 122.5q0 64 34 113.5t96.5 77.5t144.5 28q79 0 145.5 -27.5t105.5 -75.5q6 -8 6 -13t-6 -10l-71 -53q-4 -3 -8 -3q-5 0 -14 10q-27 31 -63 48.5zM422 955h77q9 0 9 -4t-7 -11l-105 -106q-11 -11 -23 -11h-61
q-11 0 -17.5 3t-12.5 9l-106 105q-6 6 -6 10q0 5 8 5h72q9 0 12.5 -1t8.5 -7l53 -52q11 -11 15 -11t13 11l49 52q7 8 21 8z" />
    <glyph glyph-name="scaron" unicode="&#x161;" horiz-adv-x="524" 
d="M335 442q-32 16 -74 16q-44 0 -72.5 -18t-28.5 -47q0 -17 14 -30.5t51 -23.5l119 -32q75 -19 110 -58t35 -93q0 -51 -29.5 -88.5t-82 -57.5t-119.5 -20q-83 0 -145 30.5t-88 79.5q-4 8 -4 11q0 6 6 10l59 30q7 4 12 4q4 0 9 -5q24 -34 58.5 -54t89.5 -20q51 0 83.5 17.5
t32.5 48.5q0 21 -17.5 35.5t-60.5 25.5l-102 24q-76 18 -111.5 54t-35.5 92q0 49 26.5 87t76 59t115.5 21q71 0 126 -26.5t81 -67.5q5 -8 5 -13t-5 -8l-62 -31q-6 -2 -7 -2q-8 0 -13 7q-20 27 -52 43zM337 743h77q9 0 9 -4t-7 -11l-105 -106q-11 -11 -23 -11h-61
q-11 0 -17.5 3t-12.5 9l-106 105q-6 6 -6 10q0 5 8 5h72q9 0 12.5 -1t8.5 -7l53 -52q11 -11 15 -11t13 11l49 52q7 8 21 8z" />
    <glyph glyph-name="uni0162" unicode="&#x162;" horiz-adv-x="669" 
d="M632 726v-78q0 -14 -16 -14h-192q-6 0 -8.5 -2t-2.5 -8v-607q0 -17 -15 -17h-28l-19 -49q-3 -6 4 -6q48 -2 70.5 -25t22.5 -54q0 -38 -34 -60t-84 -22q-61 0 -104 23q-8 6 -4 12l13 32q3 6 10 3q36 -21 69 -21q26 0 39.5 9t13.5 25q0 21 -20 31.5t-65 11.5q-12 0 -8 9
l35 81h-30q-14 0 -14 16v606q0 7 -2.5 9.5t-8.5 2.5h-201q-9 0 -13 3t-4 11v78q0 16 17 16h562q17 0 17 -16z" />
    <glyph glyph-name="uni0163" unicode="&#x163;" horiz-adv-x="417" 
d="M247 428v-267q0 -38 15.5 -53.5t50.5 -15.5h59q6 0 10 -4t4 -10l-1 -52q0 -17 -19 -20q-22 -4 -84 -6l-19 -49q-3 -6 4 -6q48 -2 70.5 -25t22.5 -54q0 -38 -34 -60t-84 -22q-61 0 -104 23q-8 6 -4 12l13 32q3 6 10 3q36 -21 69 -21q26 0 39.5 9t13.5 25q0 21 -20 31.5
t-65 11.5q-12 0 -8 9l36 83q-105 15 -105 125v299q0 13 -12 13h-67q-16 0 -16 15v63q0 13 15 13h74q9 0 9 10l13 154q1 9 4 12.5t10 3.5h89q6 0 10 -4.5t4 -12.5v-153q0 -9 9 -9h113q15 0 15 -14v-63q0 -15 -17 -15h-113q-10 0 -10 -11z" />
    <glyph glyph-name="Tcaron" unicode="&#x164;" horiz-adv-x="669" 
d="M36 726q0 16 17 16h562q17 0 17 -16v-78q0 -14 -16 -14h-192q-6 0 -8.5 -2t-2.5 -8v-607q0 -17 -15 -17h-119q-14 0 -14 16v606q0 7 -2.5 9.5t-8.5 2.5h-201q-9 0 -13 3t-4 11v78zM422 955h77q9 0 9 -4t-7 -11l-105 -106q-11 -11 -23 -11h-61q-11 0 -17.5 3t-12.5 9
l-106 105q-6 6 -6 10q0 5 8 5h72q9 0 12.5 -1t8.5 -7l53 -52q11 -11 15 -11t13 11l49 52q7 8 21 8z" />
    <glyph glyph-name="tcaron" unicode="&#x165;" horiz-adv-x="417" 
d="M257 439q-10 0 -10 -11v-267q0 -38 15.5 -53.5t50.5 -15.5h59q6 0 10 -4t4 -10l-1 -52q0 -17 -19 -20q-36 -6 -110 -6q-68 0 -103.5 31.5t-35.5 95.5v299q0 13 -12 13h-67q-16 0 -16 15v63q0 13 15 13h74q9 0 9 10l13 154q1 9 4 12.5t10 3.5h89q6 0 10 -4.5t4 -12.5v-153
q0 -9 9 -9h113q15 0 15 -14v-63q0 -15 -17 -15h-113zM309.5 577.5q-2.5 3.5 -0.5 8.5l30 74q3 6 3 9q0 4 -8 6l-9 2q-8 1 -10.5 3.5t-2.5 9.5v87q0 12 10 12h73q10 0 10 -10v-102q0 -3 -1 -4.5t-1 -3.5l-36 -83q-2 -7 -7 -9.5t-16 -2.5h-27q-5 0 -7.5 3.5z" />
    <glyph glyph-name="Tbar" unicode="&#x166;" horiz-adv-x="669" 
d="M632 726v-78q0 -14 -16 -14h-192q-6 0 -8.5 -2t-2.5 -8v-211h106q6 0 9.5 -4t3.5 -10v-63q0 -11 -5.5 -15.5t-18.5 -4.5h-95v-299q0 -17 -15 -17h-119q-14 0 -14 16v300h-120q-11 0 -15 4t-4 14v62q0 17 13 17h126v209q0 7 -2.5 9.5t-8.5 2.5h-201q-9 0 -13 3t-4 11v78
q0 16 17 16h562q17 0 17 -16z" />
    <glyph glyph-name="tbar" unicode="&#x167;" horiz-adv-x="417" 
d="M247 428v-100h88q11 0 11 -13v-46q0 -17 -20 -17h-79v-91q0 -38 15.5 -53.5t50.5 -15.5h59q6 0 10 -4t4 -10l-1 -52q0 -17 -19 -20q-36 -6 -110 -6q-68 0 -103.5 31.5t-35.5 95.5v125h-64q-9 0 -12.5 4t-3.5 12v46q0 14 12 14h68v98q0 13 -12 13h-67q-16 0 -16 15v63
q0 13 15 13h74q9 0 9 10l13 154q1 9 4 12.5t10 3.5h89q6 0 10 -4.5t4 -12.5v-153q0 -9 9 -9h113q15 0 15 -14v-63q0 -15 -17 -15h-113q-10 0 -10 -11z" />
    <glyph glyph-name="Utilde" unicode="&#x168;" horiz-adv-x="717" 
d="M572.5 55q-73.5 -65 -214.5 -65q-153 0 -220.5 72.5t-67.5 220.5v441q0 9 4 13.5t10 4.5h120q14 0 14 -16v-465q0 -84 38 -123.5t113 -39.5q155 0 155 166v461q0 17 14 17h95q13 0 13 -16v-461q0 -145 -73.5 -210zM442 849q-32 0 -75 15q-4 1 -24.5 7t-41.5 6
q-20 0 -33.5 -5.5t-30.5 -17.5q-8 -4 -9 -4q-6 0 -9 10l-13 38q-1 3 -1 8q0 6 7 13q20 17 39 25.5t46 8.5q30 0 78 -16q17 -5 34.5 -9.5t32.5 -4.5q32 0 65 23q6 4 9 4q7 0 10 -11l12 -44l1 -5q0 -9 -11 -16q-38 -25 -86 -25z" />
    <glyph glyph-name="utilde" unicode="&#x169;" horiz-adv-x="588" 
d="M395 154v356q0 20 23 20h90q18 0 18 -19l-2 -495q0 -16 -14 -16h-98q-14 0 -14 15v53q0 5 -3 6t-7 -3q-46 -44 -87.5 -62.5t-88.5 -18.5q-68 0 -111.5 43t-43.5 115v361q0 21 21 21h92q9 0 13 -4.5t4 -14.5v-341q0 -39 22 -62t59 -23q61 0 127 69zM357 637q-32 0 -75 15
q-4 1 -24.5 7t-41.5 6q-20 0 -33.5 -5.5t-30.5 -17.5q-8 -4 -9 -4q-6 0 -9 10l-13 38q-1 3 -1 8q0 6 7 13q20 17 39 25.5t46 8.5q30 0 78 -16q17 -5 34.5 -9.5t32.5 -4.5q32 0 65 23q6 4 9 4q7 0 10 -11l12 -44l1 -5q0 -9 -11 -16q-38 -25 -86 -25z" />
    <glyph glyph-name="Umacron" unicode="&#x16a;" horiz-adv-x="717" 
d="M572.5 55q-73.5 -65 -214.5 -65q-153 0 -220.5 72.5t-67.5 220.5v441q0 9 4 13.5t10 4.5h120q14 0 14 -16v-465q0 -84 38 -123.5t113 -39.5q155 0 155 166v461q0 17 14 17h95q13 0 13 -16v-461q0 -145 -73.5 -210zM540 876q0 -17 -20 -17h-306q-9 0 -12 4t-3 12v56
q0 14 11 14h319q11 0 11 -12v-57z" />
    <glyph glyph-name="umacron" unicode="&#x16b;" horiz-adv-x="588" 
d="M395 154v356q0 20 23 20h90q18 0 18 -19l-2 -495q0 -16 -14 -16h-98q-14 0 -14 15v53q0 5 -3 6t-7 -3q-46 -44 -87.5 -62.5t-88.5 -18.5q-68 0 -111.5 43t-43.5 115v361q0 21 21 21h92q9 0 13 -4.5t4 -14.5v-341q0 -39 22 -62t59 -23q61 0 127 69zM455 664q0 -17 -20 -17
h-306q-9 0 -12 4t-3 12v56q0 14 11 14h319q11 0 11 -12v-57z" />
    <glyph glyph-name="Ubreve" unicode="&#x16c;" horiz-adv-x="717" 
d="M572.5 55q-73.5 -65 -214.5 -65q-153 0 -220.5 72.5t-67.5 220.5v441q0 9 4 13.5t10 4.5h120q14 0 14 -16v-465q0 -84 38 -123.5t113 -39.5q155 0 155 166v461q0 17 14 17h95q13 0 13 -16v-461q0 -145 -73.5 -210zM536.5 950.5q2.5 -3.5 0.5 -10.5q-15 -49 -60.5 -79.5
t-107.5 -30.5t-106.5 30t-59.5 82q-1 1 -1 4q0 8 9 8h58q7 0 10.5 -2t8.5 -9q32 -45 81 -45q26 0 48.5 13.5t34.5 32.5q3 6 6.5 8t8.5 2h59q8 0 10.5 -3.5z" />
    <glyph glyph-name="ubreve" unicode="&#x16d;" horiz-adv-x="588" 
d="M395 154v356q0 20 23 20h90q18 0 18 -19l-2 -495q0 -16 -14 -16h-98q-14 0 -14 15v53q0 5 -3 6t-7 -3q-46 -44 -87.5 -62.5t-88.5 -18.5q-68 0 -111.5 43t-43.5 115v361q0 21 21 21h92q9 0 13 -4.5t4 -14.5v-341q0 -39 22 -62t59 -23q61 0 127 69zM451.5 738.5
q2.5 -3.5 0.5 -10.5q-15 -49 -60.5 -79.5t-107.5 -30.5t-106.5 30t-59.5 82q-1 1 -1 4q0 8 9 8h58q7 0 10.5 -2t8.5 -9q32 -45 81 -45q26 0 48.5 13.5t34.5 32.5q3 6 6.5 8t8.5 2h59q8 0 10.5 -3.5z" />
    <glyph glyph-name="Uring" unicode="&#x16e;" horiz-adv-x="717" 
d="M572.5 55q-73.5 -65 -214.5 -65q-153 0 -220.5 72.5t-67.5 220.5v441q0 9 4 13.5t10 4.5h120q14 0 14 -16v-465q0 -84 38 -123.5t113 -39.5q155 0 155 166v461q0 17 14 17h95q13 0 13 -16v-461q0 -145 -73.5 -210zM447.5 772q-31.5 -32 -77.5 -32t-78 32.5t-32 79.5
q0 43 32.5 74t77.5 31q46 0 77.5 -31t31.5 -76q0 -46 -31.5 -78zM406 886q-15 15 -37 15t-38 -15t-16 -37t16 -38t38 -16t37 16t15 38t-15 37z" />
    <glyph glyph-name="uring" unicode="&#x16f;" horiz-adv-x="588" 
d="M395 154v356q0 20 23 20h90q18 0 18 -19l-2 -495q0 -16 -14 -16h-98q-14 0 -14 15v53q0 5 -3 6t-7 -3q-46 -44 -87.5 -62.5t-88.5 -18.5q-68 0 -111.5 43t-43.5 115v361q0 21 21 21h92q9 0 13 -4.5t4 -14.5v-341q0 -39 22 -62t59 -23q61 0 127 69zM362.5 617
q-31.5 -32 -77.5 -32t-78 32.5t-32 79.5q0 43 32.5 74t77.5 31q46 0 77.5 -31t31.5 -76q0 -46 -31.5 -78zM321 731q-15 15 -37 15t-38 -15t-16 -37t16 -38t38 -16t37 16t15 38t-15 37z" />
    <glyph glyph-name="Uhungarumlaut" unicode="&#x170;" horiz-adv-x="717" 
d="M572.5 55q-73.5 -65 -214.5 -65q-153 0 -220.5 72.5t-67.5 220.5v441q0 9 4 13.5t10 4.5h120q14 0 14 -16v-465q0 -84 38 -123.5t113 -39.5q155 0 155 166v461q0 17 14 17h95q13 0 13 -16v-461q0 -145 -73.5 -210zM390 913q6 -10 6 -14q0 -7 -10 -13l-135 -97
q-9 -6 -13 -6q-6 0 -10 6l-22 25q-6 6 -6 11q0 4 4 8l130 127q4 4 8 4t9 -5zM574 913q6 -7 6 -14q0 -8 -9 -13l-135 -97q-9 -6 -13 -6q-6 0 -10 6l-23 25q-5 7 -5 11t4 8l130 127q4 4 8 4t9 -5z" />
    <glyph glyph-name="uhungarumlaut" unicode="&#x171;" horiz-adv-x="588" 
d="M395 154v356q0 20 23 20h90q18 0 18 -19l-2 -495q0 -16 -14 -16h-98q-14 0 -14 15v53q0 5 -3 6t-7 -3q-46 -44 -87.5 -62.5t-88.5 -18.5q-68 0 -111.5 43t-43.5 115v361q0 21 21 21h92q9 0 13 -4.5t4 -14.5v-341q0 -39 22 -62t59 -23q61 0 127 69zM305 701q6 -10 6 -14
q0 -7 -10 -13l-135 -97q-9 -6 -13 -6q-6 0 -10 6l-22 25q-6 6 -6 11q0 4 4 8l130 127q4 4 8 4t9 -5zM489 701q6 -7 6 -14q0 -8 -9 -13l-135 -97q-9 -6 -13 -6q-6 0 -10 6l-23 25q-5 7 -5 11t4 8l130 127q4 4 8 4t9 -5z" />
    <glyph glyph-name="Uogonek" unicode="&#x172;" horiz-adv-x="717" 
d="M646 726v-461q0 -115 -47 -179.5t-138 -85.5q-49 -18 -69 -35t-20 -39q0 -18 9.5 -26.5t31.5 -8.5q32 0 60 14q3 2 8 2q6 0 6 -9v-38q0 -9 -8 -14q-14 -7 -40.5 -12.5t-55.5 -5.5q-51 0 -79.5 21.5t-28.5 61.5q0 24 13 43.5t46 35.5q-139 6 -201.5 78.5t-62.5 214.5v441
q0 9 4 13.5t10 4.5h120q14 0 14 -16v-465q0 -84 38 -123.5t113 -39.5q155 0 155 166v461q0 17 14 17h95q13 0 13 -16z" />
    <glyph glyph-name="uogonek" unicode="&#x173;" horiz-adv-x="588" 
d="M533 -92q6 0 6 -9v-38q0 -9 -8 -14q-14 -7 -40.5 -12.5t-55.5 -5.5q-51 0 -79.5 21.5t-28.5 61.5q0 28 18 49.5t62 39.5q-9 2 -9 14v53q0 5 -3 6t-7 -3q-46 -44 -87.5 -62.5t-88.5 -18.5q-68 0 -111.5 43t-43.5 115v361q0 21 21 21h92q9 0 13 -4.5t4 -14.5v-341
q0 -39 22 -62t59 -23q61 0 127 69v356q0 20 23 20h90q18 0 18 -19l-2 -495q0 -16 -14 -16q-47 -19 -66.5 -35.5t-19.5 -37.5q0 -18 9.5 -26.5t31.5 -8.5q32 0 60 14q3 2 8 2z" />
    <glyph glyph-name="Wcircumflex" unicode="&#x174;" horiz-adv-x="1071" 
d="M1029.5 735q5.5 -7 2.5 -19l-205 -697q-6 -19 -27 -19h-92q-22 0 -28 18l-138 482q-1 9 -4 9t-6 -10l-139 -480q-3 -10 -9.5 -14.5t-18.5 -4.5h-94q-22 0 -28 18l-203 697l-2 9q0 8 6 13t16 5h104q11 0 16 -3.5t7 -11.5l141 -499q3 -11 6 -11t6 9l141 501q3 8 8 11.5
t16 3.5h90q11 0 16 -3.5t7 -11.5l143 -504q3 -8 6 -8q4 0 5 7l140 505q3 15 24 15h76q12 0 17.5 -7zM550 888q-9 11 -13 11t-15 -11l-53 -52q-5 -6 -8.5 -7t-12.5 -1h-72q-8 0 -8 5q0 4 6 10l106 105q6 6 12.5 9t17.5 3h61q12 0 23 -11l105 -106q7 -7 7 -11t-9 -4h-77
q-14 0 -21 8z" />
    <glyph glyph-name="wcircumflex" unicode="&#x175;" horiz-adv-x="811" 
d="M784 524q4 -6 1 -14l-160 -495q-4 -15 -20 -15h-71q-18 0 -24 17l-97 309q-3 9 -7 9t-7 -9l-96 -311q-2 -8 -6.5 -11.5t-13.5 -3.5h-74q-19 0 -23 17l-160 492q-1 2 -1 7q0 6 4 10t11 4h97q8 0 13.5 -4t6.5 -11l100 -319q1 -4 2.5 -7t3.5 -3q5 0 8 11l97 319q5 14 19 14
h72q14 0 19 -15l99 -319q3 -10 7 -10t7 11l97 319q2 6 7.5 10t12.5 4h64q8 0 12 -6zM420 676q-9 11 -13 11t-15 -11l-53 -52q-5 -6 -8.5 -7t-12.5 -1h-72q-8 0 -8 5q0 4 6 10l106 105q6 6 12.5 9t17.5 3h61q12 0 23 -11l105 -106q7 -7 7 -11t-9 -4h-77q-14 0 -21 8z" />
    <glyph glyph-name="Ycircumflex" unicode="&#x176;" horiz-adv-x="715" 
d="M680 733q0 -4 -3 -9l-236 -390q-5 -7 -6 -14.5t-1 -30.5v-267q0 -12 -5.5 -17t-19.5 -5h-103q-11 0 -15.5 4.5t-4.5 14.5v272q0 11 -2 17.5t-8 16.5l-238 396q-4 5 -4 10q0 11 17 11h123q11 0 16 -3t11 -13l161 -281q6 -11 10 -11q3 0 10 10l159 282q5 10 10 13t16 3h100
q13 0 13 -9zM377 888q-9 11 -13 11t-15 -11l-53 -52q-5 -6 -8.5 -7t-12.5 -1h-72q-8 0 -8 5q0 4 6 10l106 105q6 6 12.5 9t17.5 3h61q12 0 23 -11l105 -106q7 -7 7 -11t-9 -4h-77q-14 0 -21 8z" />
    <glyph glyph-name="ycircumflex" unicode="&#x177;" horiz-adv-x="554" 
d="M58 -162q-13 3 -13 14v64q0 15 29 15h66q32 0 55 27t23 57q0 10 -3 19l-192 474q-1 2 -1 7q0 6 4.5 10.5t11.5 4.5h104q7 0 12.5 -4t7.5 -11l124 -329q3 -9 8 -9t9 11l123 328q7 14 19 14h73q8 0 11.5 -6.5t0.5 -13.5l-210 -526q-25 -61 -53.5 -93t-66 -44t-95.5 -12
q-34 0 -47 3zM308 676q-9 11 -13 11t-15 -11l-53 -52q-5 -6 -8.5 -7t-12.5 -1h-72q-8 0 -8 5q0 4 6 10l106 105q6 6 12.5 9t17.5 3h61q12 0 23 -11l105 -106q7 -7 7 -11t-9 -4h-77q-14 0 -21 8z" />
    <glyph glyph-name="Ydieresis" unicode="&#x178;" horiz-adv-x="715" 
d="M680 733q0 -4 -3 -9l-236 -390q-5 -7 -6 -14.5t-1 -30.5v-267q0 -12 -5.5 -17t-19.5 -5h-103q-11 0 -15.5 4.5t-4.5 14.5v272q0 11 -2 17.5t-8 16.5l-238 396q-4 5 -4 10q0 11 17 11h123q11 0 16 -3t11 -13l161 -281q6 -11 10 -11q3 0 10 10l159 282q5 10 10 13t16 3h100
q13 0 13 -9zM331 849q0 -10 -5 -14t-16 -4h-80q-10 0 -13.5 4t-3.5 12v91q0 16 13 16h92q13 0 13 -14v-91zM515 849q0 -10 -5 -14t-17 -4h-79q-10 0 -13.5 3.5t-3.5 12.5v91q0 16 13 16h92q13 0 13 -14v-91z" />
    <glyph glyph-name="Zacute" unicode="&#x179;" horiz-adv-x="664" 
d="M43 3.5q-4 3.5 -4 13.5v32q0 10 2.5 16t12.5 20l357 535q3 5 3 7q0 5 -10 5h-327q-9 0 -12 3.5t-3 12.5v80q0 14 12 14h535q13 0 13 -14v-36q0 -8 -2.5 -13t-9.5 -15l-365 -542l-2 -5q0 -6 10 -6h351q15 0 15 -13v-83q0 -6 -4 -10.5t-13 -4.5h-545q-10 0 -14 3.5z
M479 895l2 -8q0 -10 -15 -15l-231 -65q-3 -1 -8 -1q-9 0 -13 10l-10 31q-2 6 -2 8q0 7 7 10l234 98q2 1 5 1q7 0 11 -9z" />
    <glyph glyph-name="zacute" unicode="&#x17a;" horiz-adv-x="506" 
d="M30 3.5q-4 3.5 -4 13.5v36q0 11 3 17.5t13 19.5l260 344q3 5 3 7q0 5 -10 5h-231q-9 0 -12.5 3t-3.5 13v54q0 14 13 14h399q13 0 13 -13v-40q0 -16 -13 -33l-263 -345q-4 -4 -4 -8q0 -6 9 -6h259q15 0 15 -13v-56q0 -16 -17 -16h-415q-10 0 -14 3.5zM400 683l2 -8
q0 -10 -15 -15l-231 -65q-3 -1 -8 -1q-9 0 -13 10l-10 31q-2 6 -2 8q0 7 7 10l234 98q2 1 5 1q7 0 11 -9z" />
    <glyph glyph-name="Zdotaccent" unicode="&#x17b;" horiz-adv-x="664" 
d="M43 3.5q-4 3.5 -4 13.5v32q0 10 2.5 16t12.5 20l357 535q3 5 3 7q0 5 -10 5h-327q-9 0 -12 3.5t-3 12.5v80q0 14 12 14h535q13 0 13 -14v-36q0 -8 -2.5 -13t-9.5 -15l-365 -542l-2 -5q0 -6 10 -6h351q15 0 15 -13v-83q0 -6 -4 -10.5t-13 -4.5h-545q-10 0 -14 3.5z
M409 838q0 -11 -5 -16t-18 -5h-92q-11 0 -15 4.5t-4 14.5v101q0 17 15 17h105q14 0 14 -16v-100z" />
    <glyph glyph-name="zdotaccent" unicode="&#x17c;" horiz-adv-x="506" 
d="M30 3.5q-4 3.5 -4 13.5v36q0 11 3 17.5t13 19.5l260 344q3 5 3 7q0 5 -10 5h-231q-9 0 -12.5 3t-3.5 13v54q0 14 13 14h399q13 0 13 -13v-40q0 -16 -13 -33l-263 -345q-4 -4 -4 -8q0 -6 9 -6h259q15 0 15 -13v-56q0 -16 -17 -16h-415q-10 0 -14 3.5zM330 626
q0 -11 -5 -16t-18 -5h-92q-11 0 -15 4.5t-4 14.5v101q0 17 15 17h105q14 0 14 -16v-100z" />
    <glyph glyph-name="Zcaron" unicode="&#x17d;" horiz-adv-x="664" 
d="M43 3.5q-4 3.5 -4 13.5v32q0 10 2.5 16t12.5 20l357 535q3 5 3 7q0 5 -10 5h-327q-9 0 -12 3.5t-3 12.5v80q0 14 12 14h535q13 0 13 -14v-36q0 -8 -2.5 -13t-9.5 -15l-365 -542l-2 -5q0 -6 10 -6h351q15 0 15 -13v-83q0 -6 -4 -10.5t-13 -4.5h-545q-10 0 -14 3.5z
M425 955h77q9 0 9 -4t-7 -11l-105 -106q-11 -11 -23 -11h-61q-11 0 -17.5 3t-12.5 9l-106 105q-6 6 -6 10q0 5 8 5h72q9 0 12.5 -1t8.5 -7l53 -52q11 -11 15 -11t13 11l49 52q7 8 21 8z" />
    <glyph glyph-name="zcaron" unicode="&#x17e;" horiz-adv-x="506" 
d="M30 3.5q-4 3.5 -4 13.5v36q0 11 3 17.5t13 19.5l260 344q3 5 3 7q0 5 -10 5h-231q-9 0 -12.5 3t-3.5 13v54q0 14 13 14h399q13 0 13 -13v-40q0 -16 -13 -33l-263 -345q-4 -4 -4 -8q0 -6 9 -6h259q15 0 15 -13v-56q0 -16 -17 -16h-415q-10 0 -14 3.5zM346 743h77q9 0 9 -4
t-7 -11l-105 -106q-11 -11 -23 -11h-61q-11 0 -17.5 3t-12.5 9l-106 105q-6 6 -6 10q0 5 8 5h72q9 0 12.5 -1t8.5 -7l53 -52q11 -11 15 -11t13 11l49 52q7 8 21 8z" />
    <glyph glyph-name="uni018F" unicode="&#x18f;" horiz-adv-x="769" 
d="M523 570.5q-37 64.5 -138 64.5q-50 0 -83 -18.5t-52 -44t-38 -63.5q-3 -5 -6.5 -12t-7.5 -14q-3 -4 -7 -4t-12 3l-94 44q-6 3 -6 9q0 5 3 12q41 86 111 145.5t191 59.5q112 0 187 -52t110.5 -138t35.5 -188q0 -104 -41 -192t-117 -140t-177 -52q-168 0 -249 105.5
t-81 286.5q0 13 2.5 18t13.5 5h478q14 0 14 15q0 86 -37 150.5zM227 308q-9 0 -12.5 -2.5t-3.5 -10.5q0 -83 42 -140.5t128 -57.5q92 0 131 56t46 155h-331z" />
    <glyph glyph-name="florin" unicode="&#x192;" horiz-adv-x="491" 
d="M433 515l-12 -63q-1 -13 -17 -13h-93q-11 0 -12 -10l-81 -464q-11 -64 -53.5 -100t-108.5 -36h-88q-20 0 -17 18l9 56q1 6 5 10t10 4h47q33 1 48.5 16.5t22.5 57.5l76 439q2 9 -5 9h-64q-8 0 -11 3t-2 10l12 63q2 15 19 15h58q7 0 9.5 3t4.5 10l11 65q11 64 53.5 99
t108.5 35h95q18 0 16 -18l-10 -56q-1 -6 -5 -10t-11 -4h-56q-24 0 -43.5 -19t-24.5 -47l-8 -48v-2q0 -8 9 -8h94q16 0 14 -15z" />
    <glyph glyph-name="uni01C4" unicode="&#x1c4;" horiz-adv-x="1385" 
d="M299 741q391 -9 391 -367q0 -179 -100.5 -276.5t-297.5 -97.5h-193q-20 0 -20 21v703q0 10 4 14t15 4q143 0 201 -1zM227 622v-504q0 -7 3 -9.5t10 -2.5h25q141 0 205.5 62t64.5 206q0 93 -26 148.5t-77.5 81.5t-134.5 30l-61 2q-9 0 -9 -14zM764 3.5q-4 3.5 -4 13.5v32
q0 10 2.5 16t12.5 20l357 535q3 5 3 7q0 5 -10 5h-327q-9 0 -12 3.5t-3 12.5v80q0 14 12 14h535q13 0 13 -14v-36q0 -8 -2.5 -13t-9.5 -15l-365 -542l-2 -5q0 -6 10 -6h351q15 0 15 -13v-83q0 -6 -4 -10.5t-13 -4.5h-545q-10 0 -14 3.5zM1146 955h77q9 0 9 -4t-7 -11
l-105 -106q-11 -11 -23 -11h-61q-11 0 -17.5 3t-12.5 9l-106 105q-6 6 -6 10q0 5 8 5h72q9 0 12.5 -1t8.5 -7l53 -52q11 -11 15 -11t13 11l49 52q7 8 21 8z" />
    <glyph glyph-name="uni01C5" unicode="&#x1c5;" horiz-adv-x="1247" 
d="M299 741q391 -9 391 -367q0 -179 -100.5 -276.5t-297.5 -97.5h-193q-20 0 -20 21v703q0 10 4 14t15 4q143 0 201 -1zM227 622v-504q0 -7 3 -9.5t10 -2.5h25q141 0 205.5 62t64.5 206q0 93 -26 148.5t-77.5 81.5t-134.5 30l-61 2q-9 0 -9 -14zM771 3.5q-4 3.5 -4 13.5v36
q0 11 3 17.5t13 19.5l260 344q3 5 3 7q0 5 -10 5h-231q-9 0 -12.5 3t-3.5 13v54q0 14 13 14h399q13 0 13 -13v-40q0 -16 -13 -33l-263 -345q-4 -4 -4 -8q0 -6 9 -6h259q15 0 15 -13v-56q0 -16 -17 -16h-415q-10 0 -14 3.5zM1087 743h77q9 0 9 -4t-7 -11l-105 -106
q-11 -11 -23 -11h-61q-11 0 -17.5 3t-12.5 9l-106 105q-6 6 -6 10q0 5 8 5h72q9 0 12.5 -1t8.5 -7l53 -52q11 -11 15 -11t13 11l49 52q7 8 21 8z" />
    <glyph glyph-name="uni01C6" unicode="&#x1c6;" horiz-adv-x="1112" 
d="M415 18v33q0 9 -5 9q-3 0 -8 -5q-29 -28 -64.5 -46.5t-86.5 -18.5q-62 0 -110 30.5t-75.5 91t-27.5 148.5q0 82 29.5 146t80.5 99t114 35q42 0 73.5 -13.5t60.5 -39.5q5 -5 11 -5t6 13v231q0 16 14 16h101q15 0 15 -17v-706q0 -10 -4.5 -14.5t-16.5 -4.5h-88
q-19 0 -19 18zM360.5 440.5q-25.5 13.5 -57.5 13.5q-60 0 -96.5 -48.5t-36.5 -143.5q0 -96 35.5 -142t94.5 -46q31 0 57 14.5t41 37.5t15 47v226q-27 28 -52.5 41.5zM636 3.5q-4 3.5 -4 13.5v36q0 11 3 17.5t13 19.5l260 344q3 5 3 7q0 5 -10 5h-231q-9 0 -12.5 3t-3.5 13
v54q0 14 13 14h399q13 0 13 -13v-40q0 -16 -13 -33l-263 -345q-4 -4 -4 -8q0 -6 9 -6h259q15 0 15 -13v-56q0 -16 -17 -16h-415q-10 0 -14 3.5zM952 743h77q9 0 9 -4t-7 -11l-105 -106q-11 -11 -23 -11h-61q-11 0 -17.5 3t-12.5 9l-106 105q-6 6 -6 10q0 5 8 5h72
q9 0 12.5 -1t8.5 -7l53 -52q11 -11 15 -11t13 11l49 52q7 8 21 8z" />
    <glyph glyph-name="uni01C7" unicode="&#x1c7;" horiz-adv-x="1056" 
d="M94 742h119q14 0 14 -16v-604q0 -7 2.5 -9.5t8.5 -2.5h328q16 0 16 -14v-81q0 -6 -4 -10.5t-13 -4.5h-467q-11 0 -15 4.5t-4 13.5v707q0 17 15 17zM935.5 36q-46.5 -46 -144.5 -46q-31 0 -57 4.5t-60 13.5q-11 2 -15.5 8.5t-3.5 19.5l9 78q2 17 17 14l25.5 -8.5
t45.5 -6.5q43 0 62.5 23.5t19.5 81.5v507q0 17 15 17h119q14 0 14 -16v-544q0 -100 -46.5 -146z" />
    <glyph glyph-name="uni01C8" unicode="&#x1c8;" horiz-adv-x="875" 
d="M94 742h119q14 0 14 -16v-604q0 -7 2.5 -9.5t8.5 -2.5h328q16 0 16 -14v-81q0 -6 -4 -10.5t-13 -4.5h-467q-11 0 -15 4.5t-4 13.5v707q0 17 15 17zM815 628q0 -12 -5.5 -17.5t-18.5 -5.5h-91q-20 0 -20 20v98q0 9 4.5 14t12.5 5h102q7 0 11.5 -4.5t4.5 -12.5v-97z
M772.5 -130q-39.5 -40 -127.5 -40q-43 0 -55 3.5t-12 14.5v67q0 6 3.5 11t9.5 6l46 4q24 2 34.5 16t10.5 48v513q0 17 16 17h101q13 0 13 -16v-520q0 -84 -39.5 -124z" />
    <glyph glyph-name="uni01C9" unicode="&#x1c9;" horiz-adv-x="513" 
d="M193 22q0 -13 -5 -17.5t-18 -4.5h-88q-11 0 -15.5 4t-4.5 14l3 707q0 17 15 17h99q14 0 14 -16v-704zM453 628q0 -12 -5.5 -17.5t-18.5 -5.5h-91q-20 0 -20 20v98q0 9 4.5 14t12.5 5h102q7 0 11.5 -4.5t4.5 -12.5v-97zM410.5 -130q-39.5 -40 -127.5 -40q-43 0 -55 3.5
t-12 14.5v67q0 6 3.5 11t9.5 6l46 4q24 2 34.5 16t10.5 48v513q0 17 16 17h101q13 0 13 -16v-520q0 -84 -39.5 -124z" />
    <glyph glyph-name="uni01CA" unicode="&#x1ca;" horiz-adv-x="1195" 
d="M667 742q7 0 9.5 -3t2.5 -11v-713q0 -15 -17 -15h-83q-8 0 -13 2t-11 9l-342 486q-4 6 -7.5 5.5t-3.5 -6.5v-480v-3q0 -13 -17 -13h-88q-18 0 -18 16v709q0 17 16 17h100q10 0 15 -2.5t11 -10.5l322 -464q4 -7 9 -7q6 0 6 10v458q0 16 16 16h93zM1074.5 36
q-46.5 -46 -144.5 -46q-31 0 -57 4.5t-60 13.5q-11 2 -15.5 8.5t-3.5 19.5l9 78q2 17 17 14l25.5 -8.5t45.5 -6.5q43 0 62.5 23.5t19.5 81.5v507q0 17 15 17h119q14 0 14 -16v-544q0 -100 -46.5 -146z" />
    <glyph glyph-name="uni01CB" unicode="&#x1cb;" horiz-adv-x="1014" 
d="M667 742q7 0 9.5 -3t2.5 -11v-713q0 -15 -17 -15h-83q-8 0 -13 2t-11 9l-342 486q-4 6 -7.5 5.5t-3.5 -6.5v-480v-3q0 -13 -17 -13h-88q-18 0 -18 16v709q0 17 16 17h100q10 0 15 -2.5t11 -10.5l322 -464q4 -7 9 -7q6 0 6 10v458q0 16 16 16h93zM954 628
q0 -12 -5.5 -17.5t-18.5 -5.5h-91q-20 0 -20 20v98q0 9 4.5 14t12.5 5h102q7 0 11.5 -4.5t4.5 -12.5v-97zM911.5 -130q-39.5 -40 -127.5 -40q-43 0 -55 3.5t-12 14.5v67q0 6 3.5 11t9.5 6l46 4q24 2 34.5 16t10.5 48v513q0 17 16 17h101q13 0 13 -16v-520q0 -84 -39.5 -124z
" />
    <glyph glyph-name="uni01CC" unicode="&#x1cc;" horiz-adv-x="848" 
d="M67 4q-4 4 -4 14v495q0 17 14 17h100q13 0 13 -15v-52q0 -6 3 -7t8 3q47 41 87.5 61t87.5 20q74 0 116.5 -42.5t42.5 -112.5v-364q0 -21 -21 -21h-92q-10 0 -13.5 4t-3.5 14v344q0 39 -21.5 60.5t-62.5 21.5q-35 0 -63.5 -16t-64.5 -52v-356q0 -11 -5 -15.5t-18 -4.5h-89
q-10 0 -14 4zM788 628q0 -12 -5.5 -17.5t-18.5 -5.5h-91q-20 0 -20 20v98q0 9 4.5 14t12.5 5h102q7 0 11.5 -4.5t4.5 -12.5v-97zM745.5 -130q-39.5 -40 -127.5 -40q-43 0 -55 3.5t-12 14.5v67q0 6 3.5 11t9.5 6l46 4q24 2 34.5 16t10.5 48v513q0 17 16 17h101q13 0 13 -16
v-520q0 -84 -39.5 -124z" />
    <glyph glyph-name="uni01EA" unicode="&#x1ea;" horiz-adv-x="770" 
d="M408 -35.5q-20 -17.5 -20 -38.5q0 -18 9.5 -26.5t31.5 -8.5q32 0 60 14q3 2 8 2q6 0 6 -9v-38q0 -9 -8 -14q-14 -7 -40.5 -12.5t-55.5 -5.5q-51 0 -79.5 21.5t-28.5 61.5q0 25 13.5 44.5t47.5 35.5q-141 11 -220.5 110.5t-79.5 266.5q0 119 41 205.5t116 132.5t177 46
q101 0 176 -46t116 -132.5t41 -204.5q0 -148 -64 -244.5t-178 -123.5q-49 -19 -69 -36.5zM250 161q44 -65 137 -65q91 0 134 65t43 206q0 144 -43.5 212t-134.5 68t-135.5 -68t-44.5 -212q0 -141 44 -206z" />
    <glyph glyph-name="uni01EB" unicode="&#x1eb;" horiz-adv-x="599" 
d="M310.5 -35q-20.5 -17 -20.5 -39q0 -18 9.5 -26.5t31.5 -8.5q32 0 60 14q3 2 8 2q6 0 6 -9v-38q0 -9 -8 -14q-14 -7 -40.5 -12.5t-55.5 -5.5q-51 0 -79.5 21.5t-28.5 61.5q0 25 14.5 45.5t49.5 36.5q-66 9 -116 45t-77.5 94t-27.5 130q0 81 34 144.5t94 98.5t136 35
q77 0 137 -35.5t93 -98.5t33 -143q0 -96 -48.5 -166t-131.5 -95q-52 -20 -72.5 -37zM202.5 127q34.5 -48 97.5 -48q64 0 97.5 48t33.5 138q0 91 -34 140t-97 49t-97.5 -49t-34.5 -140q0 -90 34.5 -138z" />
    <glyph glyph-name="uni01F1" unicode="&#x1f1;" horiz-adv-x="1360" 
d="M299 741q391 -9 391 -367q0 -179 -100.5 -276.5t-297.5 -97.5h-193q-20 0 -20 21v703q0 10 4 14t15 4q143 0 201 -1zM227 622v-504q0 -7 3 -9.5t10 -2.5h25q141 0 205.5 62t64.5 206q0 93 -26 148.5t-77.5 81.5t-134.5 30l-61 2q-9 0 -9 -14zM739 3.5q-4 3.5 -4 13.5v32
q0 10 2.5 16t12.5 20l357 535q3 5 3 7q0 5 -10 5h-327q-9 0 -12 3.5t-3 12.5v80q0 14 12 14h535q13 0 13 -14v-36q0 -8 -2.5 -13t-9.5 -15l-365 -542l-2 -5q0 -6 10 -6h351q15 0 15 -13v-83q0 -6 -4 -10.5t-13 -4.5h-545q-10 0 -14 3.5z" />
    <glyph glyph-name="uni01F2" unicode="&#x1f2;" horiz-adv-x="1212" 
d="M299 741q391 -9 391 -367q0 -179 -100.5 -276.5t-297.5 -97.5h-193q-20 0 -20 21v703q0 10 4 14t15 4q143 0 201 -1zM227 622v-504q0 -7 3 -9.5t10 -2.5h25q141 0 205.5 62t64.5 206q0 93 -26 148.5t-77.5 81.5t-134.5 30l-61 2q-9 0 -9 -14zM736 3.5q-4 3.5 -4 13.5v36
q0 11 3 17.5t13 19.5l260 344q3 5 3 7q0 5 -10 5h-231q-9 0 -12.5 3t-3.5 13v54q0 14 13 14h399q13 0 13 -13v-40q0 -16 -13 -33l-263 -345q-4 -4 -4 -8q0 -6 9 -6h259q15 0 15 -13v-56q0 -16 -17 -16h-415q-10 0 -14 3.5z" />
    <glyph glyph-name="uni01F3" unicode="&#x1f3;" horiz-adv-x="1112" 
d="M415 18v33q0 9 -5 9q-3 0 -8 -5q-29 -28 -64.5 -46.5t-86.5 -18.5q-62 0 -110 30.5t-75.5 91t-27.5 148.5q0 82 29.5 146t80.5 99t114 35q42 0 73.5 -13.5t60.5 -39.5q5 -5 11 -5t6 13v231q0 16 14 16h101q15 0 15 -17v-706q0 -10 -4.5 -14.5t-16.5 -4.5h-88
q-19 0 -19 18zM360.5 440.5q-25.5 13.5 -57.5 13.5q-60 0 -96.5 -48.5t-36.5 -143.5q0 -96 35.5 -142t94.5 -46q31 0 57 14.5t41 37.5t15 47v226q-27 28 -52.5 41.5zM636 3.5q-4 3.5 -4 13.5v36q0 11 3 17.5t13 19.5l260 344q3 5 3 7q0 5 -10 5h-231q-9 0 -12.5 3t-3.5 13
v54q0 14 13 14h399q13 0 13 -13v-40q0 -16 -13 -33l-263 -345q-4 -4 -4 -8q0 -6 9 -6h259q15 0 15 -13v-56q0 -16 -17 -16h-415q-10 0 -14 3.5z" />
    <glyph glyph-name="uni01F4" unicode="&#x1f4;" horiz-adv-x="747" 
d="M204.5 36.5q-73.5 46.5 -113.5 132t-40 199.5q0 117 41.5 204t117 133.5t175.5 46.5q75 0 137.5 -29.5t102 -77t49.5 -101.5l2 -11q0 -10 -12 -12l-111 -17q-8 0 -10.5 3t-4.5 11q-9 55 -51 91.5t-105 36.5q-176 0 -176 -272q0 -144 46 -211t134 -67q70 0 112 40.5
t50 96.5l1 40q1 2 1 5q0 8 -10 8h-136q-8 0 -11 3t-3 12v64q0 12 14 12l260 -1q12 0 18 -5.5t6 -14.5v-342q0 -14 -13 -14h-29q-9 0 -14.5 3t-9.5 12l-22 79q-2 4 -4.5 3.5t-5.5 -4.5q-75 -103 -213 -103q-99 0 -172.5 46.5zM516 895l2 -8q0 -10 -15 -15l-231 -65
q-3 -1 -8 -1q-9 0 -13 10l-10 31q-2 6 -2 8q0 7 7 10l234 98q2 1 5 1q7 0 11 -9z" />
    <glyph glyph-name="uni01F5" unicode="&#x1f5;" horiz-adv-x="622" 
d="M599 528v-56q0 -25 -22 -22q-8 1 -22 1q-15 0 -27 -3q-26 -6 -20 -23q6 -16 9 -26.5t3 -26.5q0 -46 -26.5 -83t-79 -58.5t-127.5 -21.5q-62 0 -89.5 -10t-27.5 -27q0 -14 16.5 -20t55.5 -8l138 -8q95 -5 141.5 -42.5t46.5 -100.5q0 -77 -71.5 -122.5t-203.5 -45.5
q-139 0 -209.5 33.5t-70.5 99.5q0 33 24.5 57.5t70.5 43.5q6 2 6 5t-6 6q-54 24 -54 68q0 26 25 48t66 38q7 4 7 6q0 3 -6 6q-93 44 -93 135q0 77 63.5 122t180.5 45q101 0 156 -45q7 -5 13 -5q7 0 13 6q18 22 47.5 38t52.5 16q20 0 20 -20zM372 302q29 25 29 68
q0 46 -29 72.5t-86 26.5q-54 0 -84.5 -27t-30.5 -72q0 -42 30.5 -67.5t84.5 -25.5q57 0 86 25zM207 42q-30 2 -57.5 -18t-27.5 -49q0 -41 43.5 -62t137.5 -21q73 0 111 20.5t38 59.5q0 58 -86 62zM433 683l2 -8q0 -10 -15 -15l-231 -65q-3 -1 -8 -1q-9 0 -13 10l-10 31
q-2 6 -2 8q0 7 7 10l234 98q2 1 5 1q7 0 11 -9z" />
    <glyph glyph-name="Aringacute" unicode="&#x1fa;" horiz-adv-x="678" 
d="M670 15q0 -6 -3.5 -10.5t-9.5 -4.5h-122q-14 0 -18 13l-54 162q-2 5 -4 7.5t-8 2.5h-243q-10 0 -13 -9l-55 -164q-3 -12 -18 -12h-95q-6 0 -10 4t-4 11q0 2 2 10l240 699q2 7 5 10q-23 28 -23 67q0 35 22.5 61t56.5 34l11 45q3 13 10 18t19 5h36q14 0 14 -13q0 -2 -2 -10
l-21 -49q29 -12 47 -36.5t18 -56.5q0 -37 -23 -65q5 -4 6 -12l237 -698q2 -6 2 -9zM304 835q-16 -15 -16 -37t16 -38t37 -16q22 0 37.5 16t15.5 38t-15 37t-38 15q-21 0 -37 -15zM425 306q0 5 -1 8l-89 267q-1 3 -2.5 5t-3.5 2q-3 0 -6 -8l-90 -266l-2 -9q0 -7 9 -7h176
q9 0 9 8z" />
    <glyph glyph-name="aringacute" unicode="&#x1fb;" horiz-adv-x="558" 
d="M196 -10q-76 0 -120.5 40.5t-44.5 105.5q0 83 74 132t207 54l50 3q16 2 16 15v23q0 44 -26.5 68.5t-72.5 24.5q-76 0 -117 -66q-3 -4 -5.5 -6.5t-6.5 -2.5q-5 0 -8 1l-84 21q-8 2 -8 9q0 5 4 13q26 56 85.5 85.5t145.5 29.5q112 0 164.5 -44t52.5 -124v-352
q0 -11 -3.5 -15.5t-13.5 -4.5h-85q-9 0 -13 6t-6 18l-1 30q-1 9 -7 9q-3 0 -13 -8q-70 -65 -164 -65zM374.5 255q-3.5 4 -11.5 4l-41 -3q-70 -5 -116.5 -31.5t-46.5 -72.5q0 -34 24.5 -54t65.5 -20q52 0 91 32q38 30 38 61v71q0 9 -3.5 13zM423 889l2 -8q0 -10 -15 -15
l-231 -65q-3 -1 -8 -1q-9 0 -13 10l-10 31q-2 6 -2 8q0 7 7 10l234 98q2 1 5 1q7 0 11 -9zM376.5 602q-31.5 -32 -77.5 -32t-78 32.5t-32 79.5q0 43 32.5 74t77.5 31q46 0 77.5 -31t31.5 -76q0 -46 -31.5 -78zM335 716q-15 15 -37 15t-38 -15t-16 -37t16 -38t38 -16t37 16
t15 38t-15 37z" />
    <glyph glyph-name="AEacute" unicode="&#x1fc;" horiz-adv-x="1056" 
d="M1010.5 107q3.5 -3 3.5 -11v-81q0 -15 -16 -15h-476q-10 0 -14.5 4t-4.5 14v157q0 10 -10 10h-224q-10 0 -15 -9l-89 -164q-7 -12 -20 -12h-97q-11 0 -11 11q0 7 4 14l380 699q5 10 10.5 14t15.5 4h543q13 0 13 -15l-1 -76q0 -19 -18 -19h-317q-16 0 -16 -14v-175
q0 -15 14 -15h219q14 0 14 -15v-81q0 -12 -13 -12h-221q-13 0 -13 -12v-186q0 -7 2 -9.5t8 -2.5h338q8 0 11.5 -3zM503 313v285q-2 17 -11 17t-18 -17l-157 -284q-4 -5 -4 -11q0 -5 8 -5h168q14 0 14 15zM841 895l2 -8q0 -10 -15 -15l-231 -65q-3 -1 -8 -1q-9 0 -13 10
l-10 31q-2 6 -2 8q0 7 7 10l234 98q2 1 5 1q7 0 11 -9z" />
    <glyph glyph-name="aeacute" unicode="&#x1fd;" horiz-adv-x="922" 
d="M511.5 235.5q-3.5 -4.5 -3.5 -16.5q0 -37 19.5 -68.5t52.5 -50.5t73 -19q45 0 75.5 18t63.5 54q5 5 7 5q3 0 9 -3l61 -27q7 -3 7 -9q0 -1 -4 -9q-42 -63 -98.5 -91.5t-136.5 -28.5q-68 0 -119 27.5t-87 69.5q-3 3 -5 3t-4 -3q-43 -46 -94.5 -71.5t-126.5 -25.5
q-81 0 -125.5 40.5t-44.5 109.5q0 79 67 126t200 55l62 4q18 2 18 15v23q0 44 -26 68.5t-75 24.5q-74 0 -116 -66q-4 -9 -11 -9q-5 0 -9 1l-83 21q-6 2 -6 13q0 3 2 9q31 58 85.5 86.5t143.5 28.5q70 -1 114.5 -19t67.5 -56q30 37 74 56t97 19q75 0 132 -33t89 -95.5
t32 -148.5q0 -12 -3.5 -17t-14.5 -6h-346q-10 0 -13.5 -4.5zM547.5 419q-37.5 -39 -37.5 -104l235 -1q10 0 13.5 3t3.5 12q0 31 -15 61t-43 49t-64 19q-55 0 -92.5 -39zM361 254l-49 -4q-68 -6 -110.5 -32t-42.5 -70q0 -35 24.5 -55.5t67.5 -19.5q52 2 89.5 29t37.5 65v70
q0 17 -17 17zM592 683l2 -8q0 -10 -15 -15l-231 -65q-3 -1 -8 -1q-9 0 -13 10l-10 31q-2 6 -2 8q0 7 7 10l234 98q2 1 5 1q7 0 11 -9z" />
    <glyph glyph-name="Oslashacute" unicode="&#x1fe;" horiz-adv-x="752" 
d="M741 694q0 -5 -5 -10l-80 -85q54 -93 54 -230q0 -117 -40.5 -202.5t-115.5 -131t-177 -45.5q-139 0 -225 81l-64 -68q-10 -10 -16 -10q-7 0 -16 9l-30 29q-9 11 -9 17q0 4 5 11l75 79q-55 92 -55 230q0 119 41 205.5t116.5 132.5t177.5 46q137 0 225 -85l69 74q7 7 15 7
q5 0 8 -3l42 -41q5 -5 5 -10zM215 256l296 321q-43 70 -134 70t-134.5 -68t-43.5 -212q0 -67 16 -111zM537 481l-295 -320q44 -64 135 -64q92 0 134 64.5t42 205.5q0 69 -16 114zM513 895l2 -8q0 -10 -15 -15l-231 -65q-3 -1 -8 -1q-9 0 -13 10l-10 31q-2 6 -2 8q0 7 7 10
l234 98q2 1 5 1q7 0 11 -9z" />
    <glyph glyph-name="oslashacute" unicode="&#x1ff;" horiz-adv-x="591" 
d="M572 488q0 -5 -6 -11l-51 -48q47 -70 47 -166q0 -79 -33.5 -141t-93.5 -97t-137 -35q-53 0 -98 16.5t-79 46.5l-46 -44q-9 -9 -16 -9t-15 9l-15 16q-9 9 -9 16t7 13l51 49q-43 68 -43 159q0 81 34 144.5t94 98.5t136 35q103 0 173 -61l45 43q8 8 15 8q5 0 10 -5l25 -26
q5 -5 5 -11zM174 194l221 212q-34 48 -96 48q-63 0 -97.5 -49t-34.5 -140q0 -42 7 -71zM423 340l-223 -211q35 -50 99 -50t97.5 48t33.5 138q0 37 -7 75zM433 683l2 -8q0 -10 -15 -15l-231 -65q-3 -1 -8 -1q-9 0 -13 10l-10 31q-2 6 -2 8q0 7 7 10l234 98q2 1 5 1q7 0 11 -9
z" />
    <glyph glyph-name="uni0200" unicode="&#x200;" horiz-adv-x="756" 
d="M37 14q0 3 2 11l252 699q4 10 9 14t15 4h125q22 0 28 -20l250 -698q2 -6 2 -9q0 -6 -3.5 -10.5t-9.5 -4.5h-121q-14 0 -18 13l-58 162q-2 5 -4 7.5t-8 2.5h-261q-9 0 -12 -9l-60 -164q-3 -12 -18 -12h-97q-13 0 -13 14zM462 298q9 0 9 8q0 5 -1 8l-96 267q-3 7 -7 7
t-7 -8l-97 -266q-2 -6 -2 -9q0 -7 10 -7h191zM202 964q5 0 9 -4l130 -127q4 -4 4 -8q0 -5 -6 -11l-22 -25q-5 -6 -10 -6t-14 6l-134 97q-10 6 -10 13q0 4 6 14l38 46q5 5 9 5zM387 964q5 0 8 -4l130 -127q4 -4 4 -8t-5 -11l-23 -25q-4 -6 -10 -6q-4 0 -13 6l-135 97
q-9 5 -9 13q0 7 6 14l38 46q5 5 9 5z" />
    <glyph glyph-name="uni0201" unicode="&#x201;" horiz-adv-x="558" 
d="M196 -10q-76 0 -120.5 40.5t-44.5 105.5q0 83 74 132t207 54l50 3q16 2 16 15v23q0 44 -26.5 68.5t-72.5 24.5q-76 0 -117 -66q-3 -4 -5.5 -6.5t-6.5 -2.5q-5 0 -8 1l-84 21q-8 2 -8 9q0 5 4 13q26 56 85.5 85.5t145.5 29.5q112 0 164.5 -44t52.5 -124v-352
q0 -11 -3.5 -15.5t-13.5 -4.5h-85q-9 0 -13 6t-6 18l-1 30q-1 9 -7 9q-3 0 -13 -8q-70 -65 -164 -65zM374.5 255q-3.5 4 -11.5 4l-41 -3q-70 -5 -116.5 -31.5t-46.5 -72.5q0 -34 24.5 -54t65.5 -20q52 0 91 32q38 30 38 61v71q0 9 -3.5 13zM110 752q5 0 9 -4l130 -127
q4 -4 4 -8q0 -5 -6 -11l-22 -25q-5 -6 -10 -6t-14 6l-134 97q-10 6 -10 13q0 4 6 14l38 46q5 5 9 5zM295 752q5 0 8 -4l130 -127q4 -4 4 -8t-5 -11l-23 -25q-4 -6 -10 -6q-4 0 -13 6l-135 97q-9 5 -9 13q0 7 6 14l38 46q5 5 9 5z" />
    <glyph glyph-name="uni0202" unicode="&#x202;" horiz-adv-x="756" 
d="M37 14q0 3 2 11l252 699q4 10 9 14t15 4h125q22 0 28 -20l250 -698q2 -6 2 -9q0 -6 -3.5 -10.5t-9.5 -4.5h-121q-14 0 -18 13l-58 162q-2 5 -4 7.5t-8 2.5h-261q-9 0 -12 -9l-60 -164q-3 -12 -18 -12h-97q-13 0 -13 14zM462 298q9 0 9 8q0 5 -1 8l-96 267q-3 7 -7 7
t-7 -8l-97 -266q-2 -6 -2 -9q0 -7 10 -7h191zM472 833q-5 0 -8.5 2t-6.5 8q-12 19 -34.5 32.5t-48.5 13.5q-49 0 -81 -45q-5 -7 -8.5 -9t-10.5 -2h-58q-6 0 -8 4t0 8q15 52 59.5 82t106.5 30t107.5 -30.5t60.5 -79.5l1 -6q0 -8 -12 -8h-59z" />
    <glyph glyph-name="uni0203" unicode="&#x203;" horiz-adv-x="558" 
d="M196 -10q-76 0 -120.5 40.5t-44.5 105.5q0 83 74 132t207 54l50 3q16 2 16 15v23q0 44 -26.5 68.5t-72.5 24.5q-76 0 -117 -66q-3 -4 -5.5 -6.5t-6.5 -2.5q-5 0 -8 1l-84 21q-8 2 -8 9q0 5 4 13q26 56 85.5 85.5t145.5 29.5q112 0 164.5 -44t52.5 -124v-352
q0 -11 -3.5 -15.5t-13.5 -4.5h-85q-9 0 -13 6t-6 18l-1 30q-1 9 -7 9q-3 0 -13 -8q-70 -65 -164 -65zM374.5 255q-3.5 4 -11.5 4l-41 -3q-70 -5 -116.5 -31.5t-46.5 -72.5q0 -34 24.5 -54t65.5 -20q52 0 91 32q38 30 38 61v71q0 9 -3.5 13zM380 621q-5 0 -8.5 2t-6.5 8
q-12 19 -34.5 32.5t-48.5 13.5q-49 0 -81 -45q-5 -7 -8.5 -9t-10.5 -2h-58q-6 0 -8 4t0 8q15 52 59.5 82t106.5 30t107.5 -30.5t60.5 -79.5l1 -6q0 -8 -12 -8h-59z" />
    <glyph glyph-name="uni0204" unicode="&#x204;" horiz-adv-x="645" 
d="M94 742h485q13 0 13 -15v-76q0 -19 -18 -19h-330q-17 0 -17 -14v-175q0 -15 14 -15h228q15 0 15 -15v-81q0 -12 -14 -12h-230q-13 0 -13 -12v-186q0 -7 2.5 -9.5t8.5 -2.5h350q9 0 12.5 -3t3.5 -11v-81q0 -6 -4 -10.5t-13 -4.5h-489q-10 0 -14.5 4t-4.5 14v707
q0 17 15 17zM167 964q5 0 9 -4l130 -127q4 -4 4 -8q0 -5 -6 -11l-22 -25q-5 -6 -10 -6t-14 6l-134 97q-10 6 -10 13q0 4 6 14l38 46q5 5 9 5zM352 964q5 0 8 -4l130 -127q4 -4 4 -8t-5 -11l-23 -25q-4 -6 -10 -6q-4 0 -13 6l-135 97q-9 5 -9 13q0 7 6 14l38 46q5 5 9 5z" />
    <glyph glyph-name="uni0205" unicode="&#x205;" horiz-adv-x="584" 
d="M190 150.5q19 -32.5 52.5 -51t73.5 -18.5q41 0 74.5 17.5t63.5 54.5q5 5 8 5t9 -3l61 -27q7 -3 7 -9q0 -3 -4 -9q-45 -65 -99.5 -92.5t-134.5 -27.5q-76 0 -136.5 34t-94.5 95t-34 139q0 84 35 148t95 99t133 35q75 0 132.5 -33t89 -95.5t31.5 -148.5v-4q0 -10 -3 -14
t-13 -5h-354q-11 0 -11 -16q0 -41 19 -73.5zM408 314q10 0 13.5 2.5t3.5 11.5q0 32 -14 62t-41.5 49t-65.5 19q-59 0 -95.5 -41.5t-35.5 -102.5h235zM126 752q5 0 9 -4l130 -127q4 -4 4 -8q0 -5 -6 -11l-22 -25q-5 -6 -10 -6t-14 6l-134 97q-10 6 -10 13q0 4 6 14l38 46
q5 5 9 5zM311 752q5 0 8 -4l130 -127q4 -4 4 -8t-5 -11l-23 -25q-4 -6 -10 -6q-4 0 -13 6l-135 97q-9 5 -9 13q0 7 6 14l38 46q5 5 9 5z" />
    <glyph glyph-name="uni0206" unicode="&#x206;" horiz-adv-x="645" 
d="M94 742h485q13 0 13 -15v-76q0 -19 -18 -19h-330q-17 0 -17 -14v-175q0 -15 14 -15h228q15 0 15 -15v-81q0 -12 -14 -12h-230q-13 0 -13 -12v-186q0 -7 2.5 -9.5t8.5 -2.5h350q9 0 12.5 -3t3.5 -11v-81q0 -6 -4 -10.5t-13 -4.5h-489q-10 0 -14.5 4t-4.5 14v707
q0 17 15 17zM437 833q-5 0 -8.5 2t-6.5 8q-12 19 -34.5 32.5t-48.5 13.5q-49 0 -81 -45q-5 -7 -8.5 -9t-10.5 -2h-58q-6 0 -8 4t0 8q15 52 59.5 82t106.5 30t107.5 -30.5t60.5 -79.5l1 -6q0 -8 -12 -8h-59z" />
    <glyph glyph-name="uni0207" unicode="&#x207;" horiz-adv-x="584" 
d="M190 150.5q19 -32.5 52.5 -51t73.5 -18.5q41 0 74.5 17.5t63.5 54.5q5 5 8 5t9 -3l61 -27q7 -3 7 -9q0 -3 -4 -9q-45 -65 -99.5 -92.5t-134.5 -27.5q-76 0 -136.5 34t-94.5 95t-34 139q0 84 35 148t95 99t133 35q75 0 132.5 -33t89 -95.5t31.5 -148.5v-4q0 -10 -3 -14
t-13 -5h-354q-11 0 -11 -16q0 -41 19 -73.5zM408 314q10 0 13.5 2.5t3.5 11.5q0 32 -14 62t-41.5 49t-65.5 19q-59 0 -95.5 -41.5t-35.5 -102.5h235zM396 621q-5 0 -8.5 2t-6.5 8q-12 19 -34.5 32.5t-48.5 13.5q-49 0 -81 -45q-5 -7 -8.5 -9t-10.5 -2h-58q-6 0 -8 4t0 8
q15 52 59.5 82t106.5 30t107.5 -30.5t60.5 -79.5l1 -6q0 -8 -12 -8h-59z" />
    <glyph glyph-name="uni0208" unicode="&#x208;" horiz-adv-x="306" 
d="M213 742q14 0 14 -16v-704q0 -12 -5.5 -17t-18.5 -5h-104q-12 0 -16 4t-4 14v707q0 17 15 17h119zM-18 964q5 0 9 -4l130 -127q4 -4 4 -8q0 -5 -6 -11l-22 -25q-5 -6 -10 -6t-14 6l-134 97q-10 6 -10 13q0 4 6 14l38 46q5 5 9 5zM167 964q5 0 8 -4l130 -127q4 -4 4 -8
t-5 -11l-23 -25q-4 -6 -10 -6q-4 0 -13 6l-135 97q-9 5 -9 13q0 7 6 14l38 46q5 5 9 5z" />
    <glyph glyph-name="uni0209" unicode="&#x209;" horiz-adv-x="256" 
d="M193 22q0 -12 -5.5 -17t-18.5 -5h-87q-11 0 -15 4t-4 14v495q0 17 15 17h101q14 0 14 -16v-492zM-43 752q5 0 9 -4l130 -127q4 -4 4 -8q0 -5 -6 -11l-22 -25q-5 -6 -10 -6t-14 6l-134 97q-10 6 -10 13q0 4 6 14l38 46q5 5 9 5zM142 752q5 0 8 -4l130 -127q4 -4 4 -8
t-5 -11l-23 -25q-4 -6 -10 -6q-4 0 -13 6l-135 97q-9 5 -9 13q0 7 6 14l38 46q5 5 9 5z" />
    <glyph glyph-name="uni020A" unicode="&#x20a;" horiz-adv-x="306" 
d="M213 742q14 0 14 -16v-704q0 -12 -5.5 -17t-18.5 -5h-104q-12 0 -16 4t-4 14v707q0 17 15 17h119zM252 833q-5 0 -8.5 2t-6.5 8q-12 19 -34.5 32.5t-48.5 13.5q-49 0 -81 -45q-5 -7 -8.5 -9t-10.5 -2h-58q-6 0 -8 4t0 8q15 52 59.5 82t106.5 30t107.5 -30.5t60.5 -79.5
l1 -6q0 -8 -12 -8h-59z" />
    <glyph glyph-name="uni020B" unicode="&#x20b;" horiz-adv-x="256" 
d="M193 22q0 -12 -5.5 -17t-18.5 -5h-87q-11 0 -15 4t-4 14v495q0 17 15 17h101q14 0 14 -16v-492zM227 621q-5 0 -8.5 2t-6.5 8q-12 19 -34.5 32.5t-48.5 13.5q-49 0 -81 -45q-5 -7 -8.5 -9t-10.5 -2h-58q-6 0 -8 4t0 8q15 52 59.5 82t106.5 30t107.5 -30.5t60.5 -79.5
l1 -6q0 -8 -12 -8h-59z" />
    <glyph glyph-name="uni020C" unicode="&#x20c;" horiz-adv-x="770" 
d="M208 35q-75 45 -115.5 130.5t-40.5 202.5q0 119 41 205.5t116 132.5t177 46q101 0 176 -46t116 -132.5t41 -204.5q0 -117 -40.5 -202.5t-115.5 -131t-177 -45.5q-103 0 -178 45zM521 161q43 65 43 206q0 144 -43.5 212t-134.5 68t-135.5 -68t-44.5 -212q0 -141 44 -206
t137 -65q91 0 134 65zM213 964q5 0 9 -4l130 -127q4 -4 4 -8q0 -5 -6 -11l-22 -25q-5 -6 -10 -6t-14 6l-134 97q-10 6 -10 13q0 4 6 14l38 46q5 5 9 5zM398 964q5 0 8 -4l130 -127q4 -4 4 -8t-5 -11l-23 -25q-4 -6 -10 -6q-4 0 -13 6l-135 97q-9 5 -9 13q0 7 6 14l38 46
q5 5 9 5z" />
    <glyph glyph-name="uni020D" unicode="&#x20d;" horiz-adv-x="599" 
d="M162 24.5q-60 34.5 -93 96.5t-33 141q0 81 34 144.5t94 98.5t136 35q77 0 137 -35.5t93 -98.5t33 -143q0 -79 -33.5 -141t-93.5 -97t-137 -35t-137 34.5zM397.5 127q33.5 48 33.5 138q0 91 -34 140t-97 49t-97.5 -49t-34.5 -140q0 -90 34.5 -138t97.5 -48q64 0 97.5 48z
M127 752q5 0 9 -4l130 -127q4 -4 4 -8q0 -5 -6 -11l-22 -25q-5 -6 -10 -6t-14 6l-134 97q-10 6 -10 13q0 4 6 14l38 46q5 5 9 5zM312 752q5 0 8 -4l130 -127q4 -4 4 -8t-5 -11l-23 -25q-4 -6 -10 -6q-4 0 -13 6l-135 97q-9 5 -9 13q0 7 6 14l38 46q5 5 9 5z" />
    <glyph glyph-name="uni020E" unicode="&#x20e;" horiz-adv-x="770" 
d="M208 35q-75 45 -115.5 130.5t-40.5 202.5q0 119 41 205.5t116 132.5t177 46q101 0 176 -46t116 -132.5t41 -204.5q0 -117 -40.5 -202.5t-115.5 -131t-177 -45.5q-103 0 -178 45zM521 161q43 65 43 206q0 144 -43.5 212t-134.5 68t-135.5 -68t-44.5 -212q0 -141 44 -206
t137 -65q91 0 134 65zM483 833q-5 0 -8.5 2t-6.5 8q-12 19 -34.5 32.5t-48.5 13.5q-49 0 -81 -45q-5 -7 -8.5 -9t-10.5 -2h-58q-6 0 -8 4t0 8q15 52 59.5 82t106.5 30t107.5 -30.5t60.5 -79.5l1 -6q0 -8 -12 -8h-59z" />
    <glyph glyph-name="uni020F" unicode="&#x20f;" horiz-adv-x="599" 
d="M162 24.5q-60 34.5 -93 96.5t-33 141q0 81 34 144.5t94 98.5t136 35q77 0 137 -35.5t93 -98.5t33 -143q0 -79 -33.5 -141t-93.5 -97t-137 -35t-137 34.5zM397.5 127q33.5 48 33.5 138q0 91 -34 140t-97 49t-97.5 -49t-34.5 -140q0 -90 34.5 -138t97.5 -48q64 0 97.5 48z
M397 621q-5 0 -8.5 2t-6.5 8q-12 19 -34.5 32.5t-48.5 13.5q-49 0 -81 -45q-5 -7 -8.5 -9t-10.5 -2h-58q-6 0 -8 4t0 8q15 52 59.5 82t106.5 30t107.5 -30.5t60.5 -79.5l1 -6q0 -8 -12 -8h-59z" />
    <glyph glyph-name="uni0210" unicode="&#x210;" horiz-adv-x="713" 
d="M658 15q0 -6 -4 -10.5t-11 -4.5h-122q-8 0 -12.5 3.5t-7.5 12.5l-115 292q-3 7 -9 10t-18 3h-120q-12 0 -12 -11v-289q0 -11 -5.5 -16t-17.5 -5h-106q-11 0 -15 4.5t-4 13.5v707q0 17 15 17h301q129 0 200 -52t71 -148q0 -75 -40 -125t-100 -71q-8 -3 -4 -13l134 -309
q2 -3 2 -9zM513 531q0 54 -33.5 82t-93.5 28h-141q-10 0 -14 -3t-4 -11v-189q0 -8 3 -11.5t10 -3.5h134q139 0 139 108zM175 964q5 0 9 -4l130 -127q4 -4 4 -8q0 -5 -6 -11l-22 -25q-5 -6 -10 -6t-14 6l-134 97q-10 6 -10 13q0 4 6 14l38 46q5 5 9 5zM360 964q5 0 8 -4
l130 -127q4 -4 4 -8t-5 -11l-23 -25q-4 -6 -10 -6q-4 0 -13 6l-135 97q-9 5 -9 13q0 7 6 14l38 46q5 5 9 5z" />
    <glyph glyph-name="uni0211" unicode="&#x211;" horiz-adv-x="411" 
d="M63 18v495q0 17 14 17h97q14 0 14 -15v-61q0 -8 5 -8q3 0 8 5q33 42 73 65.5t78 23.5q36 0 36 -16v-96q0 -14 -13 -12q-28 7 -62 7q-26 0 -54.5 -14t-47 -36.5t-18.5 -46.5v-306q0 -20 -23 -20h-89q-18 0 -18 18zM46 752q5 0 9 -4l130 -127q4 -4 4 -8q0 -5 -6 -11
l-22 -25q-5 -6 -10 -6t-14 6l-134 97q-10 6 -10 13q0 4 6 14l38 46q5 5 9 5zM231 752q5 0 8 -4l130 -127q4 -4 4 -8t-5 -11l-23 -25q-4 -6 -10 -6q-4 0 -13 6l-135 97q-9 5 -9 13q0 7 6 14l38 46q5 5 9 5z" />
    <glyph glyph-name="uni0212" unicode="&#x212;" horiz-adv-x="713" 
d="M658 15q0 -6 -4 -10.5t-11 -4.5h-122q-8 0 -12.5 3.5t-7.5 12.5l-115 292q-3 7 -9 10t-18 3h-120q-12 0 -12 -11v-289q0 -11 -5.5 -16t-17.5 -5h-106q-11 0 -15 4.5t-4 13.5v707q0 17 15 17h301q129 0 200 -52t71 -148q0 -75 -40 -125t-100 -71q-8 -3 -4 -13l134 -309
q2 -3 2 -9zM513 531q0 54 -33.5 82t-93.5 28h-141q-10 0 -14 -3t-4 -11v-189q0 -8 3 -11.5t10 -3.5h134q139 0 139 108zM445 833q-5 0 -8.5 2t-6.5 8q-12 19 -34.5 32.5t-48.5 13.5q-49 0 -81 -45q-5 -7 -8.5 -9t-10.5 -2h-58q-6 0 -8 4t0 8q15 52 59.5 82t106.5 30
t107.5 -30.5t60.5 -79.5l1 -6q0 -8 -12 -8h-59z" />
    <glyph glyph-name="uni0213" unicode="&#x213;" horiz-adv-x="411" 
d="M63 18v495q0 17 14 17h97q14 0 14 -15v-61q0 -8 5 -8q3 0 8 5q33 42 73 65.5t78 23.5q36 0 36 -16v-96q0 -14 -13 -12q-28 7 -62 7q-26 0 -54.5 -14t-47 -36.5t-18.5 -46.5v-306q0 -20 -23 -20h-89q-18 0 -18 18zM316 621q-5 0 -8.5 2t-6.5 8q-12 19 -34.5 32.5
t-48.5 13.5q-49 0 -81 -45q-5 -7 -8.5 -9t-10.5 -2h-58q-6 0 -8 4t0 8q15 52 59.5 82t106.5 30t107.5 -30.5t60.5 -79.5l1 -6q0 -8 -12 -8h-59z" />
    <glyph glyph-name="uni0214" unicode="&#x214;" horiz-adv-x="717" 
d="M572.5 55q-73.5 -65 -214.5 -65q-153 0 -220.5 72.5t-67.5 220.5v441q0 9 4 13.5t10 4.5h120q14 0 14 -16v-465q0 -84 38 -123.5t113 -39.5q155 0 155 166v461q0 17 14 17h95q13 0 13 -16v-461q0 -145 -73.5 -210zM197 964q5 0 9 -4l130 -127q4 -4 4 -8q0 -5 -6 -11
l-22 -25q-5 -6 -10 -6t-14 6l-134 97q-10 6 -10 13q0 4 6 14l38 46q5 5 9 5zM382 964q5 0 8 -4l130 -127q4 -4 4 -8t-5 -11l-23 -25q-4 -6 -10 -6q-4 0 -13 6l-135 97q-9 5 -9 13q0 7 6 14l38 46q5 5 9 5z" />
    <glyph glyph-name="uni0215" unicode="&#x215;" horiz-adv-x="588" 
d="M395 154v356q0 20 23 20h90q18 0 18 -19l-2 -495q0 -16 -14 -16h-98q-14 0 -14 15v53q0 5 -3 6t-7 -3q-46 -44 -87.5 -62.5t-88.5 -18.5q-68 0 -111.5 43t-43.5 115v361q0 21 21 21h92q9 0 13 -4.5t4 -14.5v-341q0 -39 22 -62t59 -23q61 0 127 69zM112 752q5 0 9 -4
l130 -127q4 -4 4 -8q0 -5 -6 -11l-22 -25q-5 -6 -10 -6t-14 6l-134 97q-10 6 -10 13q0 4 6 14l38 46q5 5 9 5zM297 752q5 0 8 -4l130 -127q4 -4 4 -8t-5 -11l-23 -25q-4 -6 -10 -6q-4 0 -13 6l-135 97q-9 5 -9 13q0 7 6 14l38 46q5 5 9 5z" />
    <glyph glyph-name="uni0216" unicode="&#x216;" horiz-adv-x="717" 
d="M572.5 55q-73.5 -65 -214.5 -65q-153 0 -220.5 72.5t-67.5 220.5v441q0 9 4 13.5t10 4.5h120q14 0 14 -16v-465q0 -84 38 -123.5t113 -39.5q155 0 155 166v461q0 17 14 17h95q13 0 13 -16v-461q0 -145 -73.5 -210zM467 833q-5 0 -8.5 2t-6.5 8q-12 19 -34.5 32.5
t-48.5 13.5q-49 0 -81 -45q-5 -7 -8.5 -9t-10.5 -2h-58q-6 0 -8 4t0 8q15 52 59.5 82t106.5 30t107.5 -30.5t60.5 -79.5l1 -6q0 -8 -12 -8h-59z" />
    <glyph glyph-name="uni0217" unicode="&#x217;" horiz-adv-x="588" 
d="M395 154v356q0 20 23 20h90q18 0 18 -19l-2 -495q0 -16 -14 -16h-98q-14 0 -14 15v53q0 5 -3 6t-7 -3q-46 -44 -87.5 -62.5t-88.5 -18.5q-68 0 -111.5 43t-43.5 115v361q0 21 21 21h92q9 0 13 -4.5t4 -14.5v-341q0 -39 22 -62t59 -23q61 0 127 69zM382 621q-5 0 -8.5 2
t-6.5 8q-12 19 -34.5 32.5t-48.5 13.5q-49 0 -81 -45q-5 -7 -8.5 -9t-10.5 -2h-58q-6 0 -8 4t0 8q15 52 59.5 82t106.5 30t107.5 -30.5t60.5 -79.5l1 -6q0 -8 -12 -8h-59z" />
    <glyph glyph-name="Scommaaccent" unicode="&#x218;" horiz-adv-x="665" 
d="M434 628.5q-36 17.5 -92 17.5q-66 0 -101.5 -25.5t-35.5 -69.5q0 -61 89 -89l154 -46q173 -52 173 -205q0 -67 -35 -117t-99.5 -77t-152.5 -27q-98 0 -175 33.5t-117 94.5q-4 10 -4 12q0 8 10 15l63 44q11 6 17 6q8 0 13 -7q39 -51 78.5 -72t105.5 -21q72 0 113 24t41 73
q0 32 -20.5 54t-72.5 39l-151 46q-83 25 -127 79.5t-44 122.5q0 64 34 113.5t96.5 77.5t144.5 28q79 0 145.5 -27.5t105.5 -75.5q6 -8 6 -13t-6 -10l-71 -53q-4 -3 -8 -3q-5 0 -14 10q-27 31 -63 48.5zM295 -236.5q-3 5.5 0 9.5l29 49q4 5 4 11q0 4 -3 6.5t-7 2.5h-9
q-9 0 -12.5 4t-3.5 13v63q0 15 13 15h72q13 0 13 -13v-82q0 -3 -1.5 -5.5t-1.5 -4.5l-44 -63q-4 -7 -9 -9t-16 -2h-16q-5 0 -8 5.5z" />
    <glyph glyph-name="scommaaccent" unicode="&#x219;" horiz-adv-x="524" 
d="M335 442q-32 16 -74 16q-44 0 -72.5 -18t-28.5 -47q0 -17 14 -30.5t51 -23.5l119 -32q75 -19 110 -58t35 -93q0 -51 -29.5 -88.5t-82 -57.5t-119.5 -20q-83 0 -145 30.5t-88 79.5q-4 8 -4 11q0 6 6 10l59 30q7 4 12 4q4 0 9 -5q24 -34 58.5 -54t89.5 -20q51 0 83.5 17.5
t32.5 48.5q0 21 -17.5 35.5t-60.5 25.5l-102 24q-76 18 -111.5 54t-35.5 92q0 49 26.5 87t76 59t115.5 21q71 0 126 -26.5t81 -67.5q5 -8 5 -13t-5 -8l-62 -31q-6 -2 -7 -2q-8 0 -13 7q-20 27 -52 43zM211 -236.5q-3 5.5 0 9.5l29 49q4 5 4 11q0 4 -3 6.5t-7 2.5h-9
q-9 0 -12.5 4t-3.5 13v63q0 15 13 15h72q13 0 13 -13v-82q0 -3 -1.5 -5.5t-1.5 -4.5l-44 -63q-4 -7 -9 -9t-16 -2h-16q-5 0 -8 5.5z" />
    <glyph glyph-name="uni021A" unicode="&#x21a;" horiz-adv-x="669" 
d="M36 726q0 16 17 16h562q17 0 17 -16v-78q0 -14 -16 -14h-192q-6 0 -8.5 -2t-2.5 -8v-607q0 -17 -15 -17h-119q-14 0 -14 16v606q0 7 -2.5 9.5t-8.5 2.5h-201q-9 0 -13 3t-4 11v78zM293 -236.5q-3 5.5 0 9.5l29 49q4 5 4 11q0 4 -3 6.5t-7 2.5h-9q-9 0 -12.5 4t-3.5 13v63
q0 15 13 15h72q13 0 13 -13v-82q0 -3 -1.5 -5.5t-1.5 -4.5l-44 -63q-4 -7 -9 -9t-16 -2h-16q-5 0 -8 5.5z" />
    <glyph glyph-name="uni021B" unicode="&#x21b;" horiz-adv-x="417" 
d="M257 439q-10 0 -10 -11v-267q0 -38 15.5 -53.5t50.5 -15.5h59q6 0 10 -4t4 -10l-1 -52q0 -17 -19 -20q-36 -6 -110 -6q-68 0 -103.5 31.5t-35.5 95.5v299q0 13 -12 13h-67q-16 0 -16 15v63q0 13 15 13h74q9 0 9 10l13 154q1 9 4 12.5t10 3.5h89q6 0 10 -4.5t4 -12.5v-153
q0 -9 9 -9h113q15 0 15 -14v-63q0 -15 -17 -15h-113zM205 -236.5q-3 5.5 0 9.5l29 49q4 5 4 11q0 4 -3 6.5t-7 2.5h-9q-9 0 -12.5 4t-3.5 13v63q0 15 13 15h72q13 0 13 -13v-82q0 -3 -1.5 -5.5t-1.5 -4.5l-44 -63q-4 -7 -9 -9t-16 -2h-16q-5 0 -8 5.5z" />
    <glyph glyph-name="uni0237" unicode="&#x237;" horiz-adv-x="256" 
d="M153.5 -130q-39.5 -40 -127.5 -40q-43 0 -55 3.5t-12 14.5v67q0 6 3.5 11t9.5 6l46 4q24 2 34.5 16t10.5 48v513q0 17 16 17h101q13 0 13 -16v-520q0 -84 -39.5 -124z" />
    <glyph glyph-name="uni0259" unicode="&#x259;" horiz-adv-x="584" 
d="M394 379.5q-19 32.5 -52.5 51t-73.5 18.5q-41 0 -74.5 -17.5t-63.5 -54.5q-5 -5 -8 -5t-9 3l-61 27q-7 4 -7 9q0 3 4 9q45 65 99.5 92.5t134.5 27.5q76 0 136.5 -34t94.5 -95t34 -139q0 -84 -35 -148t-95 -99t-133 -35q-75 0 -132.5 33t-89 95.5t-31.5 148.5v4q0 10 3 14
t13 5h354q11 0 11 16q0 41 -19 73.5zM176 216q-10 0 -13.5 -2.5t-3.5 -11.5q0 -32 14 -62t41.5 -49t65.5 -19q59 0 95.5 41.5t35.5 102.5h-235z" />
    <glyph glyph-name="uni02BC" unicode="&#x2bc;" horiz-adv-x="166" 
d="M36.5 463q-2.5 4 -0.5 8l31 113l2 9q0 5 -8 7l-9 1q-7 1 -10 3.5t-3 9.5v116q0 12 10 12h75q9 0 9 -10v-131q0 -5 -2 -7l-36 -123q-2 -7 -7 -9.5t-16 -2.5h-29q-4 0 -6.5 4z" />
    <glyph glyph-name="circumflex" unicode="&#x2c6;" horiz-adv-x="359" 
d="M192 676q-9 11 -13 11t-15 -11l-53 -52q-5 -6 -8.5 -7t-12.5 -1h-72q-8 0 -8 5q0 4 6 10l106 105q6 6 12.5 9t17.5 3h61q12 0 23 -11l105 -106q7 -7 7 -11t-9 -4h-77q-14 0 -21 8z" />
    <glyph glyph-name="caron" unicode="&#x2c7;" horiz-adv-x="359" 
d="M262 743h77q9 0 9 -4t-7 -11l-105 -106q-11 -11 -23 -11h-61q-11 0 -17.5 3t-12.5 9l-106 105q-6 6 -6 10q0 5 8 5h72q9 0 12.5 -1t8.5 -7l53 -52q11 -11 15 -11t13 11l49 52q7 8 21 8z" />
    <glyph glyph-name="breve" unicode="&#x2d8;" horiz-adv-x="360" 
d="M346.5 738.5q2.5 -3.5 0.5 -10.5q-15 -49 -60.5 -79.5t-107.5 -30.5t-106.5 30t-59.5 82q-1 1 -1 4q0 8 9 8h58q7 0 10.5 -2t8.5 -9q32 -45 81 -45q26 0 48.5 13.5t34.5 32.5q3 6 6.5 8t8.5 2h59q8 0 10.5 -3.5z" />
    <glyph glyph-name="dotaccent" unicode="&#x2d9;" horiz-adv-x="154" 
d="M144 626q0 -11 -5 -16t-18 -5h-92q-11 0 -15 4.5t-4 14.5v101q0 17 15 17h105q14 0 14 -16v-100z" />
    <glyph glyph-name="ring" unicode="&#x2da;" horiz-adv-x="239" 
d="M197.5 611q-31.5 -32 -77.5 -32t-78 32.5t-32 79.5q0 43 32.5 74t77.5 31q46 0 77.5 -31t31.5 -76q0 -46 -31.5 -78zM156 725q-15 15 -37 15t-38 -15t-16 -37t16 -38t38 -16t37 16t15 38t-15 37z" />
    <glyph glyph-name="ogonek" unicode="&#x2db;" horiz-adv-x="232" 
d="M32 -33.5q22 23.5 79 41.5l92 -4q-53 -20 -74.5 -37.5t-21.5 -39.5q0 -18 9.5 -26.5t31.5 -8.5q32 0 60 14q3 2 8 2q6 0 6 -9v-38q0 -9 -8 -14q-14 -7 -40.5 -12.5t-55.5 -5.5q-51 0 -79.5 21.5t-28.5 61.5q0 31 22 54.5z" />
    <glyph glyph-name="tilde" unicode="&#x2dc;" horiz-adv-x="382" 
d="M263 637q-32 0 -75 15q-4 1 -24.5 7t-41.5 6q-20 0 -33.5 -5.5t-30.5 -17.5q-8 -4 -9 -4q-6 0 -9 10l-13 38q-1 3 -1 8q0 6 7 13q20 17 39 25.5t46 8.5q30 0 78 -16q17 -5 34.5 -9.5t32.5 -4.5q32 0 65 23q6 4 9 4q7 0 10 -11l12 -44l1 -5q0 -9 -11 -16q-38 -25 -86 -25z
" />
    <glyph glyph-name="hungarumlaut" unicode="&#x2dd;" horiz-adv-x="417" 
d="M208 701q6 -10 6 -14q0 -7 -10 -13l-135 -97q-9 -6 -13 -6q-6 0 -10 6l-22 25q-6 6 -6 11q0 4 4 8l130 127q4 4 8 4t9 -5zM392 701q6 -7 6 -14q0 -8 -9 -13l-135 -97q-9 -6 -13 -6q-6 0 -10 6l-23 25q-5 7 -5 11t4 8l130 127q4 4 8 4t9 -5z" />
    <glyph glyph-name="gravecomb" unicode="&#x300;" 
d="M-260.5 750.5q4.5 2.5 9.5 0.5l234 -98q11 -5 5 -18l-10 -31q-4 -10 -13 -10q-5 0 -8 1l-231 65q-15 5 -15 15l2 8l20 60q2 5 6.5 7.5z" />
    <glyph glyph-name="acutecomb" unicode="&#x301;" 
d="M-12 683l2 -8q0 -10 -15 -15l-231 -65q-3 -1 -8 -1q-9 0 -13 10l-10 31q-2 6 -2 8q0 7 7 10l234 98q2 1 5 1q7 0 11 -9z" />
    <glyph glyph-name="uni0302" unicode="&#x302;" 
d="M-167 676q-9 11 -13 11t-15 -11l-53 -52q-5 -6 -8.5 -7t-12.5 -1h-72q-8 0 -8 5q0 4 6 10l106 105q6 6 12.5 9t17.5 3h61q12 0 23 -11l105 -106q7 -7 7 -11t-9 -4h-77q-14 0 -21 8z" />
    <glyph glyph-name="tildecomb" unicode="&#x303;" 
d="M-119 637q-32 0 -75 15q-4 1 -24.5 7t-41.5 6q-20 0 -33.5 -5.5t-30.5 -17.5q-8 -4 -9 -4q-6 0 -9 10l-13 38q-1 3 -1 8q0 6 7 13q20 17 39 25.5t46 8.5q30 0 78 -16q17 -5 34.5 -9.5t32.5 -4.5q32 0 65 23q6 4 9 4q7 0 10 -11l12 -44l1 -5q0 -9 -11 -16q-38 -25 -86 -25
z" />
    <glyph glyph-name="uni0304" unicode="&#x304;" 
d="M-10 664q0 -17 -20 -17h-306q-9 0 -12 4t-3 12v56q0 14 11 14h319q11 0 11 -12v-57z" />
    <glyph glyph-name="uni0306" unicode="&#x306;" 
d="M-13.5 738.5q2.5 -3.5 0.5 -10.5q-15 -49 -60.5 -79.5t-107.5 -30.5t-106.5 30t-59.5 82q-1 1 -1 4q0 8 9 8h58q7 0 10.5 -2t8.5 -9q32 -45 81 -45q26 0 48.5 13.5t34.5 32.5q3 6 6.5 8t8.5 2h59q8 0 10.5 -3.5z" />
    <glyph glyph-name="uni0307" unicode="&#x307;" 
d="M-10 626q0 -11 -5 -16t-18 -5h-92q-11 0 -15 4.5t-4 14.5v101q0 17 15 17h105q14 0 14 -16v-100z" />
    <glyph glyph-name="uni0308" unicode="&#x308;" 
d="M-194 637q0 -10 -5 -14t-16 -4h-80q-10 0 -13.5 4t-3.5 12v91q0 16 13 16h92q13 0 13 -14v-91zM-10 637q0 -10 -5 -14t-17 -4h-79q-10 0 -13.5 3.5t-3.5 12.5v91q0 16 13 16h92q13 0 13 -14v-91z" />
    <glyph glyph-name="uni030A" unicode="&#x30a;" 
d="M-41.5 611q-31.5 -32 -77.5 -32t-78 32.5t-32 79.5q0 43 32.5 74t77.5 31q46 0 77.5 -31t31.5 -76q0 -46 -31.5 -78zM-83 725q-15 15 -37 15t-38 -15t-16 -37t16 -38t38 -16t37 16t15 38t-15 37z" />
    <glyph glyph-name="uni030B" unicode="&#x30b;" 
d="M-209 701q6 -10 6 -14q0 -7 -10 -13l-135 -97q-9 -6 -13 -6q-6 0 -10 6l-22 25q-6 6 -6 11q0 4 4 8l130 127q4 4 8 4t9 -5zM-25 701q6 -7 6 -14q0 -8 -9 -13l-135 -97q-9 -6 -13 -6q-6 0 -10 6l-23 25q-5 7 -5 11t4 8l130 127q4 4 8 4t9 -5z" />
    <glyph glyph-name="uni030C" unicode="&#x30c;" 
d="M-97 743h77q9 0 9 -4t-7 -11l-105 -106q-11 -11 -23 -11h-61q-11 0 -17.5 3t-12.5 9l-106 105q-6 6 -6 10q0 5 8 5h72q9 0 12.5 -1t8.5 -7l53 -52q11 -11 15 -11t13 11l49 52q7 8 21 8z" />
    <glyph glyph-name="uni030F" unicode="&#x30f;" 
d="M-346 752q5 0 9 -4l130 -127q4 -4 4 -8q0 -5 -6 -11l-22 -25q-5 -6 -10 -6t-14 6l-134 97q-10 6 -10 13q0 4 6 14l38 46q5 5 9 5zM-161 752q5 0 8 -4l130 -127q4 -4 4 -8t-5 -11l-23 -25q-4 -6 -10 -6q-4 0 -13 6l-135 97q-9 5 -9 13q0 7 6 14l38 46q5 5 9 5z" />
    <glyph glyph-name="uni0311" unicode="&#x311;" 
d="M-81 621q-5 0 -8.5 2t-6.5 8q-12 19 -34.5 32.5t-48.5 13.5q-49 0 -81 -45q-5 -7 -8.5 -9t-10.5 -2h-58q-6 0 -8 4t0 8q15 52 59.5 82t106.5 30t107.5 -30.5t60.5 -79.5l1 -6q0 -8 -12 -8h-59z" />
    <glyph glyph-name="dotbelowcomb" unicode="&#x323;" 
d="M-10 -147q0 -10 -4.5 -14t-14.5 -4h-71q-9 0 -12.5 3.5t-3.5 11.5v86q0 8 2.5 11.5t8.5 3.5h84q11 0 11 -13v-85z" />
    <glyph glyph-name="uni0326" unicode="&#x326;" 
d="M-106 -236.5q-3 5.5 0 9.5l29 49q4 5 4 11q0 4 -3 6.5t-7 2.5h-9q-9 0 -12.5 4t-3.5 13v63q0 15 13 15h72q13 0 13 -13v-82q0 -3 -1.5 -5.5t-1.5 -4.5l-44 -63q-4 -7 -9 -9t-16 -2h-16q-5 0 -8 5.5z" />
    <glyph glyph-name="uni0327" unicode="&#x327;" 
d="M-44 -194q-34 -22 -84 -22q-61 0 -104 23q-8 6 -4 12l13 32q3 6 10 3q36 -21 69 -21q26 0 39.5 9t13.5 25q0 21 -20 31.5t-65 11.5q-12 0 -8 9l37 86h61l-21 -54q-3 -6 4 -6q48 -2 70.5 -25t22.5 -54q0 -38 -34 -60z" />
    <glyph glyph-name="uni0328" unicode="&#x328;" 
d="M-200 -33.5q22 23.5 79 41.5l92 -4q-53 -20 -74.5 -37.5t-21.5 -39.5q0 -18 9.5 -26.5t31.5 -8.5q32 0 60 14q3 2 8 2q6 0 6 -9v-38q0 -9 -8 -14q-14 -7 -40.5 -12.5t-55.5 -5.5q-51 0 -79.5 21.5t-28.5 61.5q0 31 22 54.5z" />
    <glyph glyph-name="uni0394" unicode="&#x394;" horiz-adv-x="672" 
d="M26 59q0 27 9 54l222 613q5 16 21 16h118q15 0 22 -19l219 -608q6 -16 8 -26t2 -22v-47q0 -10 -4 -15t-13 -5h-581q-10 0 -16.5 6.5t-6.5 20.5v32zM488 108q7 0 9.5 4.5t-0.5 12.5l-154 453q-5 14 -9 14t-9 -14l-154 -452q-1 -3 -1 -7q0 -11 15 -11h303z" />
    <glyph glyph-name="uni03A9" unicode="&#x3a9;" horiz-adv-x="767" 
d="M285 616.5q-43 -30.5 -66.5 -87.5t-23.5 -133q0 -170 140 -283q18 -15 18 -33v-63q0 -17 -15 -17h-255q-5 0 -9 4t-4 11v84q0 6 3.5 9t9.5 3h112q9 0 9 5q0 3 -5 8q-37 33 -66.5 67t-56 92t-26.5 131q0 88 40 165.5t116 125t179 47.5q105 0 180 -49t113 -126.5t38 -161.5
q0 -101 -46 -170.5t-105 -121.5q-4 -4 -4 -7q0 -5 8 -5h116q12 0 12 -13v-84q0 -14 -12 -14h-254q-17 0 -17 18v61q0 11 3.5 18t13.5 15q140 109 140 287q0 113 -49.5 180.5t-136.5 67.5q-57 0 -100 -30.5z" />
    <glyph glyph-name="uni03BC" unicode="&#x3bc;" horiz-adv-x="588" 
d="M395 154v356q0 20 23 20h90q18 0 18 -19l-2 -495q0 -16 -14 -16h-98q-14 0 -14 15v53q0 6 -3 7t-7 -3q-46 -42 -82 -59.5t-77 -17.5q-25 0 -42 9v-147q0 -12 -5.5 -17t-18.5 -5h-86q-12 0 -16 4t-4 14v656q0 21 21 21h92q9 0 13 -4.5t4 -14.5v-350q0 -32 23.5 -54
t57.5 -22q61 0 127 69z" />
    <glyph glyph-name="pi" unicode="&#x3c0;" horiz-adv-x="668" 
d="M558 439q-13 0 -13 -12v-411q0 -16 -14 -16h-97q-14 0 -14 16v412q0 11 -12 11h-160q-10 0 -10 -9q0 -105 -17 -227.5t-40 -192.5q-3 -10 -13 -10h-96q-7 0 -10 3.5t-1 10.5q22 87 37.5 202.5t15.5 212.5q0 10 -9 10h-69q-17 0 -17 15v61q0 15 18 15h598q8 0 11 -4t3 -13
v-57q0 -17 -14 -17h-77z" />
    <glyph glyph-name="uni1E0C" unicode="&#x1e0c;" horiz-adv-x="741" 
d="M299 741q391 -9 391 -367q0 -179 -100.5 -276.5t-297.5 -97.5h-193q-20 0 -20 21v703q0 10 4 14t15 4q143 0 201 -1zM227 622v-504q0 -7 3 -9.5t10 -2.5h25q141 0 205.5 62t64.5 206q0 93 -26 148.5t-77.5 81.5t-134.5 30l-61 2q-9 0 -9 -14zM401 -147q0 -10 -4.5 -14
t-14.5 -4h-71q-9 0 -12.5 3.5t-3.5 11.5v86q0 8 2.5 11.5t8.5 3.5h84q11 0 11 -13v-85z" />
    <glyph glyph-name="uni1E0D" unicode="&#x1e0d;" horiz-adv-x="606" 
d="M415 18v33q0 9 -5 9q-3 0 -8 -5q-29 -28 -64.5 -46.5t-86.5 -18.5q-62 0 -110 30.5t-75.5 91t-27.5 148.5q0 82 29.5 146t80.5 99t114 35q42 0 73.5 -13.5t60.5 -39.5q5 -5 11 -5t6 13v231q0 16 14 16h101q15 0 15 -17v-706q0 -10 -4.5 -14.5t-16.5 -4.5h-88
q-19 0 -19 18zM360.5 440.5q-25.5 13.5 -57.5 13.5q-60 0 -96.5 -48.5t-36.5 -143.5q0 -96 35.5 -142t94.5 -46q31 0 57 14.5t41 37.5t15 47v226q-27 28 -52.5 41.5zM358 -147q0 -10 -4.5 -14t-14.5 -4h-71q-9 0 -12.5 3.5t-3.5 11.5v86q0 8 2.5 11.5t8.5 3.5h84
q11 0 11 -13v-85z" />
    <glyph glyph-name="uni1E24" unicode="&#x1e24;" horiz-adv-x="746" 
d="M239 327q-12 0 -12 -11v-296q0 -20 -23 -20h-106q-11 0 -15 4.5t-4 13.5v707q0 17 15 17h119q14 0 14 -16v-269q0 -16 14 -16h264q14 0 14 15v270q0 16 14 16h119q15 0 15 -17v-707q0 -18 -19 -18h-106q-12 0 -17.5 4.5t-5.5 15.5v296q0 11 -12 11h-268zM424 -147
q0 -10 -4.5 -14t-14.5 -4h-71q-9 0 -12.5 3.5t-3.5 11.5v86q0 8 2.5 11.5t8.5 3.5h84q11 0 11 -13v-85z" />
    <glyph glyph-name="uni1E25" unicode="&#x1e25;" horiz-adv-x="592" 
d="M63 18v707q0 17 15 17h99q13 0 13 -15v-260q0 -6 3 -7t8 3q50 42 89.5 59.5t85.5 17.5q77 0 118 -41.5t41 -115.5v-362q0 -21 -21 -21h-92q-10 0 -13.5 4t-3.5 14v344q0 39 -21 60.5t-62 21.5q-35 0 -64 -16t-65 -52v-356q0 -11 -5 -15.5t-17 -4.5h-89q-19 0 -19 18z
M358 -147q0 -10 -4.5 -14t-14.5 -4h-71q-9 0 -12.5 3.5t-3.5 11.5v86q0 8 2.5 11.5t8.5 3.5h84q11 0 11 -13v-85z" />
    <glyph glyph-name="uni1E44" unicode="&#x1e44;" horiz-adv-x="758" 
d="M667 742q7 0 9.5 -3t2.5 -11v-713q0 -15 -17 -15h-83q-8 0 -13 2t-11 9l-342 486q-4 6 -7.5 5.5t-3.5 -6.5v-480v-3q0 -13 -17 -13h-88q-18 0 -18 16v709q0 17 16 17h100q10 0 15 -2.5t11 -10.5l322 -464q4 -7 9 -7q6 0 6 10v458q0 16 16 16h93zM454 838q0 -11 -5 -16
t-18 -5h-92q-11 0 -15 4.5t-4 14.5v101q0 17 15 17h105q14 0 14 -16v-100z" />
    <glyph glyph-name="uni1E45" unicode="&#x1e45;" horiz-adv-x="592" 
d="M67 4q-4 4 -4 14v495q0 17 14 17h100q13 0 13 -15v-52q0 -6 3 -7t8 3q47 41 87.5 61t87.5 20q74 0 116.5 -42.5t42.5 -112.5v-364q0 -21 -21 -21h-92q-10 0 -13.5 4t-3.5 14v344q0 39 -21.5 60.5t-62.5 21.5q-35 0 -63.5 -16t-64.5 -52v-356q0 -11 -5 -15.5t-18 -4.5h-89
q-10 0 -14 4zM371 626q0 -11 -5 -16t-18 -5h-92q-11 0 -15 4.5t-4 14.5v101q0 17 15 17h105q14 0 14 -16v-100z" />
    <glyph glyph-name="uni1E5A" unicode="&#x1e5a;" horiz-adv-x="713" 
d="M658 15q0 -6 -4 -10.5t-11 -4.5h-122q-8 0 -12.5 3.5t-7.5 12.5l-115 292q-3 7 -9 10t-18 3h-120q-12 0 -12 -11v-289q0 -11 -5.5 -16t-17.5 -5h-106q-11 0 -15 4.5t-4 13.5v707q0 17 15 17h301q129 0 200 -52t71 -148q0 -75 -40 -125t-100 -71q-8 -3 -4 -13l134 -309
q2 -3 2 -9zM513 531q0 54 -33.5 82t-93.5 28h-141q-10 0 -14 -3t-4 -11v-189q0 -8 3 -11.5t10 -3.5h134q139 0 139 108zM409 -147q0 -10 -4.5 -14t-14.5 -4h-71q-9 0 -12.5 3.5t-3.5 11.5v86q0 8 2.5 11.5t8.5 3.5h84q11 0 11 -13v-85z" />
    <glyph glyph-name="uni1E5B" unicode="&#x1e5b;" horiz-adv-x="411" 
d="M63 18v495q0 17 14 17h97q14 0 14 -15v-61q0 -8 5 -8q3 0 8 5q33 42 73 65.5t78 23.5q36 0 36 -16v-96q0 -14 -13 -12q-28 7 -62 7q-26 0 -54.5 -14t-47 -36.5t-18.5 -46.5v-306q0 -20 -23 -20h-89q-18 0 -18 18zM176 -147q0 -10 -4.5 -14t-14.5 -4h-71q-9 0 -12.5 3.5
t-3.5 11.5v86q0 8 2.5 11.5t8.5 3.5h84q11 0 11 -13v-85z" />
    <glyph glyph-name="uni1E62" unicode="&#x1e62;" horiz-adv-x="665" 
d="M434 628.5q-36 17.5 -92 17.5q-66 0 -101.5 -25.5t-35.5 -69.5q0 -61 89 -89l154 -46q173 -52 173 -205q0 -67 -35 -117t-99.5 -77t-152.5 -27q-98 0 -175 33.5t-117 94.5q-4 10 -4 12q0 8 10 15l63 44q11 6 17 6q8 0 13 -7q39 -51 78.5 -72t105.5 -21q72 0 113 24t41 73
q0 32 -20.5 54t-72.5 39l-151 46q-83 25 -127 79.5t-44 122.5q0 64 34 113.5t96.5 77.5t144.5 28q79 0 145.5 -27.5t105.5 -75.5q6 -8 6 -13t-6 -10l-71 -53q-4 -3 -8 -3q-5 0 -14 10q-27 31 -63 48.5zM394 -147q0 -10 -4.5 -14t-14.5 -4h-71q-9 0 -12.5 3.5t-3.5 11.5v86
q0 8 2.5 11.5t8.5 3.5h84q11 0 11 -13v-85z" />
    <glyph glyph-name="uni1E63" unicode="&#x1e63;" horiz-adv-x="524" 
d="M335 442q-32 16 -74 16q-44 0 -72.5 -18t-28.5 -47q0 -17 14 -30.5t51 -23.5l119 -32q75 -19 110 -58t35 -93q0 -51 -29.5 -88.5t-82 -57.5t-119.5 -20q-83 0 -145 30.5t-88 79.5q-4 8 -4 11q0 6 6 10l59 30q7 4 12 4q4 0 9 -5q24 -34 58.5 -54t89.5 -20q51 0 83.5 17.5
t32.5 48.5q0 21 -17.5 35.5t-60.5 25.5l-102 24q-76 18 -111.5 54t-35.5 92q0 49 26.5 87t76 59t115.5 21q71 0 126 -26.5t81 -67.5q5 -8 5 -13t-5 -8l-62 -31q-6 -2 -7 -2q-8 0 -13 7q-20 27 -52 43zM310 -147q0 -10 -4.5 -14t-14.5 -4h-71q-9 0 -12.5 3.5t-3.5 11.5v86
q0 8 2.5 11.5t8.5 3.5h84q11 0 11 -13v-85z" />
    <glyph glyph-name="uni1E6C" unicode="&#x1e6c;" horiz-adv-x="669" 
d="M36 726q0 16 17 16h562q17 0 17 -16v-78q0 -14 -16 -14h-192q-6 0 -8.5 -2t-2.5 -8v-607q0 -17 -15 -17h-119q-14 0 -14 16v606q0 7 -2.5 9.5t-8.5 2.5h-201q-9 0 -13 3t-4 11v78zM392 -147q0 -10 -4.5 -14t-14.5 -4h-71q-9 0 -12.5 3.5t-3.5 11.5v86q0 8 2.5 11.5
t8.5 3.5h84q11 0 11 -13v-85z" />
    <glyph glyph-name="uni1E6D" unicode="&#x1e6d;" horiz-adv-x="417" 
d="M257 439q-10 0 -10 -11v-267q0 -38 15.5 -53.5t50.5 -15.5h59q6 0 10 -4t4 -10l-1 -52q0 -17 -19 -20q-36 -6 -110 -6q-68 0 -103.5 31.5t-35.5 95.5v299q0 13 -12 13h-67q-16 0 -16 15v63q0 13 15 13h74q9 0 9 10l13 154q1 9 4 12.5t10 3.5h89q6 0 10 -4.5t4 -12.5v-153
q0 -9 9 -9h113q15 0 15 -14v-63q0 -15 -17 -15h-113zM276 -147q0 -10 -4.5 -14t-14.5 -4h-71q-9 0 -12.5 3.5t-3.5 11.5v86q0 8 2.5 11.5t8.5 3.5h84q11 0 11 -13v-85z" />
    <glyph glyph-name="Wgrave" unicode="&#x1e80;" horiz-adv-x="1071" 
d="M1029.5 735q5.5 -7 2.5 -19l-205 -697q-6 -19 -27 -19h-92q-22 0 -28 18l-138 482q-1 9 -4 9t-6 -10l-139 -480q-3 -10 -9.5 -14.5t-18.5 -4.5h-94q-22 0 -28 18l-203 697l-2 9q0 8 6 13t16 5h104q11 0 16 -3.5t7 -11.5l141 -499q3 -11 6 -11t6 9l141 501q3 8 8 11.5
t16 3.5h90q11 0 16 -3.5t7 -11.5l143 -504q3 -8 6 -8q4 0 5 7l140 505q3 15 24 15h76q12 0 17.5 -7zM418.5 962.5q4.5 2.5 9.5 0.5l234 -98q11 -5 5 -18l-10 -31q-4 -10 -13 -10q-5 0 -8 1l-231 65q-15 5 -15 15l2 8l20 60q2 5 6.5 7.5z" />
    <glyph glyph-name="wgrave" unicode="&#x1e81;" horiz-adv-x="811" 
d="M784 524q4 -6 1 -14l-160 -495q-4 -15 -20 -15h-71q-18 0 -24 17l-97 309q-3 9 -7 9t-7 -9l-96 -311q-2 -8 -6.5 -11.5t-13.5 -3.5h-74q-19 0 -23 17l-160 492q-1 2 -1 7q0 6 4 10t11 4h97q8 0 13.5 -4t6.5 -11l100 -319q1 -4 2.5 -7t3.5 -3q5 0 8 11l97 319q5 14 19 14
h72q14 0 19 -15l99 -319q3 -10 7 -10t7 11l97 319q2 6 7.5 10t12.5 4h64q8 0 12 -6zM288.5 750.5q4.5 2.5 9.5 0.5l234 -98q11 -5 5 -18l-10 -31q-4 -10 -13 -10q-5 0 -8 1l-231 65q-15 5 -15 15l2 8l20 60q2 5 6.5 7.5z" />
    <glyph glyph-name="Wacute" unicode="&#x1e82;" horiz-adv-x="1071" 
d="M1029.5 735q5.5 -7 2.5 -19l-205 -697q-6 -19 -27 -19h-92q-22 0 -28 18l-138 482q-1 9 -4 9t-6 -10l-139 -480q-3 -10 -9.5 -14.5t-18.5 -4.5h-94q-22 0 -28 18l-203 697l-2 9q0 8 6 13t16 5h104q11 0 16 -3.5t7 -11.5l141 -499q3 -11 6 -11t6 9l141 501q3 8 8 11.5
t16 3.5h90q11 0 16 -3.5t7 -11.5l143 -504q3 -8 6 -8q4 0 5 7l140 505q3 15 24 15h76q12 0 17.5 -7zM674 895l2 -8q0 -10 -15 -15l-231 -65q-3 -1 -8 -1q-9 0 -13 10l-10 31q-2 6 -2 8q0 7 7 10l234 98q2 1 5 1q7 0 11 -9z" />
    <glyph glyph-name="wacute" unicode="&#x1e83;" horiz-adv-x="811" 
d="M784 524q4 -6 1 -14l-160 -495q-4 -15 -20 -15h-71q-18 0 -24 17l-97 309q-3 9 -7 9t-7 -9l-96 -311q-2 -8 -6.5 -11.5t-13.5 -3.5h-74q-19 0 -23 17l-160 492q-1 2 -1 7q0 6 4 10t11 4h97q8 0 13.5 -4t6.5 -11l100 -319q1 -4 2.5 -7t3.5 -3q5 0 8 11l97 319q5 14 19 14
h72q14 0 19 -15l99 -319q3 -10 7 -10t7 11l97 319q2 6 7.5 10t12.5 4h64q8 0 12 -6zM544 683l2 -8q0 -10 -15 -15l-231 -65q-3 -1 -8 -1q-9 0 -13 10l-10 31q-2 6 -2 8q0 7 7 10l234 98q2 1 5 1q7 0 11 -9z" />
    <glyph glyph-name="Wdieresis" unicode="&#x1e84;" horiz-adv-x="1071" 
d="M1029.5 735q5.5 -7 2.5 -19l-205 -697q-6 -19 -27 -19h-92q-22 0 -28 18l-138 482q-1 9 -4 9t-6 -10l-139 -480q-3 -10 -9.5 -14.5t-18.5 -4.5h-94q-22 0 -28 18l-203 697l-2 9q0 8 6 13t16 5h104q11 0 16 -3.5t7 -11.5l141 -499q3 -11 6 -11t6 9l141 501q3 8 8 11.5
t16 3.5h90q11 0 16 -3.5t7 -11.5l143 -504q3 -8 6 -8q4 0 5 7l140 505q3 15 24 15h76q12 0 17.5 -7zM504 849q0 -10 -5 -14t-16 -4h-80q-10 0 -13.5 4t-3.5 12v91q0 16 13 16h92q13 0 13 -14v-91zM688 849q0 -10 -5 -14t-17 -4h-79q-10 0 -13.5 3.5t-3.5 12.5v91q0 16 13 16
h92q13 0 13 -14v-91z" />
    <glyph glyph-name="wdieresis" unicode="&#x1e85;" horiz-adv-x="811" 
d="M784 524q4 -6 1 -14l-160 -495q-4 -15 -20 -15h-71q-18 0 -24 17l-97 309q-3 9 -7 9t-7 -9l-96 -311q-2 -8 -6.5 -11.5t-13.5 -3.5h-74q-19 0 -23 17l-160 492q-1 2 -1 7q0 6 4 10t11 4h97q8 0 13.5 -4t6.5 -11l100 -319q1 -4 2.5 -7t3.5 -3q5 0 8 11l97 319q5 14 19 14
h72q14 0 19 -15l99 -319q3 -10 7 -10t7 11l97 319q2 6 7.5 10t12.5 4h64q8 0 12 -6zM374 637q0 -10 -5 -14t-16 -4h-80q-10 0 -13.5 4t-3.5 12v91q0 16 13 16h92q13 0 13 -14v-91zM558 637q0 -10 -5 -14t-17 -4h-79q-10 0 -13.5 3.5t-3.5 12.5v91q0 16 13 16h92q13 0 13 -14
v-91z" />
    <glyph glyph-name="uni1E92" unicode="&#x1e92;" horiz-adv-x="664" 
d="M43 3.5q-4 3.5 -4 13.5v32q0 10 2.5 16t12.5 20l357 535q3 5 3 7q0 5 -10 5h-327q-9 0 -12 3.5t-3 12.5v80q0 14 12 14h535q13 0 13 -14v-36q0 -8 -2.5 -13t-9.5 -15l-365 -542l-2 -5q0 -6 10 -6h351q15 0 15 -13v-83q0 -6 -4 -10.5t-13 -4.5h-545q-10 0 -14 3.5z
M385 -147q0 -10 -4.5 -14t-14.5 -4h-71q-9 0 -12.5 3.5t-3.5 11.5v86q0 8 2.5 11.5t8.5 3.5h84q11 0 11 -13v-85z" />
    <glyph glyph-name="uni1E93" unicode="&#x1e93;" horiz-adv-x="506" 
d="M30 3.5q-4 3.5 -4 13.5v36q0 11 3 17.5t13 19.5l260 344q3 5 3 7q0 5 -10 5h-231q-9 0 -12.5 3t-3.5 13v54q0 14 13 14h399q13 0 13 -13v-40q0 -16 -13 -33l-263 -345q-4 -4 -4 -8q0 -6 9 -6h259q15 0 15 -13v-56q0 -16 -17 -16h-415q-10 0 -14 3.5zM305 -147
q0 -10 -4.5 -14t-14.5 -4h-71q-9 0 -12.5 3.5t-3.5 11.5v86q0 8 2.5 11.5t8.5 3.5h84q11 0 11 -13v-85z" />
    <glyph glyph-name="uni1EB8" unicode="&#x1eb8;" horiz-adv-x="645" 
d="M94 742h485q13 0 13 -15v-76q0 -19 -18 -19h-330q-17 0 -17 -14v-175q0 -15 14 -15h228q15 0 15 -15v-81q0 -12 -14 -12h-230q-13 0 -13 -12v-186q0 -7 2.5 -9.5t8.5 -2.5h350q9 0 12.5 -3t3.5 -11v-81q0 -6 -4 -10.5t-13 -4.5h-489q-10 0 -14.5 4t-4.5 14v707
q0 17 15 17zM404 -147q0 -10 -4.5 -14t-14.5 -4h-71q-9 0 -12.5 3.5t-3.5 11.5v86q0 8 2.5 11.5t8.5 3.5h84q11 0 11 -13v-85z" />
    <glyph glyph-name="uni1EB9" unicode="&#x1eb9;" horiz-adv-x="584" 
d="M190 150.5q19 -32.5 52.5 -51t73.5 -18.5q41 0 74.5 17.5t63.5 54.5q5 5 8 5t9 -3l61 -27q7 -3 7 -9q0 -3 -4 -9q-45 -65 -99.5 -92.5t-134.5 -27.5q-76 0 -136.5 34t-94.5 95t-34 139q0 84 35 148t95 99t133 35q75 0 132.5 -33t89 -95.5t31.5 -148.5v-4q0 -10 -3 -14
t-13 -5h-354q-11 0 -11 -16q0 -41 19 -73.5zM408 314q10 0 13.5 2.5t3.5 11.5q0 32 -14 62t-41.5 49t-65.5 19q-59 0 -95.5 -41.5t-35.5 -102.5h235zM355 -147q0 -10 -4.5 -14t-14.5 -4h-71q-9 0 -12.5 3.5t-3.5 11.5v86q0 8 2.5 11.5t8.5 3.5h84q11 0 11 -13v-85z" />
    <glyph glyph-name="uni1EBC" unicode="&#x1ebc;" horiz-adv-x="645" 
d="M94 742h485q13 0 13 -15v-76q0 -19 -18 -19h-330q-17 0 -17 -14v-175q0 -15 14 -15h228q15 0 15 -15v-81q0 -12 -14 -12h-230q-13 0 -13 -12v-186q0 -7 2.5 -9.5t8.5 -2.5h350q9 0 12.5 -3t3.5 -11v-81q0 -6 -4 -10.5t-13 -4.5h-489q-10 0 -14.5 4t-4.5 14v707
q0 17 15 17zM412 849q-32 0 -75 15q-4 1 -24.5 7t-41.5 6q-20 0 -33.5 -5.5t-30.5 -17.5q-8 -4 -9 -4q-6 0 -9 10l-13 38q-1 3 -1 8q0 6 7 13q20 17 39 25.5t46 8.5q30 0 78 -16q17 -5 34.5 -9.5t32.5 -4.5q32 0 65 23q6 4 9 4q7 0 10 -11l12 -44l1 -5q0 -9 -11 -16
q-38 -25 -86 -25z" />
    <glyph glyph-name="uni1EBD" unicode="&#x1ebd;" horiz-adv-x="584" 
d="M190 150.5q19 -32.5 52.5 -51t73.5 -18.5q41 0 74.5 17.5t63.5 54.5q5 5 8 5t9 -3l61 -27q7 -3 7 -9q0 -3 -4 -9q-45 -65 -99.5 -92.5t-134.5 -27.5q-76 0 -136.5 34t-94.5 95t-34 139q0 84 35 148t95 99t133 35q75 0 132.5 -33t89 -95.5t31.5 -148.5v-4q0 -10 -3 -14
t-13 -5h-354q-11 0 -11 -16q0 -41 19 -73.5zM408 314q10 0 13.5 2.5t3.5 11.5q0 32 -14 62t-41.5 49t-65.5 19q-59 0 -95.5 -41.5t-35.5 -102.5h235zM371 637q-32 0 -75 15q-4 1 -24.5 7t-41.5 6q-20 0 -33.5 -5.5t-30.5 -17.5q-8 -4 -9 -4q-6 0 -9 10l-13 38q-1 3 -1 8
q0 6 7 13q20 17 39 25.5t46 8.5q30 0 78 -16q17 -5 34.5 -9.5t32.5 -4.5q32 0 65 23q6 4 9 4q7 0 10 -11l12 -44l1 -5q0 -9 -11 -16q-38 -25 -86 -25z" />
    <glyph glyph-name="uni1ECA" unicode="&#x1eca;" horiz-adv-x="306" 
d="M213 742q14 0 14 -16v-704q0 -12 -5.5 -17t-18.5 -5h-104q-12 0 -16 4t-4 14v707q0 17 15 17h119zM206 -147q0 -10 -4.5 -14t-14.5 -4h-71q-9 0 -12.5 3.5t-3.5 11.5v86q0 8 2.5 11.5t8.5 3.5h84q11 0 11 -13v-85z" />
    <glyph glyph-name="uni1ECB" unicode="&#x1ecb;" horiz-adv-x="256" 
d="M195 628q0 -12 -5.5 -17.5t-18.5 -5.5h-91q-11 0 -15 5t-4 15v98q0 19 16 19h103q7 0 11 -4.5t4 -12.5v-97zM193 22q0 -12 -5.5 -17t-18.5 -5h-87q-11 0 -15 4t-4 14v495q0 17 15 17h101q14 0 14 -16v-492zM184 -147q0 -10 -4.5 -14t-14.5 -4h-71q-9 0 -12.5 3.5
t-3.5 11.5v86q0 8 2.5 11.5t8.5 3.5h84q11 0 11 -13v-85z" />
    <glyph glyph-name="uni1ECC" unicode="&#x1ecc;" horiz-adv-x="770" 
d="M208 35q-75 45 -115.5 130.5t-40.5 202.5q0 119 41 205.5t116 132.5t177 46q101 0 176 -46t116 -132.5t41 -204.5q0 -117 -40.5 -202.5t-115.5 -131t-177 -45.5q-103 0 -178 45zM521 161q43 65 43 206q0 144 -43.5 212t-134.5 68t-135.5 -68t-44.5 -212q0 -141 44 -206
t137 -65q91 0 134 65zM440 -147q0 -10 -4.5 -14t-14.5 -4h-71q-9 0 -12.5 3.5t-3.5 11.5v86q0 8 2.5 11.5t8.5 3.5h84q11 0 11 -13v-85z" />
    <glyph glyph-name="uni1ECD" unicode="&#x1ecd;" horiz-adv-x="599" 
d="M162 24.5q-60 34.5 -93 96.5t-33 141q0 81 34 144.5t94 98.5t136 35q77 0 137 -35.5t93 -98.5t33 -143q0 -79 -33.5 -141t-93.5 -97t-137 -35t-137 34.5zM397.5 127q33.5 48 33.5 138q0 91 -34 140t-97 49t-97.5 -49t-34.5 -140q0 -90 34.5 -138t97.5 -48q64 0 97.5 48z
M350 -147q0 -10 -4.5 -14t-14.5 -4h-71q-9 0 -12.5 3.5t-3.5 11.5v86q0 8 2.5 11.5t8.5 3.5h84q11 0 11 -13v-85z" />
    <glyph glyph-name="uni1EE4" unicode="&#x1ee4;" horiz-adv-x="717" 
d="M572.5 55q-73.5 -65 -214.5 -65q-153 0 -220.5 72.5t-67.5 220.5v441q0 9 4 13.5t10 4.5h120q14 0 14 -16v-465q0 -84 38 -123.5t113 -39.5q155 0 155 166v461q0 17 14 17h95q13 0 13 -16v-461q0 -145 -73.5 -210zM410 -147q0 -10 -4.5 -14t-14.5 -4h-71q-9 0 -12.5 3.5
t-3.5 11.5v86q0 8 2.5 11.5t8.5 3.5h84q11 0 11 -13v-85z" />
    <glyph glyph-name="uni1EE5" unicode="&#x1ee5;" horiz-adv-x="588" 
d="M395 154v356q0 20 23 20h90q18 0 18 -19l-2 -495q0 -16 -14 -16h-98q-14 0 -14 15v53q0 5 -3 6t-7 -3q-46 -44 -87.5 -62.5t-88.5 -18.5q-68 0 -111.5 43t-43.5 115v361q0 21 21 21h92q9 0 13 -4.5t4 -14.5v-341q0 -39 22 -62t59 -23q61 0 127 69zM339 -147
q0 -10 -4.5 -14t-14.5 -4h-71q-9 0 -12.5 3.5t-3.5 11.5v86q0 8 2.5 11.5t8.5 3.5h84q11 0 11 -13v-85z" />
    <glyph glyph-name="Ygrave" unicode="&#x1ef2;" horiz-adv-x="715" 
d="M680 733q0 -4 -3 -9l-236 -390q-5 -7 -6 -14.5t-1 -30.5v-267q0 -12 -5.5 -17t-19.5 -5h-103q-11 0 -15.5 4.5t-4.5 14.5v272q0 11 -2 17.5t-8 16.5l-238 396q-4 5 -4 10q0 11 17 11h123q11 0 16 -3t11 -13l161 -281q6 -11 10 -11q3 0 10 10l159 282q5 10 10 13t16 3h100
q13 0 13 -9zM245.5 962.5q4.5 2.5 9.5 0.5l234 -98q11 -5 5 -18l-10 -31q-4 -10 -13 -10q-5 0 -8 1l-231 65q-15 5 -15 15l2 8l20 60q2 5 6.5 7.5z" />
    <glyph glyph-name="ygrave" unicode="&#x1ef3;" horiz-adv-x="554" 
d="M58 -162q-13 3 -13 14v64q0 15 29 15h66q32 0 55 27t23 57q0 10 -3 19l-192 474q-1 2 -1 7q0 6 4.5 10.5t11.5 4.5h104q7 0 12.5 -4t7.5 -11l124 -329q3 -9 8 -9t9 11l123 328q7 14 19 14h73q8 0 11.5 -6.5t0.5 -13.5l-210 -526q-25 -61 -53.5 -93t-66 -44t-95.5 -12
q-34 0 -47 3zM176.5 750.5q4.5 2.5 9.5 0.5l234 -98q11 -5 5 -18l-10 -31q-4 -10 -13 -10q-5 0 -8 1l-231 65q-15 5 -15 15l2 8l20 60q2 5 6.5 7.5z" />
    </font>
</defs>
</svg>
